<?xml version="1.0" encoding="UTF-8"?>
<svg id="_08_pois" data-name="08_pois" xmlns="http://www.w3.org/2000/svg" viewBox="0 0 1011.56 862.63">
  <defs>
    <style>
      .cls-1 {
        fill: #212e3f;
        stroke: none;
      }

      .cls-2 {
        fill: #fff;
        stroke: none;
      }

      .cls-3 {
        fill: #ce3434;
        stroke: none;
      }

      .cls-4 {
        fill: #193124;
        stroke: none;
      }

      .cls-5 {
        fill: #8400c1;
        stroke: none;
      }

      .cls-6 {
        fill: #00c980;
        stroke: none;
      }

      .cls-7 {
        fill: #7f4c2f;
        stroke: none;
      }
    </style>
  </defs>
  <g id="P000_templo">
    <g>
      <path class="cls-7" d="M353.09,659.87c-.2-.25-.38-.48-.56-.71-3.07-3.94-6.18-7.86-9.2-11.84-4.26-5.59-2.77-13.71,3.15-17.5,6.8-4.34,15.78-1.15,18.22,6.54,1.25,3.93.64,7.65-1.85,10.95-3.02,4-6.14,7.92-9.22,11.87-.17.22-.34.44-.54.68ZM353.09,648.5c4.64,0,8.43-3.78,8.44-8.42,0-4.66-3.78-8.45-8.44-8.45-4.65,0-8.43,3.78-8.44,8.42,0,4.66,3.78,8.46,8.44,8.46Z"/>
      <path class="cls-7" d="M359.65,640.07c0,3.61-2.96,6.55-6.57,6.55-3.63,0-6.57-2.96-6.56-6.59.01-3.61,2.97-6.54,6.59-6.54,3.61,0,6.55,2.96,6.54,6.58ZM354.02,635.39h-1.89v1.87h-1.84v1.88h1.87v5.59h1.88v-5.62h1.84v-1.88h-1.85v-1.84Z"/>
    </g>
  </g>
  <g id="P001_entrada_principal_toldo" data-name="P001_entrada principal_toldo">
    <g>
      <path class="cls-1" d="M573.39,508.4h-10.08v-.91c0-2.39,1.93-4.32,4.32-4.32h1.44c2.39,0,4.32,1.93,4.32,4.32v.91Z"/>
      <rect class="cls-1" x="564.12" y="508.85" width=".74" height="8.28"/>
      <rect class="cls-1" x="572.01" y="508.89" width=".74" height="8.28"/>
      <path class="cls-1" d="M568.38,508.61h0c-1.51,0-2.73,1.22-2.73,2.73v5.09h.34l.3-.68v-4.39h4.16v4.39l.33.68h.34v-5.09c0-1.51-1.22-2.73-2.73-2.73Z"/>
    </g>
  </g>
  <g id="P002_capela">
    <path class="cls-7" d="M537.96,398.75v7.12h.54l.34-.75v-2.6h0v-.31c0-1.53,1.24-2.78,2.78-2.78h0c1.53,0,2.78,1.24,2.78,2.78v.19h0v2.72l.35.75h.33v-7.12h-7.12Z"/>
    <path class="cls-7" d="M548.74,402c-.02,1.65-.45,2.98-1.12,4.25-.99,1.88-2.34,3.48-3.87,4.92-.63.59-1.31,1.14-1.97,1.7-.18.16-.29.15-.47.01-2.22-1.75-4.18-3.73-5.62-6.19-.65-1.11-1.12-2.3-1.29-3.58-.23-1.79.16-3.44,1.17-4.93,1.17-1.73,2.81-2.76,4.86-3.1,3.85-.63,7.55,2.04,8.19,5.88.07.41.09.83.12,1.04ZM536.14,402.19c0,2.97,2.41,5.4,5.37,5.4,2.99,0,5.41-2.41,5.42-5.39,0-2.96-2.41-5.39-5.38-5.4-2.99,0-5.42,2.41-5.42,5.39Z"/>
    <polygon class="cls-7" points="538.66 405.96 540.55 403.98 542.67 403.98 544.32 405.87 538.66 405.96"/>
  </g>
  <g id="P003_estacionamento_01">
    <g>
      <path class="cls-3" d="M820.47,685.14c-.17-.1-.34-.19-.5-.3-1.49-1.11-2.82-2.38-3.89-3.91-.66-.95-1.21-1.97-1.43-3.12-.48-2.48.26-4.54,2.16-6.14,1.16-.98,2.54-1.4,4.05-1.34,2.71.12,5.04,2.11,5.64,4.79.33,1.49.1,2.9-.53,4.26-.58,1.24-1.39,2.31-2.32,3.29-.78.82-1.62,1.56-2.53,2.22-.13.1-.28.17-.43.25h-.23ZM825.45,676.57c.02-2.69-2.15-4.92-4.82-4.95-2.68-.03-4.89,2.17-4.91,4.9-.03,2.73,2.15,4.97,4.84,4.99,2.68.02,4.87-2.19,4.89-4.94Z"/>
      <path class="cls-3" d="M820.57,680.81c-2.32.01-4.23-1.92-4.25-4.29-.02-2.39,1.88-4.35,4.23-4.36,2.37,0,4.27,1.91,4.28,4.31.01,2.39-1.89,4.32-4.26,4.34ZM818.76,678.35h3.65v.6h1.21c0-.06,0-.12,0-.17,0-.47,0-.95,0-1.42,0-.17-.04-.32-.16-.44-.12-.13-.23-.27-.37-.43h.53v-.61h-.75c-.01-.05-.03-.09-.04-.13-.12-.49-.24-.97-.36-1.46-.05-.18-.14-.27-.32-.27-1.04,0-2.09,0-3.13,0-.17,0-.27.08-.32.25-.04.15-.07.3-.11.45-.09.38-.19.76-.29,1.15h-.75v.62h.52c-.15.17-.27.32-.4.46-.09.1-.13.21-.13.35,0,.5,0,1,0,1.5,0,.05,0,.09,0,.14h1.21v-.6Z"/>
      <path class="cls-3" d="M822.23,675.87h-3.3c.1-.39.19-.77.29-1.15,0-.04.09-.07.14-.07.59,0,1.18,0,1.77,0,.23,0,.47,0,.7,0,.04,0,.11.04.12.07.1.38.19.76.29,1.15Z"/>
      <path class="cls-3" d="M818.15,677.11c0-.34.27-.62.61-.62.34,0,.6.28.6.62,0,.34-.27.62-.61.62-.34,0-.6-.28-.6-.62Z"/>
      <path class="cls-3" d="M823.01,677.11c0,.34-.27.62-.61.61-.33,0-.6-.28-.6-.62,0-.34.27-.62.61-.61.34,0,.6.28.6.62Z"/>
    </g>
  </g>
  <g id="P004_sala_de_oracao_RGO">
    <path class="cls-7" d="M241.07,215.64c-.64-3.84-4.34-6.51-8.19-5.88-2.06.33-3.69,1.37-4.86,3.1-1.01,1.49-1.39,3.14-1.17,4.93.16,1.29.64,2.47,1.29,3.58,1.43,2.46,3.39,4.44,5.62,6.19.18.14.28.14.47-.01.66-.56,1.34-1.11,1.97-1.7,1.54-1.45,2.89-3.04,3.87-4.92.66-1.26,1.09-2.59,1.12-4.25-.02-.21-.05-.63-.12-1.04ZM234.14,216.11c.09.01.15.31.16.4,0,.04.04.34.03.36-.03.1-.41-.01-.52.05-.04-.01-.04-.04-.05-.07,0-.04.09-.62.11-.65.04-.06.21-.09.27-.08ZM234,215.8c.09-.05.22.21.15.25-.05-.02-.13.01-.16,0-.13-.03-.01-.24.01-.26ZM230.28,219.89s.33-.07.38-.07c.1-.01.21,0,.31,0v.59s-.03.03-.06.03c-.09,0-.46-.06-.55-.08-.05-.01-.09-.04-.13-.06v-.04c0-.09-.03-.31.05-.36ZM230.22,220.46l.07-.05.68.09.04.6c-.06,0-.54-.2-.69-.28-.02-.01-.03-.03-.05-.05-.02-.08.04-.25-.06-.32ZM231.1,220.83c-.01-.07-.13-.24,0-.28.12-.04.52.06.68.04l.1.71s-.04.02-.08.02c-.09,0-.62-.14-.66-.18-.06-.08-.02-.2-.03-.3ZM231.96,218.91c.05-.05.49-.11.58-.11.06,0,.12-.03.15.04-.08.14.07.76-.13.79h-.68c-.07-.04.02-.21.03-.28,0-.11-.03-.36.05-.43ZM231.91,220.89c0-.09-.1-.22-.01-.29l.77.07v.78c-.12.04-.22-.04-.31-.06-.11-.02-.35.03-.42-.09-.04-.07-.01-.3-.02-.4ZM231.97,221.44c.18-.03.31.03.47.06.08.02.2-.03.26.04.02.2.07.39.09.58-.25-.06-.5-.13-.73-.22-.05-.2-.1-.45-.08-.46ZM232.72,219.72c.04-.1.58-.04.71-.09,0-.07.01-.05-.04-.06-.12-.02-.32,0-.45,0-.07,0-.17.06-.19-.02-.03-.1,0-.64.04-.73.03-.05.22-.09.27-.09h.45c.07.08.05.26.05.38,0,.11-.09.47-.09.51,0,.04.05.09.06.18,0,.16.02.56,0,.7,0,.03-.02.06-.05.08h-.69c-.15-.25-.04-.57-.06-.85ZM236.27,220.6l.72-.08c.08.06,0,.47-.01.58-.03.1-.6.16-.73.22l-.04-.07c.1-.2.04-.43.06-.65ZM232.79,221.61s.01-.06.05-.07l.69.05c.03.13,0,.27.01.41,0,.05.04.16.05.25-.25-.02-.49-.05-.73-.1-.03-.19-.08-.5-.07-.53ZM232.78,221.42s-.04-.11-.04-.14v-.6l.05-.05h.66s.07.07.07.11c.02.09.03.32.03.42,0,.1.02.25-.03.34-.06.04-.7-.03-.74-.08ZM234.5,221.44s0,.04-.03.06h-.82l-.05-.08c.05-.15-.12-.72.03-.79.04-.02.06.02.07.02h.76c.08,0,.01.18.01.23,0,.19.02.38.02.56ZM234.57,219.68c.08-.1.3-.02.41-.01.13,0,.31-.04.41.05v.82l-.05.05h-.76c-.07-.05-.02-.12-.01-.2,0-.1-.03-.67,0-.7ZM235.36,219.6s-.06-.03-.08-.03h-.71c0-.22,0-.43,0-.65,0-.14-.1-.18.1-.2.21-.02.41.03.62.04.04.02.11.74.06.84ZM234.62,220.63h.72s.05.05.05.08l-.07.71s-.55.1-.64.09c-.05,0-.11,0-.13-.05.07-.1-.02-.83.07-.83ZM235.45,220.63c.25,0,.49,0,.73-.05.07.05,0,.67-.05.74-.07.09-.29.05-.39.06-.1.01-.21.1-.35.06l.06-.82ZM235.39,221.51l.72-.06c-.01.08-.03.25-.07.41-.24.1-.49.18-.74.25l.08-.59ZM236.13,221.82c.03-.19.07-.41.13-.43.16.02.55-.18.68-.11l-.03.13c-.25.16-.51.3-.78.41ZM236.2,219.83v.66c-.1.08-.28.04-.41.05-.11,0-.26.09-.35-.02v-.82c.03-.09.2-.02.26-.02.12,0,.43-.04.5.05.03.05,0,.07,0,.09ZM236.18,219.62l-.71-.05c-.03-.12,0-.25-.02-.38-.01-.09-.13-.37,0-.41l.69.12c.04.11.13.65.05.71ZM235.42,218.71l-.15-.77c.24-.01.46.07.69.13l.16.72-.7-.07ZM235.32,218.6l-.03.06h-.69l-.05-.08-.03-.74h.44s.2.08.24.09l.12.66ZM234.56,221.59l.74-.06-.08.58c-.23.05-.46.09-.7.12l.04-.64ZM233.97,222.26c-.1,0-.21,0-.31,0l-.05-.58.05-.1c.12.07.79-.02.83.03l-.05.65c-.15.01-.31.02-.47.02ZM234.51,220.52l-.05.05h-.85l-.05-.05v-.82c0-.1.09-.08.14-.08h.77s.03.07.03.08v.82ZM234.48,219.38c0,.08.06.15-.01.2h-.85s-.04-.06-.05-.1c0-.07.02-.59.03-.67.02-.11.05-.08.1-.08h.76l.04.05c-.04.19-.03.41-.03.6ZM233.54,218.62c-.03.09-.45.05-.56.05-.12,0-.2.1-.2-.1,0-.06.08-.57.1-.6l.05-.05c.07,0,.15-.05.21-.06.08-.01.41-.03.45.02l-.05.74ZM232.73,218.38c-.02.12.05.31-.11.34l-.65.06.16-.72.66-.16c.04.17-.03.32-.06.47ZM237,221.34l.03-.14.32-.12c-.11.09-.23.17-.34.25ZM236.26,220.48c.07-.21,0-.45.01-.66,0-.16.22-.06.3-.06.1,0,.37-.02.42.03.08.08.04.51.03.64-.04.05-.73.12-.77.06ZM237.02,219.69c-.13-.02-.66,0-.73-.07-.06-.06-.02-.35-.03-.45,0-.1-.15-.26.04-.25.07,0,.61.14.64.17.09.09.07.48.08.6ZM236.23,218.83l-.18-.71s.61.15.68.19c.13.07.15.51.22.65l-.73-.13ZM236.75,218.21l-.67-.19c-.08-.03-.11-.27-.15-.36-.03-.07-.18-.38-.17-.4,0-.05.05-.03.08-.02.12.04.54.19.6.26.04.04.34.69.31.71ZM235.93,217.97l-.67-.13-.18-.8c.15.1.43.05.56.18.06.05.31.73.28.76ZM235.18,217.85c-.22-.11-.46,0-.67-.1-.02-.03-.08-.59-.09-.67,0-.03,0-.07.03-.09l.53.08c.1.25.15.52.2.79ZM234.38,218.66c-.24-.04-.51-.04-.75,0-.06-.11,0-.19,0-.29,0-.1-.02-.46.06-.51.25-.06.48-.05.73-.01.01.23.05.46.05.69,0,.07-.02.11-.09.12ZM233.58,217.75c-.09.11-.51-.03-.64.1-.02-.27.09-.53.16-.79l.56-.08-.09.76ZM232.84,217.82l-.68.15c.07-.26.15-.53.28-.78l.56-.13-.16.76ZM232.03,218.02c-.16.03-.31.08-.46.13-.08.03-.25.16-.21,0,.02-.07.23-.55.27-.6.11-.14.5-.25.68-.3l-.28.78ZM231.97,218.1l.06.03-.16.68c-.11.02-.7.2-.74.15l.19-.63.65-.24ZM231.87,219.75c.05-.1.42-.06.54-.06.04,0,.23-.07.23.02v.82l-.05.04c-.14-.02-.63,0-.71-.07-.04-.04-.05-.67-.01-.74ZM231.19,221.25s.62.14.7.18l.09.45c-.28-.11-.54-.24-.79-.4-.02-.11-.03-.21,0-.23ZM237.9,220.58v-.19s.23-.07.23-.07c-.07.09-.15.18-.23.26ZM237.84,220.64c-.11.11-.21.21-.33.31-.13.05-.28.09-.4.15l-.06-.03.06-.54.73-.1c.02.09.02.16,0,.22ZM237.11,220.42l.03-.59c.23-.05.46.04.68.07l-.02.41c-.06.06-.67.14-.69.1ZM237.84,219.81c-.12.03-.22-.04-.32-.06-.13-.02-.4.05-.43-.14-.03-.15.03-.34-.03-.5.03-.03.67.23.71.27.08.09.08.31.08.42ZM237.77,219.3l-.73-.28-.15-.59c.05-.05.71.37.77.45.03.05.13.4.1.42ZM236.86,218.27l-.26-.69s.74.48.8.54c.13.15.17.42.26.61l-.8-.45ZM237.31,217.94c-.24-.2-.52-.36-.8-.5l-.66-.95c.73.25,1.08.7,1.43,1.35,0,.01.1.04.03.1ZM236.36,217.34l-.64-.22-.51-.83c.55.07.87.64,1.15,1.06ZM235.6,217.09l-.58-.16-.3-.76.32.09c.09.05.6.8.55.83ZM234.94,216.9s-.01.06-.05.07l-.45-.06-.04-.05-.09-.69.06-.04c.07.03.2.01.26.06.04.03.31.66.31.7ZM234.39,217.53s.09.23-.02.23h-.66s-.03-.03-.04-.05c-.01-.04.05-.68.07-.71h.59s.05.44.06.53ZM233.66,216.91l-.51.06c-.05-.05.23-.66.3-.74.1-.11.2-.06.33-.11l-.12.78ZM233.05,216.94c-.17.11-.37.08-.56.15-.02-.02.2-.37.23-.42.16-.25.31-.5.65-.49l-.32.75ZM232.59,216.73c-.14.41-.4.48-.78.61-.04.02-.04.04-.08-.02.32-.41.59-1,1.18-1.04l-.32.45ZM231.57,217.44l-.77.47c-.06-.07.5-.82.59-.91.23-.24.58-.4.89-.51-.28.29-.49.63-.71.95ZM231.52,217.58l-.27.68-.82.47c.08-.17.12-.43.23-.57.07-.09.81-.62.86-.57ZM230.48,218.82c.07-.06.67-.43.71-.39l-.13.58c-.21.09-.42.19-.64.27-.04.02-.05.05-.09,0,0-.19,0-.31.15-.45ZM231.13,219.1l.69-.19.07.04-.12.7c-.12-.01-.66.09-.71.02,0-.18.06-.38.07-.56ZM231.05,219.81c.05-.1.34-.06.45-.06.05,0,.29-.08.29.02v.69l-.05.04-.68-.07s-.04-.56-.01-.62ZM231.06,221.23s.05.12.06.21c-.21-.13-.42-.28-.61-.45l.54.24ZM238.21,220.22c-.12.05-.27.09-.32.08v-.36c.09-.01.36.05.43.14-.04.05-.08.1-.11.15ZM238.32,219.96l-.41-.15v-.3c.03-.05.37.25.39.33.01.04.02.08.01.12ZM237.86,219.35l-.09-.35s.25.21.28.24c.1.12.24.33.26.48l-.46-.38ZM238.05,219.1c-.08-.1-.27-.22-.31-.32-.05-.12-.08-.32-.14-.45.29.27.57.67.66,1.06-.09-.07-.14-.2-.21-.29ZM237.86,218.5c-.09-.15-.28-.27-.37-.41-.18-.25-.27-.64-.53-.86-.01-.04,0-.06.04-.04.06.03.33.34.39.41.35.4.67.88.8,1.4l-.33-.5ZM237.29,217.35c-.46-.35-.86-.78-1.36-1.07l.02-.06c.1,0,.79.49.91.59.17.14.32.32.48.47l.38.54-.42-.47ZM236.17,216.49l-.1.02c-.34-.12-.64-.31-.93-.54.38.07.69.34,1.03.51ZM235.33,216.22c-.23.02-.41-.14-.54-.3.19.04.4.17.54.3ZM234.87,216.16l-.26-.09s-.2-.19-.16-.21c.03-.03.48.24.42.3ZM234.48,216.1c-.21.01-.25-.08-.3-.27.1-.04.36.21.3.27ZM233.61,216.1c-.06-.06.2-.31.3-.27-.07.16-.08.32-.3.27ZM233.24,216.13c-.01-.06.03-.07.07-.1.05-.04.29-.21.32-.17-.06.16-.22.27-.39.27ZM232.76,216.22c.14-.13.35-.26.54-.3-.13.15-.34.31-.54.3ZM232.45,216.32l-.51.2c.11-.12.29-.23.43-.31.17-.09.38-.21.56-.24l-.49.34ZM232.1,216.3c-.59.43-1.13.89-1.62,1.44-.01.01-.03.11-.08.06-.06-.07.63-.81.72-.89.11-.1.96-.73,1.03-.68.05.05-.04.07-.06.08ZM230.78,217.49s.28-.31.32-.27l-.52.89c-.22.24-.45.47-.59.77-.02.04.02.08-.07.07.12-.53.49-1.05.86-1.45ZM230.3,218.52l.16-.15c-.03.13-.07.38-.14.48-.06.09-.31.31-.42.46-.01.01-.03.11-.08.06-.06-.08.4-.73.47-.84ZM230.09,219.18l.2-.18c-.01.1-.01.27-.06.35-.05.08-.35.23-.42.35,0-.2.19-.35.29-.51ZM230.22,219.51l-.02.24c.13-.07.03-.27.11-.35.04-.04.69-.31.72-.28l-.09.59c-.12.07-.25.03-.38.05-.06,0-.11.06-.18.06-.08,0-.17-.04-.21-.03-.03,0-.02.07-.07.09-.1.04-.27.02-.37.13,0-.04,0-.07.02-.11.04-.09.38-.44.46-.37ZM230.16,219.93v.36s-.46-.11-.45-.2c.04-.07.42-.2.45-.17ZM230.17,220.4l.05.32c-.14-.14-.27-.28-.4-.43l.34.11ZM238.47,219.88c-.14-2.73-2.91-4.89-5.8-3.95-1.91.62-2.99,2.36-3.02,4.13-.66-.9-1.05-2-1.05-3.19,0-2.99,2.42-5.4,5.42-5.39,2.96,0,5.38,2.44,5.38,5.4,0,1.11-.34,2.15-.92,3.01Z"/>
    <path class="cls-7" d="M234.28,212.74c0-.14.15-.24.05-.42-.76.17-1.11,1-.86,1.73-.32.03-.15-.68-.2-.73-.25-.07-.43.44-.46.64-.21,1.65,2.17,1.88,2.38.52.16-1-.9-1.03-.91-1.74Z"/>
  </g>
  <g id="P005_centro_de_formacao">
    <path class="cls-7" d="M82.79,100.84c-2.6,0-4.7,2.15-4.7,4.81,0,2.25,1.5,3.97,3.53,4.46.33-.29.67-.63.71-.72.09-.23.08-2.04.06-2.11-.03-.12-.75-.77-.75-.77l.09-.14.59.17-.38-.92.14-.11.59.64.17-1.14h.2l.04,1.14.45-.67.16.05-.32,1.16.73-.02.09.13s-.96.44-.98.5c-.02.07-.03,1.84.06,2.09.04.12.35.45.68.73,2.04-.47,3.56-2.2,3.56-4.46,0-2.67-2.1-4.81-4.7-4.81ZM79.93,104.3c.09-.02.61.35.85.58.18.18.22.47.14.48-.06.02-.24-.15-.61-.36-.3-.17-.47-.68-.38-.71ZM81.64,107.91c-.26.01-.46.14-.74.15-.29,0-.71-.33-.68-.4.02-.05.16-.03.36-.03.16,0,.51-.06.84.03.33.09.48.24.22.25ZM81.69,107.19c-.15.06-.65.01-1.27-.22-.74-.28-.81-1.69-.68-1.72.13-.03.53.67,1.04.98.7.43,1.13.88.92.96ZM81.87,105.13c-.12.04-.5-.34-.78-.67-.58-.69-.57-1.52-.46-1.56.06-.02.23.17.45.4.26.26.59.59.74.85.27.46.13.96.05.98ZM81.97,103.2c-.05.03-.14-.04-.32-.16-.2-.15-.37-.69-.28-.72.07-.02.23.16.4.32.28.25.26.53.2.57ZM82.99,104.58c-.16-.03-.21-.44-.42-1.07-.26-.75-.26-2-.09-2.02.2-.02.71.9.87,1.54.17.68-.17,1.58-.35,1.55ZM83.84,102.95c.05-.28.23-.77.29-.74.06.02.2.46.03.85-.1.22-.22.35-.3.31-.05-.02-.09-.11-.02-.42ZM83.74,105.17c-.07-.1.35-.84.49-1.14.11-.22.55-1.03.67-1,.13.03.04,1.28-.23,1.68-.23.33-.88.53-.93.46ZM85.26,107.7c-.26.18-.61.12-.94.13-.35.01-.67.05-.66-.04.03-.2.53-.67,1.16-.69.41-.02.89-.3.98-.19.08.1-.12.5-.54.79ZM85.41,106.64c-.22.12-.47,0-.47-.06,0-.05.16-.1.43-.28.22-.15.58-.04.56.03-.02.07-.3.18-.52.31ZM85.23,105.88c-.45.17-.88.35-.94.28-.07-.1.46-.74.84-.9.49-.21.76-.5.85-.45.09.06-.19.86-.75,1.08Z"/>
    <path class="cls-7" d="M89.88,104.45c-.64-3.84-4.34-6.51-8.19-5.88-2.06.33-3.69,1.37-4.86,3.1-1.01,1.49-1.39,3.14-1.17,4.93.16,1.29.64,2.47,1.29,3.58,1.43,2.46,3.39,4.44,5.62,6.19.18.14.28.14.47-.01.66-.56,1.34-1.11,1.97-1.7,1.54-1.45,2.89-3.04,3.87-4.92.66-1.26,1.09-2.59,1.12-4.25-.02-.21-.05-.63-.12-1.04ZM82.77,111.07c-2.96,0-5.38-2.43-5.37-5.4,0-2.99,2.42-5.4,5.42-5.39,2.96,0,5.38,2.44,5.38,5.4,0,2.99-2.43,5.4-5.42,5.39Z"/>
  </g>
  <g id="P006_estacionamento_02">
    <g>
      <path class="cls-3" d="M381.66,326.09c-.2-.12-.42-.23-.61-.37-1.84-1.34-3.48-2.89-4.8-4.75-.82-1.16-1.49-2.39-1.76-3.79-.59-3.01.32-5.51,2.67-7.46,1.44-1.19,3.14-1.7,5-1.62,3.34.14,6.22,2.56,6.96,5.82.41,1.81.13,3.52-.66,5.18-.71,1.5-1.72,2.8-2.86,3.99-.96.99-2,1.89-3.12,2.69-.16.12-.35.2-.53.3h-.28ZM387.81,315.69c.03-3.26-2.66-5.98-5.95-6.01-3.31-.03-6.03,2.64-6.06,5.95-.03,3.31,2.65,6.03,5.97,6.06,3.31.02,6.01-2.65,6.03-5.99Z"/>
      <path class="cls-3" d="M381.79,320.84c-2.86.02-5.22-2.34-5.24-5.21-.02-2.91,2.32-5.28,5.21-5.29,2.92-.01,5.26,2.32,5.28,5.24.02,2.9-2.33,5.25-5.26,5.27ZM379.55,317.85h4.51v.73h1.5c0-.08,0-.14,0-.2,0-.57,0-1.15,0-1.72,0-.21-.05-.39-.2-.54-.15-.16-.29-.33-.46-.53h.65v-.74h-.92c-.02-.06-.03-.11-.05-.16-.15-.59-.3-1.18-.45-1.77-.06-.22-.18-.32-.4-.32-1.29,0-2.58,0-3.87,0-.21,0-.33.1-.39.31-.05.18-.09.36-.14.54-.12.46-.23.93-.35,1.4h-.93v.75h.64c-.18.21-.33.39-.49.56-.12.12-.16.26-.16.43,0,.61,0,1.22,0,1.83,0,.06,0,.11,0,.17h1.49v-.73Z"/>
      <path class="cls-3" d="M383.84,314.83h-4.07c.12-.48.23-.94.36-1.4.01-.04.11-.09.17-.09.73,0,1.45,0,2.18,0,.29,0,.57,0,.86,0,.05,0,.14.05.15.09.12.46.24.93.36,1.4Z"/>
      <path class="cls-3" d="M378.81,316.34c0-.42.33-.75.75-.75.41,0,.75.34.74.75,0,.42-.33.75-.75.75-.41,0-.75-.33-.74-.75Z"/>
      <path class="cls-3" d="M384.8,316.35c0,.42-.34.75-.75.75-.41,0-.74-.34-.74-.75,0-.41.34-.75.75-.75.41,0,.74.34.74.76Z"/>
    </g>
  </g>
  <g id="P007_area_kids">
    <g>
      <path class="cls-6" d="M908.39,403.81c-.29-.26-.41-.57-.31-.95.09-.34.31-.56.65-.64.52-.11,1.04-.22,1.56-.3.55-.09,1.01.32,1.02.88,0,.04,0,.07,0,.14.31-.06.61-.11.93-.17-.11-.59-.22-1.16-.33-1.76-.26.05-.51.09-.75.14-.13.02-.27.05-.4.08-.19.03-.34-.07-.37-.23-.03-.17.06-.31.25-.35.7-.14,1.41-.27,2.11-.41.25-.05.49-.1.74-.14.23-.04.39.04.42.22.03.19-.07.32-.31.37-.36.07-.72.14-1.1.21.11.59.22,1.16.33,1.76.34-.06.67-.12.99-.18.5-.1,1.01-.19,1.51-.29.08-.02.16-.07.21-.13.59-.8,1.63-1,2.46-.47.06.04.16.06.24.05.17-.02.34-.06.53-.09-.01-.05-.02-.1-.04-.14-.34-.85-.68-1.69-1.01-2.54-.07-.19-.19-.28-.39-.27-.19,0-.39,0-.61,0,0,.07,0,.14,0,.21,0,.59,0,1.17,0,1.76,0,.06,0,.11,0,.17-.03.16-.13.26-.3.26-.17,0-.27-.1-.29-.26-.01-.06,0-.12,0-.19,0-2.47,0-4.94,0-7.4v-.24h-.23c-2.47,0-4.94,0-7.4,0-.07,0-.14,0-.21,0-.23-.04-.33-.29-.19-.47.03-.04.07-.07.1-.11,1.45-1.36,2.9-2.71,4.36-4.07.21-.2.33-.2.55,0,1.45,1.36,2.91,2.71,4.36,4.07.12.11.21.22.14.39-.07.18-.22.2-.38.2-.16,0-.31,0-.48,0v3.9c.44,0,.88,0,1.33,0,.11,0,.21,0,.32.02.35.07.57.28.7.61.2.5.4,1,.6,1.51.43-.08.85-.16,1.27-.24.47-.09.94-.18,1.42-.27.2-.04.36.06.39.23.03.18-.07.32-.27.36-.37.08-.75.14-1.14.22.11.59.22,1.17.33,1.77.31-.06.61-.11.91-.17-.03-.13-.08-.25-.09-.37-.05-.45.23-.86.68-.96.51-.11,1.01-.21,1.53-.29.72-.12,1.31.59.97,1.28.11.25.25.45.29.67.09.48-.24.9-.74,1-.66.13-1.32.25-1.99.38-.61.12-1.23.23-1.84.35-.04,0-.07.02-.13.04.17.42.33.83.51,1.23.04.08.18.13.28.14.22.02.44,0,.66,0,.5,0,.9.4.9.89,0,.5-.39.9-.9.91-.47,0-.95,0-1.42,0-.47,0-.76-.2-.93-.64-.27-.68-.54-1.35-.81-2.03-.02-.06-.05-.11-.08-.18-.22.04-.42.08-.65.12v.7c0,.54,0,1.07,0,1.61,0,.33-.09.42-.43.42-.91,0-1.82,0-2.74,0-.35,0-.44-.08-.44-.45,0-.52,0-1.05,0-1.59-.4.08-.79.15-1.17.22-1.54.29-3.08.58-4.62.88-.38.07-.71,0-.96-.31-.25-.31-.25-.65-.07-1.02ZM916.55,392.29c-1.26-1.18-2.49-2.33-3.73-3.48-1.24,1.16-2.47,2.31-3.73,3.48h7.46ZM918.21,405.48c0-.8,0-1.58,0-2.36,0-.7-.52-1.23-1.19-1.23-.68,0-1.2.53-1.2,1.24,0,.73,0,1.46,0,2.19,0,.05,0,.11.01.16h2.39ZM918.8,402.75c.14-.03.27-.05.4-.08,1.96-.37,3.92-.75,5.88-1.12.22-.04.32-.18.29-.36-.04-.18-.19-.26-.41-.22-1.76.33-3.52.66-5.28,1-.37.07-.73.14-1.1.21.07.2.14.38.21.56ZM915.21,402.82c-.54.1-1.06.2-1.58.3-1.49.28-2.98.57-4.47.85-.22.04-.32.18-.29.36.03.17.19.26.41.22,1.58-.3,3.15-.6,4.73-.89.4-.08.79-.15,1.2-.23v-.61ZM916.72,397.99c.2,0,.38,0,.56,0,.53,0,.8.19,1,.68.3.75.6,1.5.9,2.26q.2.51.74.4s.02-.01.03-.02c0-.01,0-.03,0-.04-.49-1.23-.98-2.46-1.47-3.68-.03-.08-.15-.18-.23-.19-.51-.02-1.02,0-1.54,0v.6ZM920.06,403.12c.3.74.58,1.45.86,2.16.05.14.16.2.31.2.49,0,.97,0,1.46,0,.19,0,.32-.13.31-.3,0-.17-.13-.29-.32-.3-.17,0-.35,0-.52,0-.56,0-.82-.18-1.03-.69-.16-.39-.31-.78-.48-1.19-.2.04-.38.07-.6.11ZM920.74,399.33c-.29.05-.56.11-.84.16.23.57.45,1.13.68,1.7.17-.03.33-.07.5-.1-.11-.6-.22-1.17-.33-1.76ZM923.43,400.65c.48-.1,1-.19,1.52-.31.15-.03.21-.17.19-.32-.03-.15-.13-.26-.29-.24-.53.09-1.06.19-1.58.3-.15.03-.22.17-.19.32.03.16.14.24.34.25ZM909,403.39c.48-.09.99-.19,1.5-.3.16-.03.23-.17.21-.33-.03-.16-.14-.27-.31-.24-.52.09-1.03.19-1.54.29-.16.03-.23.17-.21.33.03.16.14.24.34.24Z"/>
      <path class="cls-6" d="M912.81,394.09c1.33,0,2.41,1.08,2.4,2.41,0,1.32-1.08,2.39-2.4,2.39-1.31,0-2.4-1.08-2.39-2.4,0-1.32,1.08-2.4,2.4-2.4ZM914.61,396.5c0-.99-.8-1.81-1.79-1.81-.99,0-1.8.8-1.81,1.79,0,.99.8,1.81,1.79,1.81,1,0,1.8-.8,1.81-1.79Z"/>
      <path class="cls-6" d="M909.51,397.71c0,1.24,0,2.49,0,3.73,0,.06,0,.13,0,.19-.03.16-.13.26-.3.26-.17,0-.27-.1-.29-.26-.01-.06,0-.12,0-.19,0-2.5,0-5,0-7.5,0-.02,0-.04,0-.06,0-.25.11-.39.3-.39.19,0,.3.14.3.39,0,1.27,0,2.55,0,3.82Z"/>
      <path class="cls-6" d="M924.21,391.41c0,.82-.68,1.49-1.5,1.48-.84,0-1.5-.69-1.5-1.53,0-.81.69-1.48,1.51-1.47.83,0,1.49.69,1.49,1.52ZM923.61,391.39c0-.5-.41-.9-.91-.89-.49,0-.89.42-.88.9,0,.5.42.9.91.89.49,0,.89-.41.88-.9Z"/>
      <path class="cls-6" d="M924.37,390.01c-.07-.05-.18-.1-.21-.18-.04-.09-.03-.24.02-.31.14-.18.31-.34.48-.49.12-.1.26-.09.37.02.11.1.15.24.06.35-.17.2-.36.38-.55.55-.03.03-.09.03-.18.06Z"/>
      <path class="cls-6" d="M923.01,388.69c0,.11,0,.21,0,.32-.01.17-.14.28-.3.28-.16,0-.29-.11-.3-.28-.01-.21,0-.42,0-.64,0-.17.14-.28.29-.28.16,0,.28.11.3.28,0,.11,0,.21,0,.32Z"/>
      <path class="cls-6" d="M920.03,391.69c-.11,0-.21,0-.32,0-.18-.01-.3-.14-.3-.3,0-.16.12-.29.3-.29.2,0,.4,0,.6,0,.18,0,.3.14.3.3,0,.16-.12.28-.3.3-.09,0-.19,0-.28,0Z"/>
      <path class="cls-6" d="M925.4,391.69c-.1,0-.2,0-.3,0-.18-.01-.3-.14-.29-.3,0-.16.12-.28.29-.29.21,0,.41,0,.62,0,.18,0,.3.14.29.3,0,.16-.12.27-.29.29-.01,0-.02,0-.04,0-.09,0-.19,0-.28,0h0Z"/>
      <path class="cls-6" d="M923.01,394.09c0,.11,0,.21,0,.32-.01.17-.14.28-.3.28-.16,0-.29-.11-.3-.28-.01-.21,0-.42,0-.64,0-.17.14-.28.29-.28.16,0,.28.11.3.28,0,.01,0,.02,0,.04,0,.09,0,.19,0,.28,0,0,0,0,0,0Z"/>
      <path class="cls-6" d="M920.54,393.83c-.07-.05-.18-.1-.21-.18-.03-.09-.03-.24.03-.31.14-.18.3-.33.47-.48.12-.1.26-.09.38,0,.11.1.15.24.07.35-.16.2-.36.38-.55.56-.03.03-.09.03-.18.05Z"/>
      <path class="cls-6" d="M920.53,388.98c.25,0,.8.53.77.72-.01.09-.08.21-.16.25-.08.04-.24.03-.31-.02-.18-.14-.34-.3-.47-.47-.05-.07-.06-.22-.02-.31.03-.08.15-.13.19-.16Z"/>
      <path class="cls-6" d="M924.88,393.8c-.25,0-.79-.53-.76-.71.01-.09.07-.22.15-.25.09-.04.25-.03.32.02.17.13.33.29.46.46.06.08.06.23.02.32-.03.08-.15.12-.19.15Z"/>
      <path class="cls-6" d="M917.02,402.34c.41,0,.75.34.74.75,0,.41-.34.75-.75.74-.41,0-.75-.34-.74-.75,0-.41.34-.74.75-.74ZM917.22,403.09c-.1-.07-.16-.15-.2-.14-.06.01-.13.08-.15.14,0,.03.08.13.13.13.06,0,.12-.07.22-.14Z"/>
    </g>
  </g>
  <g id="P008_refeitorio_externo">
    <path class="cls-1" d="M921.09,444.83c-.02,1.65-.45,2.98-1.12,4.25-.99,1.88-2.34,3.48-3.87,4.92-.63.59-1.31,1.14-1.97,1.7-.18.16-.29.15-.47.01-2.22-1.75-4.18-3.73-5.62-6.19-.65-1.11-1.12-2.3-1.29-3.58-.23-1.79.16-3.44,1.17-4.93,1.17-1.73,2.81-2.76,4.86-3.1,3.85-.63,7.55,2.04,8.19,5.88.07.41.09.83.12,1.04ZM908.49,445.01c0,2.97,2.41,5.4,5.37,5.4,2.99,0,5.41-2.41,5.42-5.39,0-2.96-2.41-5.39-5.38-5.4-2.99,0-5.42,2.41-5.42,5.39Z"/>
    <path class="cls-1" d="M915.09,446.51c0-.39,0-.77,0-1.16,0-.13-.04-.2-.14-.27-.93-.67-1.03-2.14-.21-2.94.57-.56,1.39-.54,1.93.03.79.84.66,2.25-.27,2.93-.06.04-.11.15-.11.22,0,.77,0,1.55,0,2.32,0,.4-.24.67-.6.67-.35,0-.6-.27-.6-.67,0-.38,0-.76,0-1.14Z"/>
    <path class="cls-1" d="M911.19,443.51h.6c0-.37,0-.73,0-1.09,0-.11,0-.22,0-.34,0-.23.12-.37.31-.37.18,0,.29.14.29.36,0,.41,0,.82,0,1.24,0,.06,0,.12,0,.19h.6c0-.06,0-.12,0-.18,0-.42,0-.85,0-1.27,0-.21.12-.34.3-.34.18,0,.3.13.3.33,0,.79,0,1.59,0,2.38,0,.48-.32.79-.9.9,0,.24,0,.48,0,.72,0,.53,0,1.06,0,1.59,0,.39-.25.67-.61.66-.35,0-.59-.27-.59-.66,0-.71,0-1.41,0-2.12,0-.07,0-.14,0-.21-.45-.06-.76-.27-.88-.72-.02-.07-.02-.14-.02-.2,0-.77,0-1.55,0-2.32,0-.14.03-.26.17-.33.21-.1.43.04.43.3,0,.44,0,.87,0,1.31,0,.04,0,.09,0,.15Z"/>
  </g>
  <g id="P009_livraria_evangelica">
    <g>
      <path class="cls-1" d="M291.99,403.5c.47-.44.98-.8,1.57-1.06.35-.15.72-.26,1.11-.3.22-.02.38.11.38.33,0,.98,0,1.96,0,2.95,0,.22-.11.33-.33.35-.93.08-1.75.43-2.48,1-.2.15-.31.15-.51,0-.73-.57-1.55-.91-2.48-.99-.22-.02-.32-.13-.32-.35,0-.98,0-1.96,0-2.93,0-.24.15-.37.4-.34.92.11,1.69.54,2.39,1.12.09.07.17.15.27.24Z"/>
      <path class="cls-1" d="M290.71,401.06c0-.74.57-1.3,1.32-1.3.73,0,1.3.57,1.3,1.31,0,.74-.57,1.31-1.31,1.31-.74,0-1.3-.57-1.3-1.32Z"/>
      <path class="cls-1" d="M298.42,403.38c-.02,1.47-.4,2.65-.99,3.78-.88,1.67-2.08,3.09-3.44,4.38-.56.53-1.16,1.01-1.75,1.51-.16.14-.26.14-.42.01-1.97-1.55-3.72-3.32-4.99-5.5-.58-.99-1-2.04-1.15-3.19-.2-1.59.14-3.06,1.04-4.38,1.04-1.53,2.49-2.46,4.32-2.75,3.42-.56,6.71,1.82,7.28,5.23.06.37.08.74.1.92ZM287.22,403.54c0,2.64,2.15,4.8,4.78,4.8,2.66,0,4.81-2.14,4.82-4.8,0-2.63-2.15-4.79-4.78-4.8-2.66,0-4.81,2.14-4.82,4.79Z"/>
    </g>
  </g>
  <g id="P010_espaco_conexao">
    <polygon class="cls-1" points="314.76 409.08 314.77 409.08 314.77 408.63 314.78 408.62 314.77 408.62 314.77 408.61 314.76 408.61 313.1 406.94 312.77 407.28 314.1 408.61 311.31 408.61 311.31 409.08 314.1 409.08 312.76 410.42 313.09 410.76 314.77 409.08 314.76 409.08"/>
    <polygon class="cls-1" points="319 408.62 316.2 408.62 317.55 407.28 317.21 406.94 315.54 408.62 315.54 408.62 315.53 408.62 315.53 409.07 315.53 409.08 315.53 409.08 315.53 409.09 315.54 409.09 317.2 410.76 317.54 410.42 316.21 409.09 319 409.09 319 408.62"/>
    <polygon class="cls-1" points="315.39 409.21 315.39 409.2 314.94 409.2 314.94 409.19 314.93 409.2 314.92 409.2 314.92 409.21 313.26 410.87 313.59 411.2 314.92 409.88 314.92 412.67 315.39 412.67 315.39 409.87 316.74 411.22 317.07 410.88 315.39 409.21 315.39 409.21"/>
    <polygon class="cls-1" points="314.94 408.43 314.94 408.44 315.39 408.44 315.39 408.45 315.4 408.44 315.41 408.44 315.41 408.43 317.07 406.77 316.74 406.44 315.41 407.76 315.41 404.98 314.94 404.98 314.94 407.77 313.59 406.42 313.26 406.76 314.94 408.44 314.94 408.43"/>
    <path class="cls-1" d="M319.91,408.8c-.01,1.11-.3,2.01-.75,2.86-.67,1.27-1.58,2.34-2.61,3.32-.43.4-.88.77-1.33,1.15-.12.11-.2.1-.32,0-1.5-1.18-2.82-2.52-3.79-4.17-.44-.75-.76-1.55-.87-2.42-.15-1.21.11-2.32.79-3.33.79-1.16,1.89-1.86,3.28-2.09,2.59-.42,5.09,1.38,5.52,3.97.05.28.06.56.08.7ZM311.41,408.93c0,2,1.63,3.64,3.62,3.64,2.02,0,3.65-1.62,3.65-3.64,0-2-1.63-3.64-3.63-3.64-2.02,0-3.65,1.62-3.65,3.64Z"/>
  </g>
  <g id="P011_bercario">
    <g>
      <g>
        <path class="cls-1" d="M404.69,394.3c-.23.09-.43.04-.62-.09-.15-.1-.21-.27-.16-.43.05-.17.16-.26.35-.3.05,0,.11-.04.13-.08.25-.46.53-.58,1.03-.43.11-.5.34-.63.71-.4.2-.09.3-.24.38-.44.2-.47.72-.75,1.22-.7.54.06,1,.46,1.12.98.11.46,0,.88-.34,1.2-.22.22-.51.38-.76.57-.07.05-.14.12-.19.2-.16.26-.29.55-.47.79-.41.54-.97.69-1.62.54-.52-.13-.84-.62-.81-1.22,0-.06,0-.13.01-.2ZM405.84,393.89c-.02.12-.03.22-.06.32-.02.04-.09.06-.14.1-.03-.05-.07-.09-.08-.14-.01-.03.01-.08.02-.12.03-.22.04-.44-.07-.64-.13-.26-.47-.34-.69-.15-.08.07-.16.16-.19.26-.06.16-.13.25-.32.23-.05,0-.14.06-.15.1-.02.05.02.14.06.18.16.15.39.12.51-.07.06-.09.09-.21.15-.31.02-.04.11-.08.14-.07.04.03.07.1.08.15,0,.06-.03.11-.05.17-.09.28-.14.57-.11.86.05.39.3.67.68.75.52.1.97-.03,1.3-.45.12-.15.23-.3.3-.48.14-.33.34-.57.67-.73.31-.15.55-.39.69-.71.24-.55-.05-1.2-.63-1.4-.57-.2-1.14.12-1.29.73-.02.1-.07.15-.17.18-.24.09-.32.36-.18.56.03.04.09.07.11.11.03.05.07.13.05.17-.04.09-.12.07-.19.02-.04-.03-.09-.07-.12-.11-.14-.14-.18-.31-.16-.51.01-.1-.03-.17-.13-.18-.1-.01-.16.04-.18.14,0,.02,0,.05-.01.07-.04.46.31.91.77.98.08.01.16,0,.24.03.04.01.09.06.09.1,0,.04-.04.1-.08.12-.04.02-.1.01-.15.01-.27-.01-.5-.12-.71-.28Z"/>
        <path class="cls-1" d="M409.66,394.64c.06.41-.05.78-.23,1.14-.12.23-.19.48-.31.71-.1.18-.23.35-.38.49-.21.19-.44.35-.66.53-.04.04-.08.11-.08.17,0,.25,0,.5,0,.74,0,.09-.02.17-.12.17-.1,0-.12-.08-.12-.17,0-.28,0-.56,0-.83,0-.07.05-.16.1-.21.24-.2.5-.39.74-.59.12-.1.22-.23.29-.37.14-.28.24-.57.38-.86.12-.24.18-.49.16-.76-.01-.19,0-.39,0-.58,0-.07.03-.17-.08-.17-.08,0-.2.02-.23.08-.07.11-.1.24-.13.37-.02.09-.01.19-.04.28-.01.05-.08.08-.12.13-.04-.04-.12-.09-.11-.13.04-.24.07-.49.15-.72.08-.21.28-.29.49-.25.21.04.3.15.3.35,0,.16,0,.33,0,.49Z"/>
        <path class="cls-1" d="M402.75,394.73c-.06.29.05.62.21.94.12.24.2.5.32.73.07.14.17.27.28.37.22.19.45.37.69.54.12.09.18.18.17.33-.01.25,0,.51,0,.76,0,.09-.01.17-.11.17-.12,0-.13-.09-.13-.18,0-.23,0-.46,0-.68,0-.12-.04-.19-.13-.26-.22-.16-.44-.31-.63-.5-.14-.14-.28-.3-.36-.48-.18-.37-.33-.75-.49-1.13-.03-.08-.05-.17-.05-.26,0-.31,0-.62,0-.92,0-.32.32-.52.6-.34.11.07.21.2.25.33.06.17.08.37.09.55,0,.05-.06.14-.11.16-.09.02-.12-.06-.13-.14-.02-.16-.04-.32-.08-.47-.02-.07-.06-.16-.12-.2-.06-.04-.15-.04-.22-.03-.03,0-.05.09-.06.15,0,.15,0,.31,0,.54Z"/>
        <path class="cls-1" d="M408.66,395.39c-.18-.12-.35-.09-.5.03-.19.16-.36.35-.55.52-.1.08-.21.16-.33.21-.42.16-.71.56-.72,1.02,0,.42,0,.83,0,1.25,0,.09,0,.17-.11.17-.04,0-.12-.07-.12-.11,0-.51-.03-1.01.02-1.51.05-.51.38-.84.85-1.04.08-.03.16-.08.22-.14.16-.15.31-.32.48-.47.32-.29.68-.31.97-.08.14.11.14.17.02.29-.31.32-.63.63-.95.95-.06.06-.13.12-.22.04-.08-.08-.02-.15.04-.21.28-.28.57-.57.85-.85.01-.01.02-.03.04-.05Z"/>
        <path class="cls-1" d="M403.51,395.39s.07.08.11.12c.27.27.54.54.81.81.03.04.05.14.02.18-.05.08-.13.05-.19-.01-.33-.33-.67-.67-1-1-.08-.08-.06-.15.02-.23.24-.22.55-.26.83-.07.2.14.37.32.54.48.12.11.24.21.4.27.52.23.79.64.81,1.21.01.41,0,.82,0,1.23,0,.09,0,.19-.12.19-.13,0-.12-.1-.12-.19,0-.4,0-.8,0-1.2,0-.51-.32-.92-.81-1.07-.06-.02-.11-.06-.16-.1-.19-.18-.37-.37-.57-.55-.2-.18-.37-.19-.58-.07Z"/>
      </g>
      <path class="cls-1" d="M412.72,394.96c-.02,1.47-.4,2.65-.99,3.78-.88,1.67-2.08,3.09-3.44,4.38-.56.53-1.16,1.01-1.75,1.51-.16.14-.26.14-.42.01-1.97-1.55-3.72-3.32-4.99-5.5-.58-.99-1-2.04-1.15-3.19-.2-1.59.14-3.06,1.04-4.38,1.04-1.53,2.49-2.46,4.32-2.75,3.42-.56,6.71,1.82,7.28,5.23.06.37.08.74.1.92ZM401.52,395.13c0,2.64,2.15,4.8,4.78,4.8,2.66,0,4.81-2.14,4.82-4.8,0-2.63-2.15-4.79-4.78-4.8-2.66,0-4.81,2.14-4.82,4.79Z"/>
    </g>
  </g>
  <g id="P012_sala_de_oracao_cleusa">
    <path class="cls-1" d="M539.47,491.47l1.29,1.55c.3.36.83.44,1.22.18,2.04-1.35,2.62-2.84,2.26-5.36-.08-.57.03-1.17.04-1.75.01-.41.1-.85-.02-1.23-.02-.07-.06-.13-.11-.18-.29-.34-.83-.3-1.08.07-.04.05-.07.11-.09.17-.29.84-.51,1.7-.76,2.56-.03.09-.12.15-.22.12h0c-.09-.03-.15-.12-.13-.22.27-1.07.53-2.14.83-3.2.05-.17.29-.29.45-.43.33-.29.92-.55.94-.85.08-1.12-.04-2.26-.09-3.39,0-.01-.02-.03-.05-.04-.12-.05-.26-.05-.38,0-.05.02-.1.05-.11.09-.86,2.58-1.8,5.14-2.53,7.76-.31,1.12-.2,2.39-1.29,3.04-.39.24-.48.77-.19,1.12Z"/>
    <path class="cls-1" d="M549.99,491.4l-1.29,1.55c-.3.36-.83.44-1.22.18-2.04-1.35-2.62-2.84-2.26-5.36.08-.57-.03-1.17-.04-1.75-.01-.41-.1-.85.02-1.23.02-.07.06-.13.11-.18.29-.34.83-.3,1.08.07.04.05.07.11.09.17.29.84.51,1.7.76,2.56.03.09.12.15.22.12h0c.09-.03.15-.12.13-.22-.27-1.07-.53-2.14-.83-3.2-.05-.17-.29-.29-.45-.43-.33-.29-.92-.55-.94-.85-.08-1.12.04-2.26.09-3.39,0-.01.02-.03.05-.04.12-.05.26-.05.38,0,.05.02.1.05.11.09.86,2.58,1.8,5.14,2.53,7.76.31,1.12.2,2.39,1.29,3.04.39.24.48.77.19,1.12Z"/>
  </g>
  <g id="P013_recepcao">
    <path class="cls-1" d="M572.67,449.72c0,.89-.22,1.6-.57,2.29-.52,1.02-1.23,1.88-2.04,2.67-.33.32-.69.62-1.04.93-.1.09-.15.09-.25.01-1.21-.92-2.27-1.97-3.06-3.28-.36-.59-.62-1.22-.72-1.91-.14-.96.06-1.85.59-2.66.61-.93,1.48-1.5,2.59-1.7,2.06-.36,4.07,1.04,4.44,3.09.04.22.06.44.07.56ZM565.91,449.91c.02,1.59,1.34,2.88,2.93,2.86,1.61-.02,2.89-1.33,2.87-2.94-.02-1.59-1.34-2.88-2.93-2.86-1.61.02-2.89,1.33-2.87,2.94Z"/>
    <path class="cls-1" d="M570.08,452.08l-.25.05c-.57.11-1.15.12-1.73.04l-.54-.08c-.62-.09-1.08-.65-1.09-1.32v-.51s1.84.15,1.84.15c.33.03.65.02.98-.01l1.91-.21v.42c.02.72-.46,1.35-1.12,1.47Z"/>
    <path class="cls-1" d="M568.82,449.25c-.53,0-.97-.42-.97-.95s.42-.97.95-.97.97.42.97.95-.42.97-.95.97ZM568.79,447.4c-.49,0-.88.41-.87.9s.41.88.9.87.88-.41.87-.9-.41-.88-.9-.87Z"/>
    <circle class="cls-1" cx="567.43" cy="449.46" r=".35"/>
    <path class="cls-1" d="M567.35,450.25l-.56-.05c.04-.18.27-.31.55-.32.31,0,.57.15.57.35,0,.02,0,.04,0,.06l-.56-.04Z"/>
    <polygon class="cls-1" points="568.87 448.45 568.75 448.6 568.23 447.79 568.38 447.69 568.87 448.45"/>
    <rect class="cls-1" x="568.96" y="447.67" width=".18" height=".93" transform="translate(675.6846 1164.5616) rotate(-136.6869)"/>
    <circle class="cls-1" cx="568.83" cy="447.59" r=".08"/>
    <circle class="cls-1" cx="568.73" cy="449.01" r=".08"/>
    <circle class="cls-1" cx="569.53" cy="448.34" r=".08"/>
    <circle class="cls-1" cx="568.09" cy="448.28" r=".08"/>
  </g>
  <g id="P014_seven_pass">
    <path class="cls-1" d="M739.92,455.74c-.67-.61-1.29-1.26-1.86-1.94-.93-1.11-1.76-2.28-2.38-3.6-.49-1.06-.83-2.16-.83-3.34,0-2.43,1.64-4.47,4.01-5.01,2.58-.58,5.24,1.03,5.95,3.62.32,1.15.21,2.28-.13,3.4-.38,1.26-1.01,2.39-1.76,3.46-.84,1.2-1.8,2.28-2.86,3.28-.04.04-.08.07-.13.12ZM739.93,442.47c-2.4,0-4.35,1.94-4.35,4.34,0,2.39,1.94,4.35,4.33,4.35,2.41,0,4.37-1.94,4.37-4.36,0-2.39-1.95-4.33-4.34-4.33Z"/>
    <path class="cls-1" d="M739.92,450.67c-2.14,0-3.87-1.74-3.86-3.89,0-2.11,1.75-3.84,3.86-3.84,2.14,0,3.87,1.74,3.86,3.89,0,2.11-1.75,3.84-3.86,3.84ZM741.86,449.7v-.17c0-.7,0-1.41,0-2.11,0-.1.03-.14.12-.2.18-.1.38-.23.51-.39.46-.55.45-1.42,0-1.99-.47-.6-1.28-.59-1.75,0-.61.78-.35,2.12.64,2.43v2.42h.48ZM738.47,444.41v2.25c-.12-.06-.21-.11-.31-.15-.13-.06-.17-.14-.17-.28,0-.55,0-1.11,0-1.66v-.16h-.47s-.01.03-.01.03c0,.64,0,1.28,0,1.92,0,.24.14.43.35.54.16.09.33.17.5.25.09.04.11.09.11.18,0,.74,0,1.48,0,2.22,0,.05,0,.11,0,.16h.48c0-.07,0-.12,0-.18,0-.73,0-1.47,0-2.2,0-.08.01-.13.1-.17.15-.06.3-.15.45-.22.29-.13.42-.36.42-.67,0-.57,0-1.15,0-1.72,0-.04,0-.09,0-.13h-.47c0,.07,0,.12,0,.18,0,.56,0,1.12,0,1.67,0,.07-.03.16-.08.19-.12.08-.25.14-.4.21v-2.26h-.48Z"/>
  </g>
  <g id="P015_bazar_abasc">
    <path class="cls-1" d="M822.34,449.87l-5.99-3.63v-.71c1.46-.2,2.14-1.97,1.18-3.11-.9-1.08-2.64-.84-3.21.44-.11.24-.34.98.04,1.06.4.08.33-.33.38-.57.24-1.13,1.75-1.44,2.42-.49.57.8.12,1.93-.84,2.12-.21.04-.5-.02-.53.27-.03.29.04.66,0,.94,0,.03,0,.05-.02.07l-5.99,3.63c-.68.55-.35,1.68.49,1.78h5.01v4.07h3.74v-4.07h2.94c.8-.24,1.06-1.25.39-1.79ZM821.73,450.72h-2.79s0,0,0,0h-.05c.03-.33-.28-.65-.61-.68-1.16.07-2.44-.13-3.58-.02-.23.02-.47.16-.54.39h.82c.1,0,.27.19.24.31h-.01s-4.94,0-4.94,0c-.08-.02-.12-.2-.05-.25l5.77-3.49h.05s5.76,3.52,5.76,3.52c.03.08.02.17-.06.22Z"/>
  </g>
  <g id="P016_jardim">
    <path class="cls-5" d="M63.38,655.43v.34c-.45,1.47-1.63,2.06-2.99,2.45.05.06.1.12.14.17.55.66.9,1.41,1,2.26.05.44.03.88-.18,1.29-.21.41-.54.56-.99.48-.09-.02-.17-.04-.27-.06,0,.08,0,.14,0,.2-.03.48-.3.8-.78.86-.21.03-.44.03-.65-.02-.85-.18-1.51-.67-2.07-1.31-.2-.23-.37-.49-.55-.74,0,0-.01,0-.01.01-.02.03-.04.07-.06.1-.39.68-.92,1.23-1.61,1.61-.48.26-.98.44-1.54.36-.43-.07-.69-.32-.76-.75-.02-.1-.02-.2-.03-.31-.06.02-.1.03-.15.04-.54.15-.93-.04-1.15-.56-.16-.38-.18-.79-.13-1.19.11-.88.48-1.64,1.05-2.31.03-.04.06-.08.1-.12-.06-.02-.09-.03-.13-.04-.77-.17-1.44-.52-2.02-1.05-.37-.34-.66-.72-.79-1.21-.13-.5.03-.89.45-1.1.09-.05.19-.08.29-.12-.03-.05-.05-.09-.08-.12-.31-.47-.25-.91.18-1.28.27-.23.59-.37.94-.45.91-.21,1.79-.11,2.65.24.05.02.1.04.17.07,0-.05,0-.08-.01-.11-.06-.73.02-1.43.3-2.11.19-.47.45-.9.86-1.22.54-.42,1.04-.35,1.45.19.02.02.03.05.04.08.08-.09.13-.16.19-.23.29-.32.65-.39,1.05-.21.26.12.47.3.65.52.55.7.79,1.51.82,2.38,0,.23,0,.46,0,.69.03-.01.07-.03.11-.05.78-.32,1.58-.45,2.41-.31.49.08.95.24,1.31.6.32.33.36.71.13,1.11-.04.07-.08.13-.13.2.59.26.61.28.78.74ZM56.08,656.04c-.11-.15-.2-.28-.3-.41-.17-.23-.42-.29-.63-.14-.21.15-.23.41-.07.64.1.13.19.27.3.41-.18.06-.35.11-.51.17-.16.05-.27.16-.3.33-.07.33.23.59.57.49.17-.05.34-.11.51-.16,0,.03.01.03.01.04,0,.16,0,.32,0,.48,0,.26.18.46.42.46.25,0,.43-.19.43-.47,0-.17,0-.34,0-.52.04.01.08.02.11.03.14.05.29.1.43.14.33.09.61-.17.55-.5-.03-.16-.14-.27-.3-.32-.17-.06-.34-.11-.52-.17.11-.15.21-.29.31-.43.16-.22.12-.48-.08-.63-.2-.14-.45-.09-.61.13-.1.14-.2.27-.31.43ZM55.35,658.41c0-.23-.11-.39-.28-.46-.17-.06-.37-.01-.48.14-.18.23-.34.47-.51.7-.15.22-.12.48.08.62.2.15.45.1.61-.11.17-.22.33-.45.49-.68.05-.08.08-.17.1-.21ZM57.22,657.93c-.17,0-.29.08-.37.22-.08.15-.07.3.03.44.17.24.35.49.53.73.15.2.4.23.59.09.19-.14.23-.39.1-.59-.17-.24-.34-.48-.52-.71-.09-.12-.2-.18-.35-.18ZM57.94,656.6s.03,0,.05,0c.33-.11.67-.2,1-.33.2-.08.27-.33.19-.52-.08-.2-.29-.32-.5-.26-.31.09-.61.19-.91.29-.19.07-.3.28-.26.47.04.2.21.34.42.35ZM54.64,656.17c0-.17-.1-.33-.26-.39-.3-.11-.6-.21-.91-.29-.22-.06-.44.07-.51.28-.07.21.03.44.25.52.3.11.6.21.91.29.26.07.53-.15.52-.42ZM55.65,654.37c0,.15,0,.3,0,.46,0,.23.19.41.42.42.23,0,.43-.18.43-.42,0-.3,0-.6,0-.9,0-.24-.19-.42-.43-.42-.23,0-.42.18-.43.42,0,.15,0,.29,0,.44Z"/>
  </g>
  <g id="P017_espaco_acolher_ceara">
    <path class="cls-7" d="M222.89,399.73c-.03.18-.1.31-.03.49l.1-.39c.07.11-.08.34.07.38.13-.09.05-.46-.13-.48Z"/>
    <path class="cls-7" d="M220.36,399.55l.33-.15-.33.26c.24.04.4-.13.39-.36-.14.03-.29.08-.39.18-.03.02-.08.1,0,.07Z"/>
    <path class="cls-7" d="M223.22,404.43c-.13-.07-.02-.26-.11-.36-.14.2-.02.41.18.49.01-.15.09-.35-.06-.46v.33Z"/>
    <path class="cls-7" d="M220.39,401.26c0,.1.03.03.06,0,.04-.07.07-.19.14-.24l-.06.39c.18-.12.22-.38.05-.52l-.18.38Z"/>
    <path class="cls-7" d="M223.51,401.51c.05,0,.1.01.14.04.05.03.16.08.18.13l-.36-.1c.05.22.34.25.49.11-.1-.07-.2-.17-.32-.21-.03,0-.15-.04-.14.02Z"/>
    <path class="cls-7" d="M221.53,400.65c.15-.08.07-.34.25-.36l-.1.33c.1-.01.19-.4.16-.43-.22.06-.39.21-.31.46Z"/>
    <path class="cls-7" d="M223.51,400.9l.07-.34c0,.1,0,.21,0,.31,0,.03.01.12.06.12.09-.16.09-.48-.13-.49,0,.12-.06.23-.05.36,0,.02.02.1.05.05Z"/>
    <path class="cls-7" d="M221.4,399.41s-.17.23-.18.28c0,.03-.03.18.03.18,0-.1.03-.18.08-.26.02-.04,0-.08.08-.06l-.07.36c.18-.12.22-.35.05-.49Z"/>
    <path class="cls-7" d="M222,400c.18,0,.19-.25.36-.23l-.26.28c.16.04.28-.23.36-.34-.23-.04-.4.07-.46.29Z"/>
    <path class="cls-7" d="M223.28,402.52c-.04-.14-.11-.32-.23-.41-.04-.03-.1-.04-.03.03.08.09.15.18.16.31-.14-.05-.14-.28-.29-.3,0,.21.18.37.39.36Z"/>
    <path class="cls-7" d="M219.28,400.54c-.13-.05-.24.06-.36,0l.36-.11c-.17-.07-.34.03-.49.08.15.15.29.19.48.09.04-.02.08-.03,0-.06Z"/>
    <path class="cls-7" d="M222.57,404.3c.01.11.03.21.02.32-.13-.08-.02-.32-.16-.39-.07.21-.02.39.18.49.07-.15.07-.31,0-.46-.08-.07-.04-.01-.04.04Z"/>
    <path class="cls-7" d="M221.46,400.06l.31-.16c-.05.14-.28.14-.3.29.21-.01.39-.17.36-.39-.11.08-.4.1-.38.26Z"/>
    <path class="cls-7" d="M218.82,400.23c-.11-.04-.23-.02-.35-.03-.05,0-.1-.03-.05-.07h.33c-.1-.15-.32-.01-.46-.03.11.18.36.33.52.13Z"/>
    <path class="cls-7" d="M221.58,400.92l.1.39c-.11-.07-.15-.24-.16-.36-.06,0-.03.17-.03.21.02.07.13.23.19.29.09-.21.13-.4-.1-.52Z"/>
    <path class="cls-7" d="M222.63,400.32c.02.16-.22.2-.2.36.22-.07.29-.24.26-.46-.03-.03-.42.26-.34.36l.28-.26Z"/>
    <path class="cls-7" d="M218.59,400.93l.33-.18c-.17-.02-.3.08-.43.18.12.16.44.12.49-.08-.15-.02-.25.15-.39.08Z"/>
    <path class="cls-7" d="M221.04,399.05c-.05.06-.2.33-.15.39l.2-.33-.07.39c.21-.12.19-.3.1-.49-.08-.02-.05.01-.07.04Z"/>
    <path class="cls-7" d="M222.82,403.9c-.18.1-.18.37-.02.49.11-.13.17-.29.15-.46l-.16.36.03-.39Z"/>
    <path class="cls-7" d="M221.97,399.31s-.16.3-.23.3c0,.07.09.02.12,0,.1-.08.14-.26.21-.36-.21-.03-.41.1-.39.33.13-.05.16-.25.29-.26Z"/>
    <path class="cls-7" d="M220.49,400.06c.07.14.27.09.36.21l-.38-.08c-.02.12.42.18.44.16,0-.23-.22-.33-.43-.29Z"/>
    <path class="cls-7" d="M220.26,400.23c-.06.1.2.28.16.33-.08-.07-.21-.11-.23-.23-.05,0-.04.05-.03.08.02.04.29.32.32.28.03-.19-.02-.4-.23-.46Z"/>
    <path class="cls-7" d="M219.54,400.32l.03-.36c.14.08,0,.28.07.43.18-.13.12-.41-.05-.52-.03,0-.18.42-.05.46Z"/>
    <path class="cls-7" d="M221.84,400.78l.36.25-.3-.05c0,.09.34.15.36.13,0-.24-.2-.36-.43-.33Z"/>
    <path class="cls-7" d="M219.12,400.24l-.2-.31c.07-.06.25.29.33.29,0-.22-.17-.37-.39-.36-.02.02.16.45.26.38Z"/>
    <path class="cls-7" d="M219.61,399.18s.12.43.23.34l-.16-.28c.07-.07.22.29.33.26-.02-.2-.19-.34-.39-.33Z"/>
    <path class="cls-7" d="M222.33,400.92s.29.35.36.28l-.26-.25c.18-.03.23.21.39.2-.09-.21-.26-.33-.49-.23Z"/>
    <path class="cls-7" d="M219.44,400.65c-.06-.06-.37.35-.33.39.19,0,.44-.1.41-.33l-.31.26.23-.33Z"/>
    <path class="cls-7" d="M223.45,402.16c.06-.17.03-.41-.16-.46l.13.36-.2-.26c-.06,0-.03.07-.02.1.02.05.19.32.25.26Z"/>
    <path class="cls-7" d="M223,403.11c-.07.09-.16.2-.18.31,0,.03-.02.09.03.08l.16-.29-.1.39c.21-.04.22-.37.08-.49Z"/>
    <path class="cls-7" d="M222.27,404c-.21.06-.31.25-.23.46.02.02.39-.28.31-.36l-.28.26c-.02-.16.22-.2.2-.36Z"/>
    <path class="cls-7" d="M220.2,399.47c.21-.1.25-.28.2-.49-.07.07-.25.2-.29.29-.01.03-.03.12.03.11l.23-.3c.02.18-.2.22-.16.39Z"/>
    <path class="cls-7" d="M223.41,401.18c.03-.24-.03-.38-.26-.46-.02.03.03.44.13.46,0-.1-.04-.19-.06-.28-.01-.05-.07-.09.01-.08l.18.36Z"/>
    <path class="cls-7" d="M220.72,400.59s.12.41.23.34l-.16-.28c.06-.06.22.26.29.26.02-.2-.16-.36-.36-.33Z"/>
    <path class="cls-7" d="M222.63,401.97c-.08.14.13.3-.03.39l-.1-.36c0,.16,0,.33.11.46.15-.14.2-.36.02-.49Z"/>
    <path class="cls-7" d="M221.05,399.7l-.43.07.36.02c-.1.11-.32.04-.39.18.21.08.41-.04.46-.26Z"/>
    <path class="cls-7" d="M221.87,400.59c.17.02.17-.2.33-.23l-.2.28c.1.08.31-.3.3-.31-.18-.03-.41.05-.43.26Z"/>
    <path class="cls-7" d="M223.78,402.01l.16.25c-.17.03-.17-.22-.33-.23-.02.22.24.32.43.29.02-.01-.19-.39-.26-.31Z"/>
    <path class="cls-7" d="M222.23,402.06c-.2.05-.27.28-.2.46.05.03.31-.23.25-.29l-.21.2c-.01-.15.19-.2.16-.36Z"/>
    <path class="cls-7" d="M223.4,402.92l.02-.07c-.11-.02-.21-.14-.31-.16-.03,0-.09-.02-.08.03l.29.16-.39-.1c.04.21.32.19.47.13Z"/>
    <path class="cls-7" d="M219.15,399.78l-.16-.31.29.3c.02-.2-.16-.36-.36-.33-.03.03.12.41.23.34Z"/>
    <path class="cls-7" d="M223.46,403.38s-.38.24-.3.33l.28-.23-.23.33c.09.07.42-.32.25-.43Z"/>
    <path class="cls-7" d="M223.38,403.9l.33.2-.39-.1c.1.18.34.23.49.08-.11-.08-.21-.19-.35-.21-.03,0-.09-.02-.08.03Z"/>
    <path class="cls-7" d="M218.07,400.88s.17.46.26.38l-.16-.31c.07,0,.23.33.29.26-.01-.21-.19-.32-.39-.33Z"/>
    <path class="cls-7" d="M222.79,400.88l.08-.36c.12.11-.02.27.05.39.18-.13.11-.38-.05-.49-.11.12-.08.31-.08.46Z"/>
    <path class="cls-7" d="M219.48,399.6s.25.27.29.29c.03.01.12.03.11-.03l-.13-.05-.17-.18.39.16c-.1-.23-.27-.2-.49-.2Z"/>
    <path class="cls-7" d="M223.51,402.42c-.02.23.14.37.36.36l-.18-.36.11.29c-.07.07-.2-.3-.29-.29Z"/>
    <path class="cls-7" d="M223.73,403.08c.07.07.19.09.25.16l-.39-.1c.03.19.4.23.49.07-.12-.02-.19-.14-.31-.16-.04,0-.07,0-.03.03Z"/>
    <path class="cls-7" d="M223.41,400.19l-.23.33c.21-.01.29-.24.26-.43-.03-.04-.28.18-.31.23-.02.03-.05.1.02.1,0-.06.24-.25.26-.23Z"/>
    <path class="cls-7" d="M222.33,403.31l.33-.23s-.28.33-.12.26l.21-.29c-.2-.03-.43.03-.43.26Z"/>
    <path class="cls-7" d="M225.79,401.67c-.49-2.99-3.38-5.06-6.37-4.58-1.6.26-2.87,1.07-3.78,2.41-.79,1.16-1.08,2.44-.91,3.84.13,1,.5,1.92,1,2.79,1.11,1.91,2.64,3.46,4.37,4.82.14.11.22.11.36-.01.51-.44,1.04-.86,1.53-1.32,1.19-1.12,2.24-2.37,3.01-3.83.52-.98.85-2.02.87-3.3-.02-.16-.04-.49-.09-.81ZM217.15,405.03c.1-.94,1.37-1.37,2.16-1.49h.04s.03.05.03.08c.05.31-.02.83-.03,1.15-.01.27.06.5-.08.74-.27.46-.71.69-1.11.72-.37-.22-.7-.49-.98-.81-.02-.12-.03-.24-.02-.38ZM218.87,406.56c-.15-.05-.29-.11-.43-.18.4-.2.52-.43.81-.72.03-.03.03-.07.09-.06l.13.57c-.03.1-.52.2-.58.29-.01.02-.01.06-.02.1ZM220.26,406.82c-.44,0-.85-.09-1.25-.21.02-.01.03-.03.04-.03.03-.02.08,0,.1,0,.06-.03.14-.29.32-.34.18-.05.36.33.3.49h.13c.03-.11-.06-.23-.07-.32,0-.12.27-.3.31-.44l.08.13c.05-.25.25-.21.26.03l.03-.1c.05-.06.26.13.3.18.13.2.05.38-.03.55-.18.02-.35.05-.53.05ZM221.15,406.56c.09,0,.15.04.21.1-.06.02-.13.04-.19.06l-.02-.16ZM221.5,406.61c-.18-.15-.38-.33-.32-.38l.1-.03c-.14,0-.24-.05-.34-.13-.09-.07-.28-.24-.28-.36.03-.03.78.03.75.23l.03-.13c.25.03.54.31.71.55-.21.11-.43.19-.65.26ZM222.25,406.31c-.1-.13-.28-.3-.08-.39.16-.07.36.13.45.14.04,0,.07-.05.12-.05-.15.11-.32.2-.49.3ZM222.82,405.94c-.08-.02-.16-.03-.2-.05-.38-.13-.35-.13-.76-.19-.2-.03-.36-.11-.54-.15-.29-.07-.45,0-.71-.21-.21-.17-.29-.4-.28-.67,0-.1.16-.67.21-.74.04-.06.41-.37.49-.43.1-.07.2-.12.33-.1.14.02.42.09.55.14.16.06.31.17.43.29-.07-.34.42-.04.61-.03-.02-.05-.15-.1-.2-.11-.17-.06-.36-.08-.52-.15l-.04-.26c-.06,0-.02.09-.06.15-.02.03-.05.04-.08.05-.11,0-.46-.27-.63-.29-.13-.02-.28.01-.42-.04,0,.08-.23.3-.18.15.06-.2.22-.51.34-.68.06-.09.42-.52.51-.42l.03.3c.08-.33.14-.48.46-.61.19-.08.58-.23.72-.05l-.03-.19.52-.23-.49.13s.09-.21,0-.23c-.07.26-.35.41-.61.4l-.03-.1c-.12.13-.27.15-.41.21-.07.03-.45.25-.48.25-.09-.02-.02-.16-.02-.21,0-.14,0-.29,0-.43,0-.26-.12-.43.13-.64l-.14.03-.07-.06-.08-.56c-.02.67.13,1.31-.08,1.97-.04.12-.26.63-.39.62-.13-.12-.07-.31-.08-.47,0-.05-.05-.1-.06-.14,0-.08.1-.16.09-.24l-.11.06c-.33-.56-.78-1.27-.41-1.92-.12-.02-.02-.13-.1-.15l-.13.69-.29-.08c.29.26.31.61.43.94.06.17.2.35.24.51.05.19.14.79.14.97,0,.05-.04.28-.13.25v-.51c0-.07-.11-.43-.15-.51-.13-.29-.41-.54-.7-.66.11-.12.31-.15.3-.36-.16.02-.21.28-.38.29-.06,0-.38-.09-.49-.1-.17-.02-.64-.05-.79-.03-.07,0-.49.17-.58.21-.62.28-1.03.87-1.02,1.56l.95-.2c.11-.62.16-1.41.94-1.47,1.26-.11.98,1.1.99,1.95-.03.1-.51.16-.63.19-.61.16-1.64.4-2.2.93-.29-.57-.47-1.2-.47-1.88,0-2.32,1.89-4.2,4.21-4.19,1.66,0,3.08.99,3.76,2.39-.08,0-.16.03-.24.06,0,.06.07.03.11.03.05,0,.11-.02.17-.03,0,.02.02.03.02.05-.1.06-.25.02-.3.15.15.03.25-.02.33-.1.04.09.06.19.09.28-.09-.04-.2-.08-.24-.08-.03,0-.09-.02-.08.03.09.03.24.04.3.13l-.36-.03c.04.17.29.16.42.07.12.4.21.81.21,1.25,0,1.36-.66,2.55-1.66,3.31Z"/>
  </g>
  <g id="P018_abasc">
    <path class="cls-1" d="M630.97,482.22l.49,1.88c-.06.08-.16.14-.23.21-1.25,1.21-2.24,2.72-3.53,3.89-1.43,1.3-3.27,1.42-4.94.47-.53-.3-.71-.52-.9-1.11-.22-.67-.28-1.42-.33-2.12.23.06.4.3.49.51.24.53.05.99.55,1.41.99.85,2.64.6,3.7.02,1.44-.79,1.92-1.96,2.84-3.2.25-.34.52-.67.79-1,0-.03-.03-.05-.05-.07-.05-.05-.39-.33-.43-.34-.18-.05-.46.38-.54.51-.47.74-.85,1.56-1.4,2.25l-4.46,1.77-.03-.03c.57-1.3,1.13-2.65,2.13-3.68.98-.43,1.95-.87,2.93-1.3.69-.3,1.05-.64,1.72-.05.18.16.35.34.54.5.06-.06.61-.57.65-.53Z"/>
    <path class="cls-1" d="M631.55,484.45c.08.46.2.92.28,1.38.01.07.07.33.05.37l-2.84,2.79c-.77.68-1.71,1.2-2.73,1.38-1.3.24-3.45-.1-4.04-1.47-.02-.04-.05-.09-.03-.13.45.31.98.49,1.51.61,1.43.32,2.46.25,3.67-.6.87-.6,1.41-1.37,2.09-2.16.53-.62,1.09-1.25,1.66-1.83.09-.09.22-.24.32-.32.02-.01.02-.03.05-.03Z"/>
    <path class="cls-1" d="M623.24,490.47c.34.11.7.2,1.06.25,1.64.23,3.28-.25,4.57-1.27.31-.25.64-.52.94-.78.76-.65,1.45-1.38,2.15-2.09.07.53.13,1.07.16,1.6,0,.02-.01.04-.03.06-.05.08-.29.28-.38.36-1.56,1.44-3.31,2.79-5.53,2.9-1.03.05-2.28-.15-2.93-1.03Z"/>
    <path class="cls-1" d="M631.83,490.86c.06-.08.14-.16.19-.24.8-1.23.43-3.74.17-5.13-.23-1.24-.56-2.47-.93-3.67-.03-.05-.35.09-.43.08l-.44-1.37.92-.45c.24-.09.49-.07.58.2.28,1.31.63,2.61.84,3.94.26,1.66.6,4.81-.44,6.23-.12.16-.29.34-.48.42Z"/>
    <path class="cls-1" d="M625.44,491.82s.04-.02.06-.02c.14,0,.27.02.41.02,1.58,0,3.17-.67,4.43-1.59.64-.47,1.17-1.03,1.77-1.53,0,.62-.08,1.2-.39,1.74-.69,1.18-1.9,1.4-3.16,1.53-1.04.11-2.1,0-3.12-.16Z"/>
    <path class="cls-1" d="M634.3,488.22c-.28-.28-.6-.52-.9-.77v-.83s-.06-.82-.06-.82l.61.44.52.49c.01.5-.06,1-.17,1.49Z"/>
    <path class="cls-1" d="M634.4,486.1c-.37-.27-.73-.55-1.12-.79l-.21-1.35s.68.38.76.44c.11.07.5.37.55.46.03.06.07.32.07.41.02.28,0,.57-.05.84Z"/>
    <path class="cls-1" d="M634.38,484.37s-.02.05-.03.04c-.41-.38-.9-.67-1.38-.96l-.31-1.32.27.2c.42.4,1.44,1.11,1.44,1.74,0,.08.01.21,0,.28Z"/>
    <path class="cls-1" d="M632.56,490.51c.27-.34.43-.78.55-1.19.13-.45.2-.91.25-1.38.33.18.63.42.84.73-.36.66-.88,1.26-1.47,1.72-.02.02-.16.13-.18.12Z"/>
    <rect class="cls-1" x="625.35" y="491.78" width=".05" height=".02"/>
  </g>
  <g id="P019_banheiro_familia">
    <g>
      <path class="cls-1" d="M411.95,437.66c2.62-.09,4.83-1.2,6.26-3.4.4-.61-.24-1.89-.38-2.75,1.48.76,2.05,2.26,1.58,4.51-.52,2.48-2.23,4.27-4.26,4.43-1.87.15-3.72-1.21-4.51-3.33-.94-2.5-.49-4.48,1.27-5.79-.13.97-.65,2.16-.29,2.93.41.86,1.62,1.35,2.65,2.14-.93.29-1.74.54-2.55.8.08.16.15.31.23.47Z"/>
      <path class="cls-1" d="M412.33,433.28c.28-.01.56-.04.84-.04,1.08.03,2.16.08,3.25.12.33.01.66.02,1,.04-.06.34-.02.75-.2,1-.76,1-1.71,1.59-2.98.84-.73-.44-1.43-.94-2.15-1.41.08-.18.16-.36.25-.54Z"/>
      <circle class="cls-1" cx="414.86" cy="430.65" r="2.19"/>
    </g>
  </g>
  <g id="P020_espaco_servir">
    <path class="cls-1" d="M207.5,697.77c-2.67-.44-5.29,1.16-6.15,3.77-.87,2.61.28,5.45,2.74,6.72.5.26,1.25.33,1.5.73.26.42.06,1.13.08,1.71.03.61.42,1,.97,1.01.57,0,.97-.39,1-1.04.02-.41.04-.83,0-1.24-.04-.46.14-.63.58-.75,2.39-.69,4.02-2.88,4.04-5.32.01-2.78-1.98-5.11-4.75-5.56ZM211.08,703.28c0,2.46-1.98,4.43-4.44,4.43-2.41,0-4.4-1.98-4.41-4.4,0-2.43,2.01-4.45,4.44-4.44,2.4,0,4.41,2.02,4.41,4.41Z"/>
    <path class="cls-1" d="M204.02,704.11c.29.19.61.32.92.49.52.27,1.03.54,1.56.81.06.03.17.03.24,0,.47-.24.93-.5,1.4-.74.33-.17.69-.31,1.01-.5.82-.51.6-1.19.19-1.77-.09-.13-.22-.12-.26.04-.17.65-.67.94-1.23,1.19-.42.19-.82.43-1.22.64-.44-.23-.88-.48-1.35-.69-.52-.24-.96-.53-1.11-1.13-.04-.14-.16-.21-.26-.07-.43.6-.62,1.24.12,1.74Z"/>
    <path class="cls-1" d="M205.82,702.56c.19.22.43.4.64.6.1.1.17.12.27.01.23-.22.46-.44.7-.65.3-.26.54-.55.62-.95.06-.29-.05-.55-.3-.71-.41-.26-.87-.15-1.16.31-.03-.05-.05-.08-.07-.11-.21-.32-.61-.42-1-.24-.35.16-.53.5-.35.86.16.32.4.6.64.87Z"/>
  </g>
  <g id="P021_banheiro_feminino_ginasio">
    <path class="cls-4" d="M691.65,492.45h-1.75v4.66h1.75c.32,0,.58-.26.58-.58v-3.5c0-.32-.26-.58-.58-.58ZM691,492.81c.28,0,.52.23.52.51,0,.28-.23.51-.51.51-.28,0-.51-.23-.51-.51,0-.28.23-.51.51-.51ZM691.86,495.78c-.1,0-.19,0-.29,0h-.05v.05c0,.21,0,.42,0,.64,0,.17-.1.27-.27.27-.16,0-.32,0-.48,0-.17,0-.27-.11-.27-.27,0-.21,0-.42,0-.63v-.05h-.05c-.09,0-.19,0-.28,0-.14,0-.21-.09-.18-.23.11-.43.22-.87.33-1.3.05-.19.19-.29.38-.3.2,0,.41,0,.61,0,.19,0,.33.11.38.29.11.44.22.87.33,1.31.03.12-.04.22-.17.22Z"/>
  </g>
  <path id="P022_banheiro_masculino_ginasio" class="cls-4" d="M781.33,492.64h-1.42c-.32,0-.58.26-.58.58v3.5c0,.32.26.58.58.58h1.42v-4.66ZM780.24,493c.28,0,.51.23.51.51,0,.28-.23.51-.51.51-.28,0-.51-.23-.51-.52,0-.28.23-.51.51-.51ZM780.75,495.67v.05c0,.32,0,.63,0,.95,0,.13-.08.23-.2.26-.02,0-.05,0-.07,0-.16,0-.32,0-.48,0-.16,0-.27-.1-.27-.27,0-.31,0-.63,0-.94v-.05s-.05,0-.07-.01c-.07-.02-.12-.08-.12-.15,0-.33,0-.67,0-1,0-.19.17-.35.35-.35.23,0,.47,0,.7,0,.19,0,.35.17.35.35,0,.33,0,.67,0,1,0,.09-.07.15-.19.16Z"/>
  <g id="P023_banheiro_feminino">
    <path class="cls-4" d="M443.52,402.19h-4.52c-.41,0-.74.33-.74.74v14.52c0,.41.33.74.74.74h4.52c1.51,0,2.74-1.23,2.74-2.74v-10.53c0-1.51-1.23-2.74-2.74-2.74ZM442.04,403.45c.98,0,1.77.78,1.77,1.75,0,.97-.78,1.75-1.75,1.76-.97,0-1.76-.78-1.77-1.75,0-.96.78-1.76,1.75-1.77ZM444.01,413.64h-.03c-.05,0-.1,0-.17,0v.17c0,.48,0,.96,0,1.44,0,.93-.75,1.68-1.68,1.68h-.16c-.93,0-1.68-.75-1.68-1.68,0-.48,0-.96,0-1.43v-.18h-.16c-.98,0-1.58-.77-1.34-1.72s.5-1.98.76-2.97c.24-.92,1.07-1.57,2.02-1.57.32,0,.65,0,.97,0,.94,0,1.77.65,2,1.56.26,1.01.52,2.02.77,3.03.23.92-.35,1.67-1.3,1.67Z"/>
  </g>
  <path id="P024_banheiro_masculino" class="cls-4" d="M467.26,402.2h-2.51c-1.76,0-3.18,1.42-3.18,3.18v9.64c0,1.76,1.42,3.18,3.18,3.18h2.51c.65,0,1.18-.53,1.18-1.18v-13.63c0-.65-.53-1.18-1.18-1.18ZM464.68,403.46c.97,0,1.75.79,1.74,1.76,0,.97-.79,1.75-1.76,1.75-.98,0-1.76-.79-1.75-1.77,0-.97.79-1.75,1.77-1.74ZM466.43,412.61v.18c0,1.08,0,2.17,0,3.25,0,.45-.26.79-.68.88-.08.02-.16.02-.24.02-.16,0-.33,0-.49,0-1.16,0-2.1-.94-2.1-2.1,0-.69,0-1.37,0-2.06v-.17c-.09-.01-.16-.02-.24-.04-.24-.06-.42-.28-.42-.53,0-.75,0-1.5,0-2.25,0-1.33,1.09-2.41,2.42-2.41h0c1.33,0,2.42,1.08,2.42,2.41,0,.75,0,1.5,0,2.25,0,.32-.23.52-.66.56Z"/>
  <g id="P025_banheiro_masculino_feminino">
    <path class="cls-4" d="M804.29,495.61h-4.79c-.44,0-.8.36-.8.8v4.79c0,.44.36.8.8.8h4.79c.44,0,.8-.36.8-.8v-4.79c0-.44-.36-.8-.8-.8ZM803.41,496.11c.39,0,.71.31.71.7,0,.39-.31.7-.7.7-.39,0-.7-.31-.7-.7,0-.38.31-.7.7-.7ZM799.95,496.11c.39,0,.7.32.7.7,0,.39-.31.7-.7.7-.39,0-.7-.32-.7-.71,0-.39.32-.7.7-.69ZM800.91,499.53c0,.13-.09.21-.26.22,0,.03,0,.05,0,.07,0,.43,0,.86,0,1.3,0,.18-.1.32-.27.35-.03,0-.06,0-.1,0-.22,0-.44,0-.66,0-.23,0-.37-.14-.37-.37,0-.43,0-.86,0-1.29v-.07s-.07,0-.09-.02c-.1-.03-.17-.11-.17-.21,0-.46,0-.91,0-1.37,0-.26.23-.48.48-.48.32,0,.64,0,.96,0,.26,0,.48.23.48.48,0,.46,0,.91,0,1.37ZM801.74,501.61c0,.07-.06.13-.13.13-.07,0-.13-.04-.15-.11,0-.03,0-.06,0-.09,0-1.83,0-3.67,0-5.5,0-.09.02-.16.1-.2h.08c.08.04.11.1.11.18,0,1.84,0,3.69,0,5.53,0,.02,0,.03,0,.05ZM804.57,500.17c-.13,0-.26,0-.39,0-.02,0-.04,0-.07,0v.07c0,.29,0,.58,0,.87,0,.23-.14.37-.37.37-.22,0-.44,0-.66,0-.23,0-.37-.14-.37-.38,0-.29,0-.58,0-.86v-.07s-.04,0-.06,0c-.13,0-.26,0-.39,0-.19,0-.29-.13-.24-.31.15-.59.3-1.19.46-1.78.07-.26.26-.4.52-.4.28,0,.56,0,.84,0,.26,0,.45.15.52.4.15.6.31,1.2.46,1.79.04.17-.06.3-.23.3Z"/>
  </g>
  <g id="P026_elevador_ginasio">
    <g>
      <rect class="cls-2" x="656.41" y="490.61" width="9.57" height="11.56" rx="1.17" ry="1.17"/>
      <path class="cls-4" d="M656.7,496.04c0-1.44,0-2.88,0-4.32,0-.59.22-.81.8-.81,1.4,0,2.8,0,4.2,0,.53,0,.77.23.77.75,0,2.92,0,5.83,0,8.75,0,.52-.24.75-.76.75-1.41,0-2.83,0-4.24,0-.52,0-.75-.24-.75-.76,0-1.45,0-2.91,0-4.36ZM661.86,496.33c0-1.29,0-2.57,0-3.86,0-.34-.1-.44-.44-.44-1.23,0-2.46,0-3.69,0-.32,0-.43.11-.43.43,0,2.57,0,5.14,0,7.72,0,.32.11.42.43.42,1.22,0,2.45,0,3.67,0,.37,0,.46-.09.46-.46,0-1.27,0-2.54,0-3.82Z"/>
      <path class="cls-4" d="M664.4,498.39c.15-.04.27-.1.38-.1.11,0,.25.03.3.11.05.07.04.25-.02.32-.29.32-.6.63-.92.93-.12.11-.26.1-.38,0-.31-.3-.62-.6-.9-.91-.06-.07-.07-.24-.03-.32.05-.07.19-.11.3-.12.12,0,.24.06.4.1,0-.19,0-.36,0-.54,0-.37,0-.73,0-1.1,0-.24.09-.33.33-.34.04,0,.08,0,.13,0,.34,0,.41.07.41.41,0,.51,0,1.02,0,1.56Z"/>
      <path class="cls-4" d="M664.38,494.2c0,.47,0,.91,0,1.35,0,.4-.36.62-.71.4-.08-.05-.13-.2-.14-.3-.01-.47,0-.94,0-1.45-.13.03-.24.06-.35.09-.15.04-.28.03-.37-.12-.08-.14-.02-.25.09-.36.28-.28.55-.56.84-.83.17-.16.29-.16.45,0,.28.28.56.56.84.83.1.1.16.22.08.36-.08.14-.21.15-.35.12-.11-.03-.23-.06-.37-.1Z"/>
      <path class="cls-4" d="M660.29,497.13c0,.3,0,.57,0,.84,0,.62,0,1.24,0,1.86,0,.19-.05.22-.34.23-.18,0-.29-.03-.29-.23,0-.69,0-1.38,0-2.06,0-.05,0-.1,0-.15,0-.02-.04-.05-.07-.05-.03,0-.07.03-.07.05-.01.05-.01.11-.01.17,0,.68,0,1.35,0,2.03,0,.23-.03.25-.3.25-.28,0-.33-.03-.33-.25,0-.88,0-1.75,0-2.66-.11,0-.2,0-.3,0-.15,0-.22-.07-.2-.21.06-.55.11-1.09.17-1.64.04-.31.25-.47.59-.48.3,0,.59,0,.89,0,.38,0,.58.18.62.52.05.5.1,1.01.16,1.51.03.26,0,.3-.3.3-.06,0-.11,0-.19,0Z"/>
      <path class="cls-4" d="M658.88,493.9c0-.39.3-.7.69-.7.4,0,.72.31.71.7,0,.38-.32.7-.7.7-.38,0-.7-.31-.7-.7Z"/>
    </g>
  </g>
  <g id="P027_elevador_templo">
    <g>
      <rect class="cls-2" x="308.52" y="376.66" width="13.06" height="15.78" rx="1.17" ry="1.17"/>
      <path class="cls-4" d="M308.92,384.08c0-1.97,0-3.93,0-5.9,0-.8.3-1.1,1.09-1.1,1.91,0,3.82,0,5.73,0,.72,0,1.05.32,1.05,1.03,0,3.98,0,7.96,0,11.94,0,.71-.33,1.03-1.04,1.03-1.93,0-3.86,0-5.78,0-.71,0-1.03-.32-1.03-1.04,0-1.99,0-3.97,0-5.96ZM315.95,384.46c0-1.75,0-3.51,0-5.26,0-.46-.14-.59-.6-.59-1.68,0-3.36,0-5.03,0-.44,0-.59.15-.59.58,0,3.51,0,7.02,0,10.53,0,.43.15.58.59.58,1.67,0,3.34,0,5.01,0,.5,0,.63-.12.63-.63,0-1.74,0-3.47,0-5.21Z"/>
      <path class="cls-4" d="M319.43,387.28c.21-.06.37-.13.52-.13.14,0,.35.05.41.15.07.1.05.34-.03.43-.4.44-.82.86-1.25,1.27-.16.15-.36.14-.52-.01-.42-.41-.84-.82-1.23-1.25-.08-.09-.1-.33-.04-.43.06-.1.27-.16.41-.16.16,0,.33.08.54.13,0-.26,0-.5,0-.73,0-.5,0-1,0-1.5,0-.33.12-.44.45-.46.06,0,.12,0,.17,0,.46,0,.56.1.56.55,0,.7,0,1.4,0,2.13Z"/>
      <path class="cls-4" d="M319.4,381.56c0,.64,0,1.24,0,1.84,0,.55-.5.84-.97.55-.11-.07-.18-.27-.19-.41-.02-.64,0-1.28,0-1.98-.18.04-.33.08-.48.12-.2.05-.39.04-.5-.17-.11-.19-.03-.35.12-.49.38-.38.76-.76,1.14-1.14.23-.22.39-.22.62,0,.38.38.76.76,1.14,1.14.14.14.22.29.11.49-.11.19-.28.21-.47.17-.16-.04-.31-.08-.5-.13Z"/>
      <path class="cls-4" d="M313.81,385.56c0,.4,0,.77,0,1.14,0,.84,0,1.69,0,2.53,0,.26-.07.3-.46.31-.25,0-.4-.04-.4-.31,0-.94,0-1.88,0-2.82,0-.07,0-.14-.01-.21,0-.03-.06-.07-.09-.07-.03,0-.09.04-.1.07-.02.07-.02.15-.02.23,0,.92,0,1.84,0,2.77,0,.31-.04.34-.41.34-.38,0-.45-.05-.45-.35,0-1.2,0-2.4,0-3.63-.15,0-.28,0-.41,0-.21,0-.3-.1-.28-.28.08-.75.15-1.49.23-2.24.05-.43.33-.64.81-.65.4,0,.81,0,1.21,0,.52,0,.8.24.84.7.07.69.14,1.37.21,2.06.04.35,0,.4-.41.41-.08,0-.15,0-.27,0Z"/>
      <path class="cls-4" d="M311.89,381.15c0-.53.41-.95.94-.96.54,0,.98.42.98.96,0,.52-.44.95-.96.95-.52,0-.95-.42-.96-.95Z"/>
    </g>
  </g>
  <!-- Estacionamento de motos — âncora L00_N0007_estacionamento_motos @ 940.95,788.06 -->
  <g id="P028_estacionamento_moto" data-name="Estacionamento Moto" data-cat="estacionamento">
    <title>Estacionamento Moto</title>
    <circle cx="940.95" cy="788.06" r="11" fill="#ce3434" fill-opacity="0.01"/>
    <path class="cls-3" d="M940.95,797.2c-.17-.1-.34-.19-.5-.3-1.49-1.11-2.82-2.38-3.89-3.91-.66-.95-1.21-1.97-1.43-3.12-.48-2.48.26-4.54,2.16-6.14,1.16-.98,2.54-1.4,4.05-1.34,2.71.12,5.04,2.11,5.64,4.79.33,1.49.1,2.9-.53,4.26-.58,1.24-1.39,2.31-2.32,3.29-.78.82-1.62,1.56-2.53,2.22-.13.1-.28.17-.43.25h-.23ZM945.93,788.63c.02-2.69-2.15-4.92-4.82-4.95-2.68-.03-4.89,2.17-4.91,4.9-.03,2.73,2.15,4.97,4.84,4.99,2.68.02,4.87-2.19,4.89-4.94Z"/>
    <path class="cls-3" d="M941.05,792.87c-2.32.01-4.23-1.92-4.25-4.29-.02-2.39,1.88-4.35,4.23-4.36,2.37,0,4.27,1.91,4.28,4.31.01,2.39-1.89,4.32-4.26,4.34ZM939.24,790.41h3.65v.6h1.21c0-.06,0-.12,0-.17,0-.47,0-.95,0-1.42,0-.17-.04-.32-.16-.44-.12-.13-.23-.27-.37-.43h.53v-.61h-.75c-.01-.05-.03-.09-.04-.13-.12-.49-.24-.97-.36-1.46-.05-.18-.14-.27-.32-.27-1.04,0-2.09,0-3.13,0-.17,0-.27.08-.32.25-.04.15-.07.3-.11.45-.09.38-.19.76-.29,1.15h-.75v.62h.52c-.15.17-.27.32-.4.46-.09.1-.13.21-.13.35,0,.5,0,1,0,1.5,0,.05,0,.09,0,.14h1.21v-.6Z"/>
    <path class="cls-3" d="M942.71,787.93h-3.3c.1-.39.19-.77.29-1.15,0-.04.09-.07.14-.07.59,0,1.18,0,1.77,0,.23,0,.47,0,.7,0,.04,0,.11.04.12.07.1.38.19.76.29,1.15Z"/>
    <path class="cls-3" d="M938.63,789.17c0-.34.27-.62.61-.62.34,0,.6.28.6.62,0,.34-.27.62-.61.62-.34,0-.6-.28-.6-.62Z"/>
    <path class="cls-3" d="M943.49,789.17c0,.34-.27.62-.61.61-.33,0-.6-.28-.6-.62,0-.34.27-.62.61-.61.34,0,.6.28.6.62Z"/>
  </g>
  <!-- Entrada de Nárnia (B02) — âncora L00_N0014; ícone oculto (lampião já no mapa base) -->
  <g id="B02_entrada_narnia" data-name="Entrada de Narnia" data-cat="acesso" data-icon-hidden="true">
    <title>Entrada de Narnia</title>
    <!-- hit invisível (destino continua na busca/rota) -->
    <circle cx="436.01" cy="738" r="10" fill="#212e3f" fill-opacity="0" pointer-events="all"/>
    <!-- ícone oculto ao usuário final -->
    <path class="cls-1" visibility="hidden" d="M434.6,748.2h2.82v-9.4h-2.82v9.4zm1.41-21.1c-2.35,0-4.25,1.7-4.25,3.8,0,1.35.7,2.55,1.85,3.2l-.55,1.7h5.8l-.55-1.7c1.15-.65,1.85-1.85,1.85-3.2,0-2.1-1.9-3.8-4.15-3.8zm0,1.35c1.5,0,2.7,1.05,2.7,2.45s-1.2,2.45-2.7,2.45-2.7-1.05-2.7-2.45,1.2-2.45,2.7-2.45zm-1.05,8.05h2.1v2.9h-2.1v-2.9z"/>
  </g>
  <!-- Entrada 02 Pedestre Av. Batel — âncora L00_N0082 @ 20.51,457.4; ícone oculto -->
  <g id="P029_entrada_pedestre_02_batel" data-name="Entrada 02. Pedestre Av. Batel" data-cat="acesso" data-icon-hidden="true">
    <title>Entrada 02. Pedestre Av. Batel</title>
    <circle cx="20.51" cy="457.4" r="12" fill="#212e3f" fill-opacity="0" pointer-events="all"/>
    <!-- ícone pedestre oculto -->
    <g visibility="hidden">
      <circle class="cls-1" cx="20.51" cy="451.2" r="2.1"/>
      <path class="cls-1" d="M20.51,454.1c-1.6,0-2.9,1.05-2.9,2.55v4.1h1.35v-3.85c0-.35.25-.55.55-.55h2c.3,0,.55.2.55.55v3.85h1.35v-4.1c0-1.5-1.3-2.55-2.9-2.55Z"/>
      <path class="cls-1" d="M18.35,463.9h1.4l.35-2.55h.82l.35,2.55h1.4l-.55-4.05h-3.22l-.55,4.05Z"/>
    </g>
  </g>
  <!-- Entrada estacionamento Av. Batel — âncora L00_N0093 @ 21.5,347; ícone oculto -->
  <g id="P030_entrada_estacionamento_av_batel" data-name="Entrada estacionamento Av. Batel" data-cat="acesso" data-icon-hidden="true">
    <title>Entrada estacionamento Av. Batel</title>
    <circle cx="21.5" cy="347" r="12" fill="#212e3f" fill-opacity="0" pointer-events="all"/>
    <!-- ícone oculto ao usuário final -->
    <g visibility="hidden">
      <path class="cls-1" d="M21.5,338.2c-1.9,0-3.45,1.55-3.45,3.45s1.55,3.45,3.45,3.45,3.45-1.55,3.45-3.45-1.55-3.45-3.45-3.45zm0,1.2c1.24,0,2.25,1.01,2.25,2.25s-1.01,2.25-2.25,2.25-2.25-1.01-2.25-2.25,1.01-2.25,2.25-2.25z"/>
      <path class="cls-1" d="M17.2,346.4h8.6v1.35h-1.1v6.2h-6.4v-6.2h-1.1v-1.35zm2.45,1.35v4.85h3.7v-4.85h-3.7z"/>
    </g>
  </g>
  <!-- Entrada estacionamento Bento Viana — âncora L00_N0002 @ 558.43,827.31; ícone oculto -->
  <g id="P031_entrada_estacionamento_bento_viana" data-name="Entrada estacionamento Bento Viana" data-cat="acesso" data-icon-hidden="true">
    <title>Entrada estacionamento Bento Viana</title>
    <circle cx="558.43" cy="827.31" r="12" fill="#212e3f" fill-opacity="0" pointer-events="all"/>
    <!-- ícone oculto ao usuário final -->
    <g visibility="hidden">
      <path class="cls-1" d="M558.43,818.5c-1.9,0-3.45,1.55-3.45,3.45s1.55,3.45,3.45,3.45,3.45-1.55,3.45-3.45-1.55-3.45-3.45-3.45zm0,1.2c1.24,0,2.25,1.01,2.25,2.25s-1.01,2.25-2.25,2.25-2.25-1.01-2.25-2.25,1.01-2.25,2.25-2.25z"/>
      <path class="cls-1" d="M554.13,826.7h8.6v1.35h-1.1v6.2h-6.4v-6.2h-1.1v-1.35zm2.45,1.35v4.85h3.7v-4.85h-3.7z"/>
    </g>
  </g>
</svg>