<?xml version="1.0" encoding="UTF-8"?>
<svg id="_07_txt_info" data-name="07_txt_info" xmlns="http://www.w3.org/2000/svg" viewBox="0 0 1011.56 862.63">
  <defs>
    <style>
      .cls-1 {
        letter-spacing: -.02em;
      }

      .cls-2 {
        letter-spacing: -.02em;
      }

      .cls-3 {
        letter-spacing: 0em;
      }

      .cls-4 {
        font-size: 4.74px;
      }

      .cls-4, .cls-5, .cls-6, .cls-7, .cls-8, .cls-9, .cls-10, .cls-11, .cls-12, .cls-13, .cls-14, .cls-15, .cls-16, .cls-17, .cls-18, .cls-19, .cls-20, .cls-21, .cls-22, .cls-23, .cls-24, .cls-25, .cls-26, .cls-27, .cls-28 {
        fill: #848484;
      }

      .cls-4, .cls-5, .cls-6, .cls-7, .cls-8, .cls-10, .cls-11, .cls-12, .cls-13, .cls-14, .cls-15, .cls-16, .cls-17, .cls-18, .cls-19, .cls-20, .cls-21, .cls-22, .cls-23, .cls-24, .cls-25, .cls-26, .cls-27, .cls-28 {
        font-family: Gotham-Book, Gotham;
      }

      .cls-5 {
        font-size: 6.95px;
      }

      .cls-29 {
        letter-spacing: 0em;
      }

      .cls-6 {
        font-size: 3.73px;
      }

      .cls-30 {
        letter-spacing: -.02em;
      }

      .cls-31 {
        letter-spacing: 0em;
      }

      .cls-32 {
        letter-spacing: 0em;
      }

      .cls-33 {
        letter-spacing: -.06em;
      }

      .cls-7 {
        font-size: 2.93px;
      }

      .cls-34 {
        letter-spacing: -.02em;
      }

      .cls-35 {
        letter-spacing: -.08em;
      }

      .cls-36 {
        letter-spacing: 0em;
      }

      .cls-37 {
        letter-spacing: 0em;
      }

      .cls-38 {
        letter-spacing: -.02em;
      }

      .cls-39 {
        letter-spacing: -.02em;
      }

      .cls-40 {
        letter-spacing: 0em;
      }

      .cls-8 {
        font-size: 2.73px;
      }

      .cls-10 {
        font-size: 2.43px;
      }

      .cls-41 {
        letter-spacing: -.02em;
      }

      .cls-42 {
        letter-spacing: 0em;
      }

      .cls-11 {
        font-size: 4.03px;
      }

      .cls-43 {
        letter-spacing: -.02em;
      }

      .cls-44 {
        letter-spacing: 0em;
      }

      .cls-13 {
        font-size: 2.62px;
      }

      .cls-14 {
        font-size: 3.65px;
      }

      .cls-45 {
        letter-spacing: -.02em;
      }

      .cls-46 {
        letter-spacing: 0em;
      }

      .cls-47 {
        letter-spacing: 0em;
      }

      .cls-48 {
        letter-spacing: -.12em;
      }

      .cls-15 {
        font-size: 2.29px;
      }

      .cls-16 {
        font-size: 3.25px;
      }

      .cls-17 {
        font-size: 3.21px;
      }

      .cls-49 {
        letter-spacing: 0em;
      }

      .cls-50 {
        letter-spacing: 0em;
      }

      .cls-51, .cls-19 {
        font-size: 3.78px;
      }

      .cls-52 {
        letter-spacing: -.06em;
      }

      .cls-53 {
        letter-spacing: -.03em;
      }

      .cls-54 {
        letter-spacing: -.03em;
      }

      .cls-55 {
        letter-spacing: -.02em;
      }

      .cls-56 {
        letter-spacing: -.02em;
      }

      .cls-57 {
        letter-spacing: -.03em;
      }

      .cls-58 {
        letter-spacing: 0em;
      }

      .cls-59 {
        letter-spacing: -.01em;
      }

      .cls-60 {
        letter-spacing: 0em;
      }

      .cls-61 {
        letter-spacing: -.12em;
      }

      .cls-62 {
        letter-spacing: -.01em;
      }

      .cls-63 {
        letter-spacing: -.02em;
      }

      .cls-64 {
        letter-spacing: -.02em;
      }

      .cls-65 {
        letter-spacing: -.02em;
      }

      .cls-66 {
        font-size: 3px;
      }

      .cls-67 {
        letter-spacing: -.01em;
      }

      .cls-68 {
        letter-spacing: -.01em;
      }

      .cls-69 {
        letter-spacing: 0em;
      }

      .cls-70 {
        letter-spacing: 0em;
      }

      .cls-71 {
        letter-spacing: 0em;
      }

      .cls-72 {
        letter-spacing: -.03em;
      }

      .cls-73 {
        letter-spacing: 0em;
      }

      .cls-74 {
        letter-spacing: 0em;
      }

      .cls-75 {
        letter-spacing: -.1em;
      }

      .cls-76 {
        letter-spacing: -.01em;
      }

      .cls-77 {
        letter-spacing: -.01em;
      }

      .cls-78 {
        letter-spacing: -.03em;
      }

      .cls-79 {
        letter-spacing: 0em;
      }

      .cls-80 {
        letter-spacing: -.01em;
      }

      .cls-18 {
        font-size: 2.2px;
      }

      .cls-81 {
        letter-spacing: -.12em;
      }

      .cls-82 {
        letter-spacing: -.02em;
      }

      .cls-83 {
        letter-spacing: -.02em;
      }

      .cls-84 {
        letter-spacing: -.12em;
      }

      .cls-85 {
        letter-spacing: 0em;
      }

      .cls-86 {
        letter-spacing: -.02em;
      }

      .cls-87 {
        letter-spacing: -.02em;
      }

      .cls-88 {
        letter-spacing: -.08em;
      }

      .cls-20 {
        font-size: 2.51px;
      }

      .cls-89 {
        letter-spacing: 0em;
      }

      .cls-90 {
        letter-spacing: -.03em;
      }

      .cls-21 {
        font-size: 1.83px;
      }

      .cls-22 {
        font-size: 1.49px;
      }

      .cls-23 {
        font-size: 2.98px;
      }

      .cls-91 {
        letter-spacing: -.01em;
      }

      .cls-92 {
        letter-spacing: -.02em;
      }

      .cls-93 {
        letter-spacing: -.02em;
      }

      .cls-94 {
        letter-spacing: -.01em;
      }

      .cls-95 {
        letter-spacing: -.02em;
      }

      .cls-96 {
        letter-spacing: -.01em;
      }

      .cls-24 {
        font-size: 1.58px;
      }

      .cls-97 {
        letter-spacing: -.01em;
      }

      .cls-25 {
        font-size: 3.28px;
      }

      .cls-98 {
        letter-spacing: -.01em;
      }

      .cls-99 {
        letter-spacing: -.06em;
      }

      .cls-100 {
        letter-spacing: -.02em;
      }

      .cls-101 {
        letter-spacing: -.02em;
      }

      .cls-102 {
        letter-spacing: -.02em;
      }

      .cls-103 {
        letter-spacing: -.02em;
      }

      .cls-104 {
        letter-spacing: -.03em;
      }

      .cls-105 {
        letter-spacing: 0em;
      }

      .cls-26 {
        font-size: 1.86px;
      }

      .cls-106 {
        letter-spacing: 0em;
      }

      .cls-107 {
        letter-spacing: -.02em;
      }

      .cls-108 {
        letter-spacing: -.03em;
      }

      .cls-109 {
        letter-spacing: 0em;
      }

      .cls-110 {
        letter-spacing: -.09em;
      }

      .cls-111 {
        letter-spacing: 0em;
      }

      .cls-27 {
        font-size: 1.56px;
      }

      .cls-112 {
        letter-spacing: -.02em;
      }

      .cls-113 {
        letter-spacing: -.02em;
      }

      .cls-114 {
        letter-spacing: 0em;
      }

      .cls-115 {
        letter-spacing: -.01em;
      }

      .cls-116 {
        letter-spacing: 0em;
      }

      .cls-117 {
        letter-spacing: -.01em;
      }

      .cls-118 {
        letter-spacing: -.09em;
      }

      .cls-119 {
        letter-spacing: -.01em;
      }

      .cls-120 {
        letter-spacing: -.03em;
      }

      .cls-121 {
        letter-spacing: -.02em;
      }

      .cls-28 {
        font-size: 5.78px;
      }

      .cls-122 {
        letter-spacing: 0em;
      }
    </style>
  </defs>
  <text class="cls-13" transform="translate(192.01 722.53)"><tspan x="0" y="0">Espa</tspan><tspan class="cls-65" x="6.32" y="0">ç</tspan><tspan x="7.78" y="0">o Servir B</tspan><tspan class="cls-116" x="20.53" y="0">0</tspan><tspan x="22.39" y="0">1</tspan></text>
  <text class="cls-4" transform="translate(343.16 673.39)"><tspan class="cls-81" x="0" y="0">T</tspan><tspan x="2.46" y="0">emplo</tspan></text>
  <text class="cls-24" transform="translate(309.61 395.15) scale(.95 1)"><tspan x="0" y="0">El</tspan><tspan class="cls-108" x="1.48" y="0">ev</tspan><tspan x="3.26" y="0">ado</tspan><tspan class="cls-2" x="6.25" y="0">r</tspan><tspan x="6.85" y="0">es</tspan></text>
  <text class="cls-21" transform="translate(311.19 417.9)"><tspan x="0" y="0">Espa</tspan><tspan class="cls-96" x="4.4" y="0">ç</tspan><tspan x="5.42" y="0">o</tspan><tspan class="cls-114" x="0" y="2.19">C</tspan><tspan x="1.34" y="2.19">on</tspan><tspan class="cls-90" x="3.64" y="2.19">e</tspan><tspan class="cls-96" x="4.67" y="2.19">x</tspan><tspan x="5.69" y="2.19">ão</tspan></text>
  <text class="cls-14" transform="translate(255.62 412.07) scale(.9 1)"><tspan x="0" y="0">Liv</tspan><tspan class="cls-1" x="5.35" y="0">r</tspan><tspan x="6.74" y="0">aria </tspan><tspan class="cls-69" x="14.5" y="0">E</tspan><tspan class="cls-102" x="16.91" y="0">v</tspan><tspan class="cls-89" x="18.97" y="0">angélica</tspan></text>
  <text class="cls-19" transform="translate(327.38 468.12)"><tspan x="0" y="0">Hall do </tspan><tspan class="cls-80" x="14.26" y="0">t</tspan><tspan class="cls-50" x="15.73" y="0">emplo</tspan></text>
  <g>
    <path class="cls-9" d="M208.97,441.46h0c0-.58.42-1.05.99-1.05.35,0,.57.13.76.32l-.15.17c-.17-.16-.35-.28-.61-.28-.43,0-.76.36-.76.83h0c0,.47.32.84.76.84.27,0,.44-.11.63-.29l.15.15c-.2.21-.43.35-.78.35-.56,0-.98-.46-.98-1.04Z"/>
    <path class="cls-9" d="M210.97,441.73h0c0-.43.32-.78.75-.78s.75.35.75.77h0c0,.43-.32.78-.76.78s-.75-.35-.75-.77ZM212.26,441.73h0c0-.33-.23-.59-.54-.59s-.53.26-.53.58h0c0,.33.23.59.53.59s.53-.26.53-.57Z"/>
    <path class="cls-9" d="M212.87,440.98h.21v.39c.11-.25.32-.42.59-.42v.24h-.02c-.32,0-.57.23-.57.68v.59h-.21v-1.49Z"/>
    <path class="cls-9" d="M214,440.98h.21v.39c.11-.25.32-.42.59-.42v.24h-.02c-.32,0-.57.23-.57.68v.59h-.21v-1.49Z"/>
    <path class="cls-9" d="M214.98,441.73h0c0-.44.29-.78.69-.78.43,0,.67.35.67.79,0,.03,0,.05,0,.07h-1.15c.03.32.25.5.51.5.2,0,.33-.08.46-.21l.13.12c-.15.17-.32.28-.59.28-.39,0-.72-.31-.72-.78ZM216.13,441.64c-.02-.27-.17-.51-.46-.51-.25,0-.44.22-.47.51h.93Z"/>
    <path class="cls-9" d="M216.64,441.73h0c0-.49.34-.78.69-.78.27,0,.44.15.55.32v-.9h.21v2.11h-.21v-.3c-.12.18-.28.33-.55.33-.35,0-.69-.28-.69-.77ZM217.9,441.72h0c0-.35-.25-.58-.52-.58s-.51.21-.51.57h0c0,.36.23.58.51.58s.52-.23.52-.58Z"/>
    <path class="cls-9" d="M218.49,441.73h0c0-.43.32-.78.75-.78s.75.35.75.77h0c0,.43-.32.78-.76.78s-.75-.35-.75-.77ZM219.78,441.73h0c0-.33-.23-.59-.54-.59s-.53.26-.53.58h0c0,.33.23.59.53.59s.53-.26.53-.57Z"/>
    <path class="cls-9" d="M220.39,440.98h.21v.39c.11-.25.32-.42.59-.42v.24h-.02c-.32,0-.57.23-.57.68v.59h-.21v-1.49Z"/>
    <path class="cls-9" d="M222.31,441.46h0c0-.58.42-1.05.99-1.05.35,0,.57.13.76.32l-.15.17c-.17-.16-.35-.28-.61-.28-.43,0-.76.36-.76.83h0c0,.47.32.84.76.84.27,0,.44-.11.63-.29l.15.15c-.2.21-.43.35-.78.35-.56,0-.98-.46-.98-1.04Z"/>
    <path class="cls-9" d="M224.32,441.73h0c0-.43.32-.78.75-.78s.75.35.75.77h0c0,.43-.32.78-.76.78s-.75-.35-.75-.77ZM225.6,441.73h0c0-.33-.23-.59-.54-.59s-.53.26-.53.58h0c0,.33.23.59.53.59s.53-.26.53-.57Z"/>
    <path class="cls-9" d="M226.21,440.98h.21v.26c.1-.16.25-.29.49-.29.35,0,.55.24.55.6v.93h-.22v-.87c0-.28-.14-.45-.4-.45s-.43.19-.43.47v.85h-.21v-1.49Z"/>
    <path class="cls-9" d="M227.85,441.73h0c0-.44.29-.78.69-.78.43,0,.67.35.67.79,0,.03,0,.05,0,.07h-1.15c.03.32.25.5.51.5.2,0,.33-.08.46-.21l.13.12c-.15.17-.32.28-.59.28-.39,0-.72-.31-.72-.78ZM228.99,441.64c-.02-.27-.17-.51-.46-.51-.25,0-.44.22-.47.51h.93Z"/>
    <path class="cls-9" d="M230.07,441.56l.43-.58h.24l-.55.73.57.76h-.25l-.45-.61-.45.61h-.24l.56-.76-.54-.73h.25l.42.58Z"/>
    <path class="cls-9" d="M230.96,442.03h0c0-.32.25-.49.62-.49.19,0,.31.03.44.06v-.05c0-.27-.16-.41-.43-.41-.17,0-.3.04-.44.11l-.06-.18c.16-.08.31-.12.52-.12s.36.05.47.16c.1.1.15.25.15.44v.91h-.21v-.22c-.1.13-.27.26-.52.26s-.54-.16-.54-.46ZM232.02,441.92v-.14c-.11-.03-.25-.06-.42-.06-.27,0-.42.12-.42.31h0c0,.19.17.3.36.3.27,0,.48-.17.48-.4ZM231.64,440.69c-.06-.03-.13-.05-.17-.05-.08,0-.1.04-.15.14l-.13-.04c.06-.22.13-.3.27-.3.06,0,.13.03.2.06.06.03.13.06.17.06.08,0,.1-.04.15-.14l.13.04c-.06.22-.13.3-.27.3-.06,0-.13-.03-.2-.06Z"/>
    <path class="cls-9" d="M232.6,441.73h0c0-.43.32-.78.75-.78s.75.35.75.77h0c0,.43-.32.78-.76.78s-.75-.35-.75-.77ZM233.88,441.73h0c0-.33-.23-.59-.54-.59s-.53.26-.53.58h0c0,.33.23.59.53.59s.53-.26.53-.57Z"/>
    <path class="cls-9" d="M235.33,440.98h.21v.3c.12-.18.28-.33.55-.33.35,0,.69.28.69.77h0c0,.49-.34.78-.69.78-.27,0-.44-.15-.55-.32v.75h-.21v-1.95ZM236.57,441.73h0c0-.36-.23-.58-.51-.58s-.52.24-.52.57h0c0,.35.25.58.52.58s.51-.21.51-.57Z"/>
    <path class="cls-9" d="M237.08,442.03h0c0-.32.25-.49.62-.49.19,0,.31.03.44.06v-.05c0-.27-.16-.41-.43-.41-.17,0-.3.04-.44.11l-.06-.18c.16-.08.31-.12.52-.12s.36.05.47.16c.1.1.15.25.15.44v.91h-.21v-.22c-.1.13-.27.26-.52.26s-.54-.16-.54-.46ZM238.14,441.92v-.14c-.11-.03-.25-.06-.42-.06-.27,0-.42.12-.42.31h0c0,.19.17.3.36.3.27,0,.48-.17.48-.4Z"/>
    <path class="cls-9" d="M238.81,440.98h.21v.39c.11-.25.32-.42.59-.42v.24h-.02c-.32,0-.57.23-.57.68v.59h-.21v-1.49Z"/>
    <path class="cls-9" d="M239.76,442.03h0c0-.32.25-.49.62-.49.19,0,.31.03.44.06v-.05c0-.27-.16-.41-.43-.41-.17,0-.3.04-.44.11l-.06-.18c.16-.08.31-.12.52-.12s.36.05.47.16c.1.1.15.25.15.44v.91h-.21v-.22c-.1.13-.27.26-.52.26s-.54-.16-.54-.46ZM240.82,441.92v-.14c-.11-.03-.25-.06-.42-.06-.27,0-.42.12-.42.31h0c0,.19.17.3.36.3.27,0,.48-.17.48-.4Z"/>
    <path class="cls-9" d="M241.47,440.98h.26v.3h-.26v-.3ZM241.47,442.16h.26v.3h-.26v-.3Z"/>
    <path class="cls-9" d="M209.56,444.13h-.66v-.21h1.54v.21h-.66v1.81h-.22v-1.81Z"/>
    <path class="cls-9" d="M210.38,445.19h0c0-.44.29-.78.69-.78.43,0,.67.35.67.79,0,.03,0,.05,0,.07h-1.15c.03.32.25.5.51.5.2,0,.33-.08.46-.21l.13.12c-.15.17-.32.28-.59.28-.39,0-.72-.31-.72-.78ZM211.52,445.11c-.02-.27-.17-.51-.46-.51-.25,0-.44.22-.47.51h.93Z"/>
    <path class="cls-9" d="M212.12,444.44h.21v.25c.1-.15.22-.28.47-.28s.39.13.46.3c.11-.16.25-.3.51-.3.34,0,.54.23.54.6v.92h-.21v-.87c0-.29-.14-.45-.37-.45-.22,0-.4.17-.4.46v.86h-.21v-.88c0-.28-.14-.44-.37-.44s-.4.2-.4.47v.85h-.21v-1.49Z"/>
    <path class="cls-9" d="M214.77,444.44h.21v.3c.12-.18.28-.33.55-.33.35,0,.69.28.69.77h0c0,.49-.34.78-.69.78-.27,0-.44-.15-.55-.32v.75h-.21v-1.95ZM216.01,445.19h0c0-.36-.23-.58-.51-.58s-.52.24-.52.57h0c0,.35.25.58.52.58s.51-.21.51-.57Z"/>
    <path class="cls-9" d="M216.65,443.83h.21v2.11h-.21v-2.11Z"/>
    <path class="cls-9" d="M217.27,445.2h0c0-.43.32-.78.75-.78s.75.35.75.77h0c0,.43-.32.78-.76.78s-.75-.35-.75-.77ZM218.56,445.2h0c0-.33-.23-.59-.54-.59s-.53.26-.53.58h0c0,.33.23.59.53.59s.53-.26.53-.57Z"/>
    <path class="cls-9" d="M221,443.63h.2l-1.3,2.67h-.2l1.3-2.67Z"/>
    <path class="cls-9" d="M222.81,444.13h-.66v-.21h1.54v.21h-.66v1.81h-.22v-1.81Z"/>
    <path class="cls-9" d="M224.09,443.92h.68c.61,0,1.04.44,1.04,1h0c0,.57-.42,1.01-1.04,1.01h-.68v-2.02ZM224.31,444.13v1.6h.46c.49,0,.81-.34.81-.79h0c0-.45-.32-.8-.81-.8h-.46Z"/>
    <path class="cls-9" d="M226.28,443.92h.73c.44,0,.73.24.73.64h0c0,.44-.35.67-.77.67h-.47v.71h-.22v-2.02ZM226.98,445.01c.32,0,.54-.18.54-.44h0c0-.29-.21-.44-.52-.44h-.49v.89h.48Z"/>
    <path class="cls-9" d="M229.95,443.63h.2l-1.3,2.67h-.2l1.3-2.67Z"/>
    <path class="cls-9" d="M231.24,443.92h.83c.22,0,.4.07.51.18.08.09.13.2.13.32h0c0,.27-.16.4-.31.47.23.07.42.21.42.49h0c0,.35-.28.56-.71.56h-.87v-2.02ZM232.49,444.45c0-.2-.15-.33-.43-.33h-.59v.7h.58c.27,0,.45-.12.45-.36h0ZM232.6,445.36c0-.22-.18-.35-.52-.35h-.62v.71h.66c.3,0,.48-.13.48-.36h0Z"/>
    <path class="cls-9" d="M233.12,445.5h0c0-.32.25-.49.62-.49.19,0,.31.03.44.06v-.05c0-.27-.16-.41-.43-.41-.17,0-.3.04-.44.11l-.06-.18c.16-.08.31-.12.52-.12s.36.05.47.16c.1.1.15.25.15.44v.91h-.21v-.22c-.1.13-.27.26-.52.26s-.54-.16-.54-.46ZM234.18,445.39v-.14c-.11-.03-.25-.06-.42-.06-.27,0-.42.12-.42.31h0c0,.19.17.3.36.3.27,0,.48-.17.48-.4Z"/>
    <path class="cls-9" d="M234.85,444.44h.21v.26c.1-.16.25-.29.49-.29.35,0,.55.24.55.6v.93h-.22v-.87c0-.28-.14-.45-.4-.45s-.43.19-.43.47v.85h-.21v-1.49Z"/>
    <path class="cls-9" d="M236.57,443.83h.21v.87c.1-.16.25-.29.49-.29.35,0,.55.24.55.6v.93h-.22v-.87c0-.28-.14-.45-.4-.45s-.43.19-.43.47v.85h-.21v-2.11Z"/>
    <path class="cls-9" d="M238.2,445.19h0c0-.44.29-.78.69-.78.43,0,.67.35.67.79,0,.03,0,.05,0,.07h-1.15c.03.32.25.5.51.5.2,0,.33-.08.46-.21l.13.12c-.15.17-.32.28-.59.28-.39,0-.72-.31-.72-.78ZM239.35,445.11c-.02-.27-.17-.51-.46-.51-.25,0-.44.22-.47.51h.93Z"/>
    <path class="cls-9" d="M239.95,443.87h.25v.25h-.25v-.25ZM239.96,444.44h.21v1.49h-.21v-1.49Z"/>
    <path class="cls-9" d="M240.68,444.44h.21v.39c.11-.25.32-.42.59-.42v.24h-.02c-.32,0-.57.23-.57.68v.59h-.21v-1.49Z"/>
    <path class="cls-9" d="M241.66,445.2h0c0-.43.32-.78.75-.78s.75.35.75.77h0c0,.43-.32.78-.76.78s-.75-.35-.75-.77ZM242.95,445.2h0c0-.33-.23-.59-.54-.59s-.53.26-.53.58h0c0,.33.23.59.53.59s.53-.26.53-.57Z"/>
    <path class="cls-9" d="M243.44,445.74l.11-.16c.16.12.33.19.5.19s.3-.09.3-.24h0c0-.15-.17-.21-.36-.27-.22-.07-.48-.14-.48-.42h0c0-.26.21-.43.49-.43.18,0,.37.06.52.16l-.1.17c-.13-.09-.28-.14-.43-.14-.17,0-.28.09-.28.22h0c0,.15.18.2.37.26.22.07.46.16.46.43h0c0,.29-.23.45-.51.45-.21,0-.43-.08-.6-.22Z"/>
    <path class="cls-9" d="M246.78,443.63h.2l-1.3,2.67h-.2l1.3-2.67Z"/>
    <path class="cls-9" d="M248,444.93h0c0-.58.42-1.05.99-1.05.35,0,.57.13.76.32l-.15.17c-.17-.16-.35-.28-.61-.28-.43,0-.76.36-.76.83h0c0,.47.32.84.76.84.27,0,.44-.11.63-.29l.15.15c-.2.21-.43.35-.78.35-.56,0-.98-.46-.98-1.04Z"/>
    <path class="cls-9" d="M250.01,445.5h0c0-.32.25-.49.62-.49.19,0,.31.03.44.06v-.05c0-.27-.16-.41-.43-.41-.17,0-.3.04-.44.11l-.06-.18c.16-.08.31-.12.52-.12s.36.05.47.16c.1.1.15.25.15.44v.91h-.21v-.22c-.1.13-.27.26-.52.26s-.54-.16-.54-.46ZM251.08,445.39v-.14c-.11-.03-.25-.06-.42-.06-.27,0-.42.12-.42.31h0c0,.19.17.3.36.3.27,0,.48-.17.48-.4Z"/>
    <path class="cls-9" d="M251.74,444.44h.21v.3c.12-.18.28-.33.55-.33.35,0,.69.28.69.77h0c0,.49-.34.78-.69.78-.27,0-.44-.15-.55-.32v.75h-.21v-1.95ZM252.98,445.19h0c0-.36-.23-.58-.51-.58s-.52.24-.52.57h0c0,.35.25.58.52.58s.51-.21.51-.57Z"/>
    <path class="cls-9" d="M253.51,445.19h0c0-.44.29-.78.69-.78.43,0,.67.35.67.79,0,.03,0,.05,0,.07h-1.15c.03.32.25.5.51.5.2,0,.33-.08.46-.21l.13.12c-.15.17-.32.28-.59.28-.39,0-.72-.31-.72-.78ZM254.65,445.11c-.02-.27-.17-.51-.46-.51-.25,0-.44.22-.47.51h.93Z"/>
    <path class="cls-9" d="M255.27,443.83h.21v2.11h-.21v-2.11Z"/>
    <path class="cls-9" d="M255.88,445.5h0c0-.32.25-.49.62-.49.19,0,.31.03.44.06v-.05c0-.27-.16-.41-.43-.41-.17,0-.3.04-.44.11l-.06-.18c.16-.08.31-.12.52-.12s.36.05.47.16c.1.1.15.25.15.44v.91h-.21v-.22c-.1.13-.27.26-.52.26s-.54-.16-.54-.46ZM256.94,445.39v-.14c-.11-.03-.25-.06-.42-.06-.27,0-.42.12-.42.31h0c0,.19.17.3.36.3.27,0,.48-.17.48-.4Z"/>
    <path class="cls-9" d="M259.44,443.63h.2l-1.3,2.67h-.2l1.3-2.67Z"/>
    <path class="cls-9" d="M208.97,448.4h0c0-.58.42-1.05.99-1.05.35,0,.57.13.76.32l-.15.17c-.17-.16-.35-.28-.61-.28-.43,0-.76.36-.76.83h0c0,.47.32.84.76.84.27,0,.44-.11.63-.29l.15.15c-.2.21-.43.35-.78.35-.56,0-.98-.46-.98-1.04Z"/>
    <path class="cls-9" d="M210.97,448.66h0c0-.44.29-.78.69-.78.43,0,.67.35.67.79,0,.03,0,.05,0,.07h-1.15c.03.32.25.5.51.5.2,0,.33-.08.46-.21l.13.12c-.15.17-.32.28-.59.28-.39,0-.72-.31-.72-.78ZM212.12,448.58c-.02-.27-.17-.51-.46-.51-.25,0-.44.22-.47.51h.93Z"/>
    <path class="cls-9" d="M212.72,447.91h.21v.26c.1-.16.25-.29.49-.29.35,0,.55.24.55.6v.93h-.22v-.87c0-.28-.14-.45-.4-.45s-.43.19-.43.47v.85h-.21v-1.49Z"/>
    <path class="cls-9" d="M214.52,449.01v-.9h-.2v-.2h.2v-.45h.22v.45h.46v.2h-.46v.87c0,.18.1.25.24.25.08,0,.13-.01.21-.05v.19c-.08.04-.16.06-.26.06-.23,0-.41-.12-.41-.42Z"/>
    <path class="cls-9" d="M215.57,447.91h.21v.39c.11-.25.32-.42.59-.42v.24h-.02c-.32,0-.57.23-.57.68v.59h-.21v-1.49Z"/>
    <path class="cls-9" d="M216.55,448.67h0c0-.43.32-.78.75-.78s.75.35.75.77h0c0,.43-.32.78-.76.78s-.75-.35-.75-.77ZM217.84,448.67h0c0-.33-.23-.59-.54-.59s-.53.26-.53.58h0c0,.33.23.59.53.59s.53-.26.53-.57Z"/>
    <path class="cls-9" d="M219.2,448.66h0c0-.49.34-.78.69-.78.27,0,.44.15.55.32v-.9h.21v2.11h-.21v-.3c-.12.18-.28.33-.55.33-.35,0-.69-.28-.69-.77ZM220.45,448.66h0c0-.35-.25-.58-.52-.58s-.51.21-.51.57h0c0,.36.23.58.51.58s.52-.23.52-.58Z"/>
    <path class="cls-9" d="M221.05,448.66h0c0-.44.29-.78.69-.78.43,0,.67.35.67.79,0,.03,0,.05,0,.07h-1.15c.03.32.25.5.51.5.2,0,.33-.08.46-.21l.13.12c-.15.17-.32.28-.59.28-.39,0-.72-.31-.72-.78ZM222.2,448.58c-.02-.27-.17-.51-.46-.51-.25,0-.44.22-.47.51h.93Z"/>
    <path class="cls-9" d="M223.67,447.38h1.4v.21h-1.18v.72h1.06v.21h-1.06v.88h-.22v-2.02Z"/>
    <path class="cls-9" d="M225.34,448.67h0c0-.43.32-.78.75-.78s.75.35.75.77h0c0,.43-.32.78-.76.78s-.75-.35-.75-.77ZM226.62,448.67h0c0-.33-.23-.59-.54-.59s-.53.26-.53.58h0c0,.33.23.59.53.59s.53-.26.53-.57Z"/>
    <path class="cls-9" d="M227.23,447.91h.21v.39c.11-.25.32-.42.59-.42v.24h-.02c-.32,0-.57.23-.57.68v.59h-.21v-1.49Z"/>
    <path class="cls-9" d="M228.37,447.91h.21v.25c.1-.15.22-.28.47-.28s.39.13.46.3c.11-.16.25-.3.51-.3.34,0,.54.23.54.6v.92h-.21v-.87c0-.29-.14-.45-.37-.45-.22,0-.4.17-.4.46v.86h-.21v-.88c0-.28-.14-.44-.37-.44s-.4.2-.4.47v.85h-.21v-1.49Z"/>
    <path class="cls-9" d="M230.91,448.97h0c0-.32.25-.49.62-.49.19,0,.31.03.44.06v-.05c0-.27-.16-.41-.43-.41-.17,0-.3.04-.44.11l-.06-.18c.16-.08.31-.12.52-.12s.36.05.47.16c.1.1.15.25.15.44v.91h-.21v-.22c-.1.13-.27.26-.52.26s-.54-.16-.54-.46ZM231.97,448.86v-.14c-.11-.03-.25-.06-.42-.06-.27,0-.42.12-.42.31h0c0,.19.17.3.36.3.27,0,.48-.17.48-.4Z"/>
    <path class="cls-9" d="M232.93,449.75l.22-.33c-.35-.06-.61-.39-.61-.76h0c0-.43.32-.78.74-.78.27,0,.44.12.58.26l-.14.16c-.11-.12-.24-.22-.44-.22-.29,0-.52.25-.52.58h0c0,.33.23.59.53.59.19,0,.33-.1.44-.22l.14.13c-.14.16-.3.27-.55.29l-.18.42-.21-.1Z"/>
    <path class="cls-9" d="M234.12,448.97h0c0-.32.25-.49.62-.49.19,0,.31.03.44.06v-.05c0-.27-.16-.41-.43-.41-.17,0-.3.04-.44.11l-.06-.18c.16-.08.31-.12.52-.12s.36.05.47.16c.1.1.15.25.15.44v.91h-.21v-.22c-.1.13-.27.26-.52.26s-.54-.16-.54-.46ZM235.19,448.86v-.14c-.11-.03-.25-.06-.42-.06-.27,0-.42.12-.42.31h0c0,.19.17.3.36.3.27,0,.48-.17.48-.4ZM234.8,447.63c-.06-.03-.13-.05-.17-.05-.08,0-.1.04-.15.14l-.13-.04c.06-.22.13-.3.27-.3.06,0,.13.03.2.06.06.03.13.06.17.06.08,0,.1-.04.15-.14l.13.04c-.06.22-.13.3-.27.3-.06,0-.13-.03-.2-.06Z"/>
    <path class="cls-9" d="M235.76,448.67h0c0-.43.32-.78.75-.78s.75.35.75.77h0c0,.43-.32.78-.76.78s-.75-.35-.75-.77ZM237.04,448.67h0c0-.33-.23-.59-.54-.59s-.53.26-.53.58h0c0,.33.23.59.53.59s.53-.26.53-.57Z"/>
    <path class="cls-9" d="M239.49,447.1h.2l-1.3,2.67h-.2l1.3-2.67Z"/>
    <path class="cls-9" d="M240.79,447.38h.84c.24,0,.43.08.56.2.1.1.15.24.15.4h0c0,.34-.22.54-.53.59l.6.83h-.27l-.57-.78h-.56v.78h-.22v-2.02ZM241.61,448.41c.29,0,.5-.16.5-.42h0c0-.26-.18-.4-.5-.4h-.6v.82h.6Z"/>
    <path class="cls-9" d="M242.66,448.66h0c0-.44.29-.78.69-.78.43,0,.67.35.67.79,0,.03,0,.05,0,.07h-1.15c.03.32.25.5.51.5.2,0,.33-.08.46-.21l.13.12c-.15.17-.32.28-.59.28-.39,0-.72-.31-.72-.78ZM243.8,448.58c-.02-.27-.17-.51-.46-.51-.25,0-.44.22-.47.51h.93Z"/>
    <path class="cls-9" d="M244.31,448.67h0c0-.43.32-.78.74-.78.27,0,.44.12.58.26l-.14.16c-.11-.12-.24-.22-.44-.22-.29,0-.52.25-.52.58h0c0,.33.23.59.53.59.19,0,.33-.1.44-.22l.14.13c-.15.17-.32.29-.59.29-.42,0-.74-.35-.74-.77Z"/>
    <path class="cls-9" d="M245.87,448.66h0c0-.44.29-.78.69-.78.43,0,.67.35.67.79,0,.03,0,.05,0,.07h-1.15c.03.32.25.5.51.5.2,0,.33-.08.46-.21l.13.12c-.15.17-.32.28-.59.28-.39,0-.72-.31-.72-.78ZM247.01,448.58c-.02-.27-.17-.51-.46-.51-.25,0-.44.22-.47.51h.93Z"/>
    <path class="cls-9" d="M247.61,447.91h.21v.3c.12-.18.28-.33.55-.33.35,0,.69.28.69.77h0c0,.49-.34.78-.69.78-.27,0-.44-.15-.55-.32v.75h-.21v-1.95ZM248.85,448.66h0c0-.36-.23-.58-.51-.58s-.52.24-.52.57h0c0,.35.25.58.52.58s.51-.21.51-.57Z"/>
    <path class="cls-9" d="M249.77,449.75l.22-.33c-.35-.06-.61-.39-.61-.76h0c0-.43.32-.78.74-.78.27,0,.44.12.58.26l-.14.16c-.11-.12-.24-.22-.44-.22-.29,0-.52.25-.52.58h0c0,.33.23.59.53.59.19,0,.33-.1.44-.22l.14.13c-.14.16-.3.27-.55.29l-.18.42-.21-.1Z"/>
    <path class="cls-9" d="M250.95,448.97h0c0-.32.25-.49.62-.49.19,0,.31.03.44.06v-.05c0-.27-.16-.41-.43-.41-.17,0-.3.04-.44.11l-.06-.18c.16-.08.31-.12.52-.12s.36.05.47.16c.1.1.15.25.15.44v.91h-.21v-.22c-.1.13-.27.26-.52.26s-.54-.16-.54-.46ZM252.02,448.86v-.14c-.11-.03-.25-.06-.42-.06-.27,0-.42.12-.42.31h0c0,.19.17.3.36.3.27,0,.48-.17.48-.4ZM251.63,447.63c-.06-.03-.13-.05-.17-.05-.08,0-.1.04-.15.14l-.13-.04c.06-.22.13-.3.27-.3.06,0,.13.03.2.06.06.03.13.06.17.06.08,0,.1-.04.15-.14l.13.04c-.06.22-.13.3-.27.3-.06,0-.13-.03-.2-.06Z"/>
    <path class="cls-9" d="M252.59,448.67h0c0-.43.32-.78.75-.78s.75.35.75.77h0c0,.43-.32.78-.76.78s-.75-.35-.75-.77ZM253.88,448.67h0c0-.33-.23-.59-.54-.59s-.53.26-.53.58h0c0,.33.23.59.53.59s.53-.26.53-.57Z"/>
    <path class="cls-9" d="M256.32,447.1h.2l-1.3,2.67h-.2l1.3-2.67Z"/>
    <path class="cls-9" d="M257.62,447.38h.84c.24,0,.43.08.56.2.1.1.15.24.15.4h0c0,.34-.22.54-.53.59l.6.83h-.27l-.57-.78h-.56v.78h-.22v-2.02ZM258.44,448.41c.29,0,.5-.16.5-.42h0c0-.26-.18-.4-.5-.4h-.6v.82h.6Z"/>
    <path class="cls-9" d="M259.49,448.66h0c0-.44.29-.78.69-.78.43,0,.67.35.67.79,0,.03,0,.05,0,.07h-1.15c.03.32.25.5.51.5.2,0,.33-.08.46-.21l.13.12c-.15.17-.32.28-.59.28-.39,0-.72-.31-.72-.78ZM260.64,448.58c-.02-.27-.17-.51-.46-.51-.25,0-.44.22-.47.51h.93Z"/>
    <path class="cls-9" d="M261.11,449.21l.11-.16c.16.12.33.19.5.19s.3-.09.3-.24h0c0-.15-.17-.21-.36-.27-.22-.07-.48-.14-.48-.42h0c0-.26.21-.43.49-.43.18,0,.37.06.52.16l-.1.17c-.13-.09-.28-.14-.43-.14-.17,0-.28.09-.28.22h0c0,.15.18.2.37.26.22.07.46.16.46.43h0c0,.29-.23.45-.51.45-.21,0-.43-.08-.6-.22Z"/>
    <path class="cls-9" d="M262.67,449.01v-.9h-.2v-.2h.2v-.45h.22v.45h.46v.2h-.46v.87c0,.18.1.25.24.25.08,0,.13-.01.21-.05v.19c-.08.04-.16.06-.26.06-.23,0-.41-.12-.41-.42Z"/>
    <path class="cls-9" d="M263.62,448.97h0c0-.32.25-.49.62-.49.19,0,.31.03.44.06v-.05c0-.27-.16-.41-.43-.41-.17,0-.3.04-.44.11l-.06-.18c.16-.08.31-.12.52-.12s.36.05.47.16c.1.1.15.25.15.44v.91h-.21v-.22c-.1.13-.27.26-.52.26s-.54-.16-.54-.46ZM264.68,448.86v-.14c-.11-.03-.25-.06-.42-.06-.27,0-.42.12-.42.31h0c0,.19.17.3.36.3.27,0,.48-.17.48-.4Z"/>
    <path class="cls-9" d="M265.32,448.84v-.93h.21v.87c0,.28.14.45.4.45s.43-.19.43-.47v-.85h.21v1.49h-.21v-.26c-.1.16-.25.29-.49.29-.35,0-.55-.24-.55-.6Z"/>
    <path class="cls-9" d="M267.07,447.91h.21v.39c.11-.25.32-.42.59-.42v.24h-.02c-.32,0-.57.23-.57.68v.59h-.21v-1.49Z"/>
    <path class="cls-9" d="M268.02,448.97h0c0-.32.25-.49.62-.49.19,0,.31.03.44.06v-.05c0-.27-.16-.41-.43-.41-.17,0-.3.04-.44.11l-.06-.18c.16-.08.31-.12.52-.12s.36.05.47.16c.1.1.15.25.15.44v.91h-.21v-.22c-.1.13-.27.26-.52.26s-.54-.16-.54-.46ZM269.08,448.86v-.14c-.11-.03-.25-.06-.42-.06-.27,0-.42.12-.42.31h0c0,.19.17.3.36.3.27,0,.48-.17.48-.4Z"/>
    <path class="cls-9" d="M269.75,447.91h.21v.26c.1-.16.25-.29.49-.29.35,0,.55.24.55.6v.93h-.22v-.87c0-.28-.14-.45-.4-.45s-.43.19-.43.47v.85h-.21v-1.49Z"/>
    <path class="cls-9" d="M271.55,449.01v-.9h-.2v-.2h.2v-.45h.22v.45h.46v.2h-.46v.87c0,.18.1.25.24.25.08,0,.13-.01.21-.05v.19c-.08.04-.16.06-.26.06-.23,0-.41-.12-.41-.42Z"/>
    <path class="cls-9" d="M272.47,448.66h0c0-.44.29-.78.69-.78.43,0,.67.35.67.79,0,.03,0,.05,0,.07h-1.15c.03.32.25.5.51.5.2,0,.33-.08.46-.21l.13.12c-.15.17-.32.28-.59.28-.39,0-.72-.31-.72-.78ZM273.62,448.58c-.02-.27-.17-.51-.46-.51-.25,0-.44.22-.47.51h.93Z"/>
  </g>
  <text class="cls-19" transform="translate(534.39 417.43)"><tspan x="0" y="0">Capela</tspan></text>
  <text class="cls-19" transform="translate(456.09 422.34)"><tspan x="0" y="0">Banhei</tspan><tspan class="cls-56" x="12.8" y="0">r</tspan><tspan x="14.24" y="0">o</tspan><tspan x="0" y="4.53">Mas</tspan><tspan class="cls-79" x="7.35" y="4.53">c</tspan><tspan x="9.49" y="4.53">ulino</tspan></text>
  <text class="cls-19" transform="translate(433.67 422.4)"><tspan x="0" y="0">Banhei</tspan><tspan class="cls-56" x="12.8" y="0">r</tspan><tspan x="14.24" y="0">o</tspan><tspan class="cls-80" x="0" y="4.53">F</tspan><tspan class="cls-50" x="2.42" y="4.53">eminino</tspan></text>
  <text class="cls-19" transform="translate(398.4 409.24)"><tspan x="0" y="0">Be</tspan><tspan class="cls-56" x="4.96" y="0">r</tspan><tspan x="6.41" y="0">çário</tspan><tspan class="cls-77" x="0" y="4.53">S</tspan><tspan class="cls-118" x="2.38" y="4.53">T</tspan><tspan x="4.47" y="4.53">A</tspan><tspan class="cls-79" x="7.46" y="4.53">R</tspan><tspan x="10.17" y="4.53">T</tspan></text>
  <text class="cls-22" transform="translate(421.24 437.55)"><tspan x="0" y="0">Banhei</tspan><tspan class="cls-45" x="5.03" y="0">r</tspan><tspan x="5.6" y="0">o</tspan><tspan class="cls-121" x="0" y="1.78">F</tspan><tspan x=".94" y="1.78">amília</tspan><tspan x="0" y="3.56">Bebês</tspan></text>
  <text class="cls-26" transform="translate(573.57 451.51)"><tspan class="cls-73" x="0" y="0">R</tspan><tspan x="1.33" y="0">e</tspan><tspan class="cls-34" x="2.43" y="0">c</tspan><tspan x="3.47" y="0">epção</tspan></text>
  <text class="cls-19" transform="translate(488.76 489.11)"><tspan x="0" y="0">Sala de O</tspan><tspan class="cls-57" x="18.01" y="0">r</tspan><tspan class="cls-111" x="19.44" y="0">ação - Cleusa </tspan><tspan class="cls-75" x="45.78" y="0">P</tspan><tspan x="47.92" y="0">.</tspan></text>
  <g id="label_seven_pass" data-keep-label="true" data-label="SEVEN PASS">
    <path class="cls-9" d="M742.18,456.86h1.14c.33,0,.59.1.75.26.13.13.2.31.2.52h0c0,.45-.3.71-.72.78l.81,1.08h-.37l-.77-1.03h-.76v1.03h-.3v-2.65ZM743.3,458.21c.39,0,.68-.2.68-.54h0c0-.34-.25-.53-.68-.53h-.82v1.07h.81Z"/>
    <path class="cls-9" d="M744.71,458.54h0c0-.57.39-1.03.94-1.03.58,0,.91.46.91,1.03,0,.04,0,.06,0,.09h-1.55c.04.42.34.66.69.66.27,0,.45-.11.62-.28l.18.16c-.2.22-.43.37-.81.37-.53,0-.98-.41-.98-1.02ZM746.26,458.42c-.03-.35-.23-.67-.62-.67-.34,0-.59.29-.63.67h1.26Z"/>
    <path class="cls-9" d="M746.9,459.26l.15-.21c.21.16.45.25.68.25s.41-.12.41-.31h0c0-.2-.23-.28-.49-.35-.3-.09-.65-.19-.65-.55h0c0-.34.28-.57.67-.57.24,0,.5.08.7.22l-.13.22c-.18-.12-.39-.19-.58-.19-.23,0-.38.12-.38.28h0c0,.19.24.27.5.34.3.09.63.21.63.56h0c0,.38-.31.59-.7.59-.28,0-.59-.11-.81-.29Z"/>
    <path class="cls-9" d="M749.01,458.99v-1.18h-.27v-.26h.27v-.59h.29v.59h.62v.26h-.62v1.14c0,.24.13.33.33.33.1,0,.18-.02.28-.07v.25c-.1.06-.21.08-.35.08-.32,0-.55-.16-.55-.55Z"/>
    <path class="cls-9" d="M750.28,458.94h0c0-.42.34-.64.84-.64.25,0,.42.03.6.08v-.07c0-.35-.22-.53-.58-.53-.23,0-.41.06-.59.14l-.09-.24c.22-.1.42-.16.71-.16s.49.07.63.22c.13.13.2.33.2.57v1.2h-.28v-.29c-.14.18-.36.34-.71.34s-.73-.2-.73-.61ZM751.73,458.79v-.19c-.15-.04-.33-.08-.58-.08-.37,0-.57.16-.57.41h0c0,.25.23.4.49.4.36,0,.66-.22.66-.53Z"/>
    <path class="cls-9" d="M752.59,458.77v-1.21h.29v1.14c0,.36.19.59.54.59s.59-.25.59-.61v-1.12h.29v1.96h-.29v-.34c-.13.21-.33.38-.67.38-.47,0-.75-.32-.75-.78Z"/>
    <path class="cls-9" d="M754.94,457.55h.29v.51c.14-.33.43-.56.8-.54v.31h-.02c-.43,0-.78.31-.78.9v.78h-.29v-1.96Z"/>
    <path class="cls-9" d="M756.23,458.94h0c0-.42.34-.64.84-.64.25,0,.42.03.6.08v-.07c0-.35-.22-.53-.58-.53-.23,0-.41.06-.59.14l-.09-.24c.22-.1.42-.16.71-.16s.49.07.63.22c.13.13.2.33.2.57v1.2h-.28v-.29c-.14.18-.36.34-.71.34s-.73-.2-.73-.61ZM757.68,458.79v-.19c-.15-.04-.33-.08-.58-.08-.37,0-.57.16-.57.41h0c0,.25.23.4.49.4.36,0,.66-.22.66-.53Z"/>
    <path class="cls-9" d="M758.57,457.55h.29v.34c.13-.21.33-.38.67-.38.47,0,.75.32.75.78v1.21h-.29v-1.14c0-.36-.19-.59-.54-.59s-.59.25-.59.61v1.12h-.29v-1.96Z"/>
    <path class="cls-9" d="M761,458.99v-1.18h-.27v-.26h.27v-.59h.29v.59h.62v.26h-.62v1.14c0,.24.13.33.33.33.1,0,.18-.02.28-.07v.25c-.1.06-.21.08-.35.08-.32,0-.55-.16-.55-.55Z"/>
    <path class="cls-9" d="M762.24,458.54h0c0-.57.39-1.03.94-1.03.58,0,.91.46.91,1.03,0,.04,0,.06,0,.09h-1.55c.04.42.34.66.69.66.27,0,.45-.11.62-.28l.18.16c-.2.22-.43.37-.81.37-.53,0-.98-.41-.98-1.02ZM763.8,458.42c-.03-.35-.23-.67-.62-.67-.34,0-.59.29-.63.67h1.26Z"/>
    <path class="cls-9" d="M742.01,463.66l.19-.22c.28.25.54.37.91.37s.59-.19.59-.45h0c0-.25-.13-.39-.69-.51-.61-.13-.89-.33-.89-.76h0c0-.42.37-.73.87-.73.39,0,.66.11.93.33l-.17.23c-.25-.2-.49-.29-.76-.29-.35,0-.56.18-.56.43h0c0,.26.13.4.72.52.59.13.86.34.86.75h0c0,.46-.38.76-.9.76-.42,0-.76-.14-1.08-.42Z"/>
    <path class="cls-9" d="M744.6,461.39h1.91v.27h-1.62v.9h1.45v.27h-1.45v.93h1.63v.27h-1.93v-2.65Z"/>
    <path class="cls-9" d="M746.9,461.39h.33l.94,2.28.95-2.28h.32l-1.14,2.67h-.27l-1.14-2.67Z"/>
    <path class="cls-9" d="M749.96,461.39h1.91v.27h-1.62v.9h1.45v.27h-1.45v.93h1.63v.27h-1.93v-2.65Z"/>
    <path class="cls-9" d="M752.49,461.39h.28l1.67,2.12v-2.12h.29v2.65h-.24l-1.71-2.17v2.17h-.29v-2.65Z"/>
    <path class="cls-9" d="M756.61,461.39h.99c.6,0,.99.32.99.84h0c0,.58-.48.88-1.04.88h-.64v.93h-.3v-2.65ZM757.56,462.84c.44,0,.73-.24.73-.58h0c0-.39-.28-.58-.71-.58h-.67v1.17h.65Z"/>
    <path class="cls-9" d="M759.85,461.38h.28l1.21,2.67h-.32l-.31-.7h-1.44l-.31.7h-.31l1.21-2.67ZM760.59,463.07l-.6-1.35-.61,1.35h1.21Z"/>
    <path class="cls-9" d="M761.63,463.66l.19-.22c.28.25.54.37.91.37s.59-.19.59-.45h0c0-.25-.13-.39-.69-.51-.61-.13-.89-.33-.89-.76h0c0-.42.37-.73.87-.73.39,0,.66.11.93.33l-.17.23c-.25-.2-.49-.29-.76-.29-.35,0-.56.18-.56.43h0c0,.26.13.4.72.52.59.13.86.34.86.75h0c0,.46-.38.76-.9.76-.42,0-.76-.14-1.08-.42Z"/>
    <path class="cls-9" d="M764.01,463.66l.19-.22c.28.25.54.37.91.37s.59-.19.59-.45h0c0-.25-.13-.39-.69-.51-.61-.13-.89-.33-.89-.76h0c0-.42.37-.73.87-.73.39,0,.66.11.93.33l-.17.23c-.25-.2-.49-.29-.76-.29-.35,0-.56.18-.56.43h0c0,.26.13.4.72.52.59.13.86.34.86.75h0c0,.46-.38.76-.9.76-.42,0-.76-.14-1.08-.42Z"/>
  </g>
  <g>
    <path class="cls-9" d="M630.4,434.09h0c-.75,0-1.37-.56-1.37-1.34,0-.48.17-.77.42-1.03l.22.2c-.21.23-.36.47-.36.83,0,.59.48,1.03,1.09,1.03h0c.61,0,1.09-.44,1.09-1.03,0-.36-.14-.6-.38-.86l.19-.2c.28.27.46.58.46,1.06,0,.76-.6,1.33-1.36,1.33Z"/>
    <path class="cls-9" d="M630.74,431.38h0c-.56,0-1.02-.43-1.02-1.02s.46-1.02,1.01-1.02h0c.56,0,1.02.44,1.02,1.03s-.46,1.01-1.01,1.01ZM630.74,429.64h0c-.42,0-.76.31-.76.73s.34.72.76.72h0c.42,0,.76-.31.76-.72s-.34-.72-.75-.72Z"/>
    <path class="cls-9" d="M629.76,428.82v-.29h.51c-.33-.14-.56-.43-.54-.8h.31v.02c0,.43.31.78.9.78h.78v.29h-1.96Z"/>
    <path class="cls-9" d="M629.76,427.29v-.29h.51c-.33-.14-.56-.43-.54-.8h.31v.02c0,.43.31.78.9.78h.78v.29h-1.96Z"/>
    <path class="cls-9" d="M630.74,425.97h0c-.56,0-1.02-.39-1.02-.94,0-.58.46-.91,1.03-.91.04,0,.06,0,.09,0v1.55c.42-.04.66-.34.66-.69,0-.27-.11-.45-.28-.62l.16-.18c.22.2.37.43.37.81,0,.53-.41.98-1.02.98ZM630.63,424.41c-.35.03-.67.23-.67.62,0,.34.29.59.67.64v-1.26Z"/>
    <path class="cls-9" d="M630.74,423.72h0c-.64,0-1.02-.47-1.02-.93,0-.36.19-.6.42-.75h-1.18v-.29h2.76v.29h-.39c.23.16.44.39.44.75,0,.47-.37.93-1.01.93ZM630.74,422.03h0c-.45,0-.75.34-.75.71s.28.69.75.69h0c.47,0,.76-.31.76-.69s-.31-.71-.76-.71Z"/>
    <path class="cls-9" d="M630.74,421.22h0c-.56,0-1.02-.43-1.02-1.02s.46-1.02,1.01-1.02h0c.56,0,1.02.44,1.02,1.03s-.46,1.01-1.01,1.01ZM630.74,419.48h0c-.42,0-.76.31-.76.73s.34.72.76.72h0c.42,0,.76-.31.76-.72s-.34-.72-.75-.72Z"/>
    <path class="cls-9" d="M629.76,418.66v-.29h.51c-.33-.14-.56-.43-.54-.8h.31v.02c0,.43.31.78.9.78h.78v.29h-1.96Z"/>
    <path class="cls-9" d="M630.74,414.99h0c-.56,0-1.02-.43-1.02-1,0-.37.15-.6.35-.78l.21.19c-.16.16-.29.33-.29.59,0,.4.33.7.76.7h0c.42,0,.76-.31.76-.72,0-.25-.12-.44-.29-.6l.17-.19c.22.2.38.43.38.8,0,.58-.46,1-1.01,1Z"/>
    <path class="cls-9" d="M630.74,412.89h0c-.56,0-1.02-.43-1.02-1.02s.46-1.02,1.01-1.02h0c.56,0,1.02.44,1.02,1.03s-.46,1.01-1.01,1.01ZM630.74,411.15h0c-.42,0-.76.31-.76.73s.34.72.76.72h0c.42,0,.76-.31.76-.72s-.34-.72-.75-.72Z"/>
    <path class="cls-9" d="M629.76,410.32v-.29h.34c-.21-.13-.38-.33-.38-.67,0-.47.32-.75.78-.75h1.21v.29h-1.14c-.36,0-.59.19-.59.54s.25.59.61.59h1.12v.29h-1.96Z"/>
    <path class="cls-9" d="M630.74,408.12h0c-.56,0-1.02-.39-1.02-.94,0-.58.46-.91,1.03-.91.04,0,.06,0,.09,0v1.55c.42-.04.66-.34.66-.69,0-.27-.11-.45-.28-.62l.16-.18c.22.2.37.43.37.81,0,.53-.41.98-1.02.98ZM630.63,406.56c-.35.03-.67.23-.67.62,0,.34.29.59.67.64v-1.26Z"/>
    <path class="cls-9" d="M630.52,405.11l-.76-.58v-.33l.96.74,1-.77v.34l-.81.61.81.61v.33l-1-.76-.96.73v-.33l.76-.58Z"/>
    <path class="cls-9" d="M629.38,402.99c-.03.09-.07.17-.07.23,0,.1.05.14.19.2l-.05.18c-.29-.08-.4-.18-.4-.36,0-.09.03-.18.08-.27.04-.09.08-.17.08-.23,0-.1-.05-.14-.19-.2l.05-.18c.29.08.4.18.4.36,0,.09-.04.18-.08.27ZM631.15,403.91h0c-.41,0-.63-.34-.63-.84,0-.25.03-.42.08-.6h-.07c-.35,0-.53.22-.53.58,0,.23.06.41.14.59l-.24.09c-.1-.22-.16-.42-.16-.71s.07-.49.21-.63c.13-.13.33-.2.57-.2h1.2v.28h-.29c.18.14.34.36.34.71s-.21.73-.61.73ZM630.99,402.47h-.19c-.04.15-.08.33-.08.58,0,.37.16.57.4.57h0c.25,0,.39-.23.39-.49,0-.36-.22-.65-.53-.65Z"/>
    <path class="cls-9" d="M630.74,401.7h0c-.56,0-1.02-.43-1.02-1.02s.46-1.02,1.01-1.02h0c.56,0,1.02.44,1.02,1.03s-.46,1.01-1.01,1.01ZM630.74,399.96h0c-.42,0-.76.31-.76.73s.34.71.76.71h0c.42,0,.76-.31.76-.72s-.34-.72-.75-.72Z"/>
    <path class="cls-9" d="M629.76,398v-.29h.39c-.23-.16-.44-.39-.44-.75,0-.47.37-.93,1.01-.93h0c.64,0,1.02.46,1.02.93,0,.36-.19.6-.42.75h.98v.29h-2.56ZM630.74,396.33h0c-.46,0-.76.31-.76.69s.31.71.75.71h0c.45,0,.76-.34.76-.71s-.28-.69-.75-.69Z"/>
    <path class="cls-9" d="M631.15,395.64h0c-.41,0-.63-.34-.63-.84,0-.25.03-.42.08-.6h-.07c-.35,0-.53.22-.53.58,0,.23.06.41.14.59l-.24.09c-.1-.22-.16-.42-.16-.71s.07-.49.21-.63c.13-.13.33-.2.57-.2h1.2v.28h-.29c.18.14.34.36.34.71s-.21.73-.61.73ZM630.99,394.2h-.19c-.04.15-.08.33-.08.58,0,.37.16.57.4.57h0c.25,0,.39-.23.39-.49,0-.36-.22-.65-.53-.65Z"/>
    <path class="cls-9" d="M629.76,393.31v-.29h.51c-.33-.14-.56-.43-.54-.8h.31v.02c0,.43.31.78.9.78h.78v.29h-1.96Z"/>
    <path class="cls-9" d="M631.15,392.02h0c-.41,0-.63-.34-.63-.84,0-.25.03-.42.08-.6h-.07c-.35,0-.53.22-.53.58,0,.23.06.41.14.59l-.24.09c-.1-.22-.16-.42-.16-.71s.07-.49.21-.63c.13-.13.33-.2.57-.2h1.2v.28h-.29c.18.14.34.36.34.71s-.21.73-.61.73ZM630.99,390.58h-.19c-.04.15-.08.33-.08.58,0,.37.16.57.4.57h0c.25,0,.39-.23.39-.49,0-.36-.22-.65-.53-.65Z"/>
    <path class="cls-9" d="M629.76,389.71v-.35h.4v.35h-.4ZM631.32,389.71v-.35h.4v.35h-.4Z"/>
    <path class="cls-9" d="M633.6,433.98v-1.92h.27v1.62h.9v-1.45h.27v1.45h.93v-1.63h.27v1.93h-2.65Z"/>
    <path class="cls-9" d="M636,431.66l-.21-.15c.16-.21.25-.45.25-.68s-.12-.4-.31-.4h0c-.19,0-.27.23-.34.49-.09.3-.19.65-.55.65h0c-.34,0-.56-.28-.56-.67,0-.24.08-.5.22-.7l.22.13c-.12.18-.19.39-.19.58,0,.23.12.38.28.38h0c.19,0,.26-.24.34-.5.09-.3.21-.63.56-.63h0c.37,0,.59.31.59.7,0,.28-.11.59-.29.81Z"/>
    <path class="cls-9" d="M635.73,429.55h-1.18v.27h-.26v-.27h-.59v-.29h.59v-.62h.26v.62h1.14c.24,0,.33-.13.33-.33,0-.1-.02-.18-.07-.28h.25c.06.1.08.21.08.35,0,.32-.16.55-.55.55Z"/>
    <path class="cls-9" d="M635.68,428.27h0c-.41,0-.63-.34-.63-.84,0-.25.03-.42.08-.6h-.07c-.35,0-.53.22-.53.58,0,.23.06.41.14.59l-.24.09c-.1-.22-.16-.42-.16-.71s.07-.49.22-.63c.13-.13.33-.2.57-.2h1.2v.28h-.29c.18.14.34.36.34.71s-.21.73-.61.73ZM635.53,426.83h-.19c-.04.15-.08.33-.08.58,0,.37.16.57.4.57h0c.25,0,.39-.23.39-.49,0-.36-.22-.65-.53-.65Z"/>
    <path class="cls-9" d="M635.28,426.06h0c-.56,0-1.02-.43-1.02-1,0-.37.15-.6.35-.78l.2.19c-.16.16-.3.33-.3.59,0,.4.33.7.76.7h0c.42,0,.76-.31.76-.72,0-.25-.12-.44-.29-.6l.17-.19c.22.2.38.43.38.8,0,.58-.47,1-1.01,1Z"/>
    <path class="cls-9" d="M633.54,423.77v-.33h.32v.33h-.32ZM634.29,423.76v-.29h1.96v.29h-1.96Z"/>
    <path class="cls-9" d="M635.28,422.91h0c-.56,0-1.02-.43-1.02-1.02s.46-1.02,1.01-1.02h0c.56,0,1.02.44,1.02,1.03s-.46,1.01-1.01,1.01ZM635.28,421.17h0c-.42,0-.76.31-.76.73s.34.72.76.72h0c.42,0,.76-.31.76-.72s-.34-.72-.75-.72Z"/>
    <path class="cls-9" d="M634.29,420.35v-.29h.34c-.21-.13-.38-.33-.38-.67,0-.47.32-.75.78-.75h1.21v.29h-1.14c-.36,0-.59.19-.59.54s.25.59.61.59h1.12v.29h-1.96Z"/>
    <path class="cls-9" d="M635.68,418.17h0c-.41,0-.63-.34-.63-.84,0-.25.03-.42.08-.6h-.07c-.35,0-.53.22-.53.58,0,.23.06.41.14.59l-.24.09c-.1-.22-.16-.42-.16-.71s.07-.49.22-.63c.13-.13.33-.2.57-.2h1.2v.28h-.29c.18.14.34.36.34.71s-.21.73-.61.73ZM635.53,416.73h-.19c-.04.15-.08.33-.08.58,0,.37.16.57.4.57h0c.25,0,.39-.23.39-.49,0-.36-.22-.65-.53-.65Z"/>
    <path class="cls-9" d="M634.29,415.84v-.29h.33c-.2-.13-.37-.3-.37-.63s.17-.52.39-.63c-.22-.14-.39-.34-.39-.69,0-.45.3-.73.79-.73h1.21v.29h-1.14c-.38,0-.59.19-.59.51,0,.29.22.54.61.54h1.13v.29h-1.15c-.37,0-.58.19-.58.5s.26.54.62.54h1.12v.29h-1.96Z"/>
    <path class="cls-9" d="M635.27,412.38h0c-.56,0-1.02-.39-1.02-.94,0-.58.46-.91,1.03-.91.04,0,.06,0,.09,0v1.55c.42-.04.66-.34.66-.69,0-.27-.11-.45-.28-.62l.16-.18c.22.2.37.43.37.81,0,.53-.41.98-1.02.98ZM635.16,410.82c-.35.03-.67.23-.67.62,0,.34.29.59.67.64v-1.26Z"/>
    <path class="cls-9" d="M634.29,410.02v-.29h.34c-.21-.13-.38-.33-.38-.67,0-.47.32-.75.78-.75h1.21v.29h-1.14c-.36,0-.59.19-.59.54s.25.59.61.59h1.12v.29h-1.96Z"/>
    <path class="cls-9" d="M635.73,407.59h-1.18v.27h-.26v-.27h-.59v-.29h.59v-.62h.26v.62h1.14c.24,0,.33-.13.33-.33,0-.1-.02-.18-.07-.28h.25c.06.1.08.21.08.35,0,.32-.16.55-.55.55Z"/>
    <path class="cls-9" d="M635.28,406.34h0c-.56,0-1.02-.43-1.02-1.02s.46-1.02,1.01-1.02h0c.56,0,1.02.44,1.02,1.03s-.46,1.01-1.01,1.01ZM635.28,404.6h0c-.42,0-.76.31-.76.73s.34.72.76.72h0c.42,0,.76-.31.76-.72s-.34-.72-.75-.72Z"/>
    <path class="cls-9" d="M634.93,402.72h0c-.75,0-1.37-.56-1.37-1.34,0-.48.17-.77.42-1.03l.22.2c-.21.23-.36.47-.36.83,0,.59.48,1.03,1.09,1.03h0c.61,0,1.09-.44,1.09-1.03,0-.36-.14-.6-.38-.85l.19-.2c.28.27.47.58.47,1.06,0,.76-.6,1.33-1.36,1.33Z"/>
    <path class="cls-9" d="M633.6,399.8v-1.9h.28v1.6h.95v-1.43h.27v1.43h1.15v.3h-2.65Z"/>
    <path class="cls-9" d="M639.46,434.09h0c-.75,0-1.37-.56-1.37-1.34,0-.48.17-.77.42-1.03l.22.2c-.21.23-.36.47-.36.83,0,.59.48,1.03,1.09,1.03h0c.61,0,1.09-.44,1.09-1.03,0-.36-.14-.6-.38-.86l.19-.2c.28.27.47.58.47,1.06,0,.76-.6,1.33-1.36,1.33Z"/>
    <path class="cls-9" d="M639.81,431.38h0c-.56,0-1.02-.39-1.02-.94,0-.58.46-.91,1.03-.91.04,0,.06,0,.09,0v1.55c.42-.04.66-.34.66-.69,0-.27-.11-.45-.28-.62l.16-.18c.22.2.37.43.37.81,0,.53-.41.98-1.02.98ZM639.69,429.83c-.35.03-.67.23-.67.62,0,.34.29.59.67.64v-1.26Z"/>
    <path class="cls-9" d="M638.82,429.02v-.29h.34c-.21-.13-.38-.33-.38-.67,0-.47.32-.75.78-.75h1.21v.29h-1.14c-.36,0-.59.19-.59.54s.25.59.61.59h1.12v.29h-1.96Z"/>
    <path class="cls-9" d="M640.26,426.6h-1.18v.27h-.26v-.27h-.59v-.29h.59v-.62h.26v.62h1.14c.24,0,.33-.13.33-.33,0-.1-.02-.18-.07-.28h.25c.06.1.08.21.08.35,0,.32-.16.55-.55.55Z"/>
    <path class="cls-9" d="M638.82,425.17v-.29h.51c-.33-.14-.56-.43-.54-.8h.31v.02c0,.43.31.78.9.78h.78v.29h-1.96Z"/>
    <path class="cls-9" d="M639.81,423.85h0c-.56,0-1.02-.43-1.02-1.02s.46-1.02,1.01-1.02h0c.56,0,1.02.44,1.02,1.03s-.46,1.01-1.01,1.01ZM639.81,422.11h0c-.42,0-.76.31-.76.73s.34.72.76.72h0c.42,0,.76-.31.76-.72s-.34-.72-.75-.72Z"/>
    <path class="cls-9" d="M639.81,420.27h0c-.64,0-1.02-.47-1.02-.93,0-.36.19-.6.42-.75h-1.18v-.29h2.76v.29h-.39c.23.16.44.39.44.75,0,.47-.37.93-1.01.93ZM639.8,418.57h0c-.45,0-.75.34-.75.71s.28.69.75.69h0c.47,0,.76-.31.76-.69s-.31-.71-.76-.71Z"/>
    <path class="cls-9" d="M639.81,417.77h0c-.56,0-1.02-.39-1.02-.94,0-.58.46-.91,1.03-.91.04,0,.06,0,.09,0v1.55c.42-.04.66-.34.66-.69,0-.27-.11-.45-.28-.62l.16-.18c.22.2.37.43.37.81,0,.53-.41.98-1.02.98ZM639.69,416.21c-.35.03-.67.23-.67.62,0,.34.29.59.67.64v-1.26Z"/>
    <path class="cls-9" d="M638.13,414.23v-1.9h.28v1.6h.95v-1.43h.27v1.43h1.15v.3h-2.65Z"/>
    <path class="cls-9" d="M639.81,411.98h0c-.56,0-1.02-.43-1.02-1.02s.46-1.02,1.01-1.02h0c.56,0,1.02.44,1.02,1.03s-.46,1.01-1.01,1.01ZM639.81,410.23h0c-.42,0-.76.31-.76.73s.34.71.76.71h0c.42,0,.76-.31.76-.72s-.34-.72-.75-.72Z"/>
    <path class="cls-9" d="M638.82,409.41v-.29h.51c-.33-.14-.56-.43-.54-.8h.31v.02c0,.43.31.78.9.78h.78v.29h-1.96Z"/>
    <path class="cls-9" d="M638.82,407.88v-.29h.33c-.2-.13-.37-.3-.37-.63s.17-.52.39-.63c-.22-.14-.39-.34-.39-.69,0-.45.3-.73.79-.73h1.21v.29h-1.14c-.38,0-.59.19-.59.51,0,.29.22.54.61.54h1.13v.29h-1.15c-.37,0-.58.19-.58.5s.26.54.62.54h1.12v.29h-1.96Z"/>
    <path class="cls-9" d="M640.21,404.45h0c-.41,0-.63-.34-.63-.84,0-.25.03-.42.08-.6h-.07c-.35,0-.53.22-.53.58,0,.23.06.41.14.59l-.24.09c-.1-.22-.16-.42-.16-.71s.07-.49.22-.63c.13-.13.33-.2.57-.2h1.2v.28h-.29c.18.14.34.36.34.71s-.21.73-.61.73ZM640.06,403.01h-.19c-.04.15-.08.33-.08.58,0,.37.16.57.4.57h0c.25,0,.39-.23.39-.49,0-.36-.22-.65-.53-.65Z"/>
    <path class="cls-9" d="M641.24,401.71l-.43-.29c-.08.48-.51.82-1,.82h0c-.56,0-1.02-.43-1.02-1,0-.37.15-.6.35-.78l.2.19c-.16.16-.3.33-.3.59,0,.4.33.7.76.7h0c.42,0,.76-.31.76-.72,0-.25-.12-.44-.29-.6l.17-.19c.21.19.36.41.38.74l.54.25-.13.28Z"/>
    <path class="cls-9" d="M638.45,399.19c-.03.09-.07.17-.07.23,0,.1.05.14.19.2l-.05.18c-.29-.08-.4-.18-.4-.36,0-.09.03-.18.08-.27.04-.09.08-.17.08-.23,0-.1-.05-.14-.19-.2l.05-.18c.29.08.4.18.4.36,0,.09-.04.18-.08.27ZM640.21,400.11h0c-.41,0-.63-.34-.63-.84,0-.25.03-.42.08-.6h-.07c-.35,0-.53.22-.53.58,0,.23.06.41.14.59l-.24.09c-.1-.22-.16-.42-.16-.71s.07-.49.22-.63c.13-.13.33-.2.57-.2h1.2v.28h-.29c.18.14.34.36.34.71s-.21.73-.61.73ZM640.06,398.67h-.19c-.04.15-.08.33-.08.58,0,.37.16.57.4.57h0c.25,0,.39-.23.39-.49,0-.36-.22-.65-.53-.65Z"/>
    <path class="cls-9" d="M639.81,397.89h0c-.56,0-1.02-.43-1.02-1.02s.46-1.02,1.01-1.02h0c.56,0,1.02.44,1.02,1.03s-.46,1.01-1.01,1.01ZM639.81,396.15h0c-.42,0-.76.31-.76.73s.34.71.76.71h0c.42,0,.76-.31.76-.72s-.34-.72-.75-.72Z"/>
    <path class="cls-9" d="M639.49,394.28v-1.05h.31v1.05h-.31Z"/>
    <path class="cls-9" d="M639.46,391.59h0c-.75,0-1.37-.56-1.37-1.34,0-.48.17-.77.42-1.03l.22.2c-.21.23-.36.47-.36.83,0,.59.48,1.03,1.09,1.03h0c.61,0,1.09-.44,1.09-1.03,0-.36-.14-.6-.38-.85l.19-.2c.28.27.47.58.47,1.06,0,.76-.6,1.33-1.36,1.33Z"/>
    <path class="cls-9" d="M638.13,388.67v-1.9h.28v1.6h.95v-1.43h.27v1.43h1.15v.3h-2.65Z"/>
  </g>
  <g id="label_bazar_abasc" data-keep-label="true" data-label="Bazar abasc">
    <path class="cls-9" d="M807.93,456.78h.9c.24,0,.43.07.55.19.09.09.14.21.14.34h0c0,.28-.17.43-.33.5.25.07.45.22.45.51h0c0,.37-.3.59-.76.59h-.93v-2.13ZM809.27,457.34c0-.21-.17-.35-.47-.35h-.64v.73h.62c.29,0,.48-.13.48-.38h0ZM809.39,458.3c0-.23-.19-.36-.56-.36h-.66v.75h.71c.32,0,.52-.14.52-.38h0Z"/>
    <path class="cls-9" d="M809.94,458.45h0c0-.33.27-.51.66-.51.2,0,.34.03.48.07v-.05c0-.28-.17-.43-.46-.43-.18,0-.33.05-.47.12l-.07-.19c.17-.08.34-.13.57-.13s.39.06.5.17c.11.11.16.26.16.46v.96h-.22v-.24c-.11.14-.29.27-.56.27s-.58-.16-.58-.49ZM811.09,458.33v-.15c-.12-.03-.26-.07-.46-.07-.29,0-.45.13-.45.33h0c0,.2.18.32.39.32.29,0,.52-.18.52-.42Z"/>
    <path class="cls-9" d="M811.71,458.75l1.03-1.22h-1v-.2h1.31v.15l-1.03,1.22h1.03v.2h-1.35v-.15Z"/>
    <path class="cls-9" d="M813.35,458.45h0c0-.33.27-.51.66-.51.2,0,.34.03.48.07v-.05c0-.28-.17-.43-.46-.43-.18,0-.33.05-.47.12l-.07-.19c.17-.08.34-.13.57-.13s.39.06.5.17c.11.11.16.26.16.46v.96h-.22v-.24c-.11.14-.29.27-.56.27s-.58-.16-.58-.49ZM814.49,458.33v-.15c-.12-.03-.26-.07-.46-.07-.29,0-.45.13-.45.33h0c0,.2.18.32.39.32.29,0,.52-.18.52-.42Z"/>
    <path class="cls-9" d="M815.2,457.33h.23v.41c.11-.26.34-.45.63-.44v.25h-.02c-.34,0-.62.25-.62.72v.63h-.23v-1.57Z"/>
    <path class="cls-9" d="M808.48,460.65h-.71v-.22h1.66v.22h-.71v1.9h-.24v-1.9Z"/>
    <path class="cls-9" d="M809.56,460.99h.23v.41c.11-.26.34-.45.63-.44v.25h-.02c-.34,0-.62.25-.62.72v.62h-.23v-1.57Z"/>
    <path class="cls-9" d="M810.58,462.1h0c0-.33.27-.51.66-.51.2,0,.34.03.48.07v-.05c0-.28-.17-.43-.46-.43-.18,0-.33.05-.47.12l-.07-.19c.17-.08.34-.13.57-.13s.39.06.5.17c.11.11.16.26.16.46v.96h-.22v-.24c-.11.14-.29.27-.56.27s-.58-.16-.58-.49ZM811.73,461.98v-.15c-.12-.03-.26-.07-.46-.07-.29,0-.45.13-.45.32h0c0,.2.18.32.39.32.29,0,.52-.18.52-.43Z"/>
    <path class="cls-9" d="M812.44,460.99h.23v.27c.1-.17.26-.31.53-.31.37,0,.59.25.59.63v.97h-.23v-.92c0-.29-.15-.47-.43-.47s-.47.2-.47.49v.9h-.23v-1.57Z"/>
    <path class="cls-9" d="M814.15,462.35l.12-.17c.17.13.36.2.54.2s.32-.09.32-.25h0c0-.16-.18-.22-.39-.28-.24-.07-.51-.15-.51-.44h0c0-.28.22-.46.53-.46.19,0,.4.07.56.17l-.11.18c-.14-.09-.31-.15-.46-.15-.18,0-.3.1-.3.23h0c0,.16.19.21.4.28.24.07.5.17.5.45h0c0,.3-.24.48-.55.48-.23,0-.47-.09-.64-.23Z"/>
    <path class="cls-9" d="M815.86,461.19h-.21v-.2h.21v-.14c0-.18.04-.31.13-.4.08-.08.19-.12.33-.12.11,0,.18.01.26.04v.2c-.08-.02-.14-.04-.23-.04-.18,0-.27.11-.27.33v.13h.49v.2h-.49v1.36h-.23v-1.36Z"/>
    <path class="cls-9" d="M816.75,461.78h0c0-.45.34-.83.81-.83s.81.37.81.81h0c0,.45-.35.83-.81.83s-.81-.37-.81-.81ZM818.14,461.78h0c0-.34-.25-.62-.58-.62s-.57.28-.57.61h0c0,.34.25.62.57.62s.57-.28.57-.6Z"/>
    <path class="cls-9" d="M818.79,460.99h.23v.41c.11-.26.34-.45.63-.44v.25h-.02c-.34,0-.62.25-.62.72v.62h-.23v-1.57Z"/>
    <path class="cls-9" d="M820,460.99h.23v.26c.1-.16.24-.3.5-.3s.42.13.5.31c.11-.17.27-.31.55-.31.36,0,.58.24.58.63v.97h-.23v-.92c0-.3-.15-.47-.4-.47-.23,0-.43.18-.43.49v.9h-.23v-.92c0-.29-.15-.47-.4-.47s-.43.21-.43.5v.9h-.23v-1.57Z"/>
    <path class="cls-9" d="M822.73,462.1h0c0-.33.27-.51.66-.51.2,0,.34.03.48.07v-.05c0-.28-.17-.43-.46-.43-.18,0-.33.05-.47.12l-.07-.19c.17-.08.34-.13.57-.13s.39.06.5.17c.11.11.16.26.16.46v.96h-.22v-.24c-.11.14-.29.27-.56.27s-.58-.16-.58-.49ZM823.87,461.98v-.15c-.12-.03-.26-.07-.46-.07-.29,0-.45.13-.45.32h0c0,.2.18.32.39.32.29,0,.52-.18.52-.43Z"/>
    <path class="cls-9" d="M808.71,464.07h.22l.96,2.14h-.26l-.25-.56h-1.15l-.25.56h-.24l.96-2.14ZM809.3,465.43l-.48-1.08-.48,1.08h.96Z"/>
    <path class="cls-9" d="M810.3,464.08h.9c.24,0,.43.07.55.19.09.09.14.21.14.34h0c0,.28-.17.42-.33.5.25.07.45.22.45.51h0c0,.37-.3.59-.76.59h-.93v-2.12ZM811.65,464.64c0-.21-.17-.35-.47-.35h-.64v.73h.62c.29,0,.48-.13.48-.38h0ZM811.76,465.61c0-.23-.19-.37-.56-.37h-.66v.75h.71c.32,0,.52-.14.52-.38h0Z"/>
    <path class="cls-9" d="M813.21,464.07h.22l.96,2.14h-.26l-.25-.56h-1.15l-.25.56h-.24l.96-2.14ZM813.8,465.43l-.48-1.08-.48,1.08h.96Z"/>
    <path class="cls-9" d="M814.63,465.9l.15-.18c.22.2.43.3.72.3s.47-.15.47-.36h0c0-.2-.11-.31-.55-.41-.48-.11-.71-.26-.71-.61h0c0-.34.29-.59.69-.59.31,0,.52.09.74.26l-.14.19c-.2-.16-.39-.23-.61-.23-.28,0-.45.15-.45.34h0c0,.21.11.32.57.42.47.11.69.28.69.6h0c0,.37-.3.61-.72.61-.34,0-.61-.11-.86-.34Z"/>
    <path class="cls-9" d="M816.59,465.15h0c0-.61.45-1.11,1.06-1.11.38,0,.61.13.82.34l-.16.18c-.18-.17-.37-.29-.66-.29-.47,0-.81.38-.81.87h0c0,.5.35.88.81.88.29,0,.48-.11.68-.31l.16.15c-.22.22-.46.37-.84.37-.61,0-1.06-.48-1.06-1.09Z"/>
  </g>
  <text class="cls-17" transform="translate(350.84 408.04)"><tspan x="0" y="0">Escadas</tspan></text>
  <text class="cls-20" transform="translate(362.19 388.25) scale(1.08 1)"><tspan x="0" y="0">Escadas de</tspan><tspan x="0" y="3.01">eme</tspan><tspan class="cls-41" x="5.34" y="3.01">r</tspan><tspan x="6.31" y="3.01">gência</tspan></text>
  <text class="cls-7" transform="translate(769.04 679.52)"><tspan x="0" y="0">E</tspan><tspan class="cls-106" x="1.97" y="0">s</tspan><tspan x="3.4" y="0">tacionamen</tspan><tspan class="cls-76" x="20.46" y="0">t</tspan><tspan x="21.6" y="0">o PIB Curitiba</tspan></text>
  <text class="cls-5" transform="translate(244.69 222.24)"><tspan x="0" y="0">Sala de O</tspan><tspan class="cls-100" x="33.11" y="0">r</tspan><tspan class="cls-32" x="35.75" y="0">ação - RGO</tspan></text>
  <g id="label_centro_formacao_cf" data-keep-label="true" data-label="Centro de Formacao | CF">
    <path class="cls-9" d="M99.3,108.13v-.03c0-2.74,1.9-5,4.52-5,1.62,0,2.6.61,3.48,1.53l-.69.8c-.77-.77-1.58-1.33-2.81-1.33-1.98,0-3.46,1.74-3.46,3.97v.03c0,2.24,1.48,4,3.46,4,1.22,0,2.03-.51,2.88-1.4l.66.71c-.92,1.02-1.96,1.7-3.57,1.7-2.58,0-4.48-2.2-4.48-4.98Z"/>
    <path class="cls-9" d="M108.45,109.39v-.03c0-2.06,1.33-3.72,3.16-3.72,1.95,0,3.07,1.69,3.07,3.77,0,.15,0,.22-.01.35h-5.23c.14,1.55,1.15,2.42,2.32,2.42.92,0,1.53-.4,2.08-1.01l.61.59c-.66.82-1.45,1.34-2.72,1.34-1.8,0-3.29-1.51-3.29-3.72ZM113.69,108.97c-.1-1.29-.78-2.43-2.1-2.43-1.16,0-2,1.05-2.14,2.43h4.25Z"/>
    <path class="cls-9" d="M116.41,105.79h.98v1.24c.45-.77,1.12-1.4,2.26-1.4,1.58,0,2.53,1.16,2.53,2.86v4.44h-.98v-4.17c0-1.33-.65-2.16-1.82-2.16s-1.98.9-1.98,2.24v4.09h-.98v-7.15Z"/>
    <path class="cls-9" d="M124.61,111.04v-4.31h-.92v-.94h.92v-2.16h.98v2.16h2.09v.94h-2.09v4.17c0,.88.45,1.19,1.11,1.19.34,0,.61-.07.96-.25v.91c-.34.21-.71.3-1.19.3-1.07,0-1.86-.57-1.86-2.02Z"/>
    <path class="cls-9" d="M129.42,105.79h.98v1.87c.48-1.19,1.44-2.03,2.69-1.99v1.15h-.08c-1.44,0-2.62,1.12-2.62,3.28v2.85h-.98v-7.15Z"/>
    <path class="cls-9" d="M133.89,109.4v-.03c0-2.03,1.44-3.73,3.44-3.73s3.43,1.69,3.43,3.71v.03c0,2.03-1.47,3.73-3.46,3.73s-3.42-1.69-3.42-3.71ZM139.76,109.4v-.03c0-1.53-1.06-2.79-2.45-2.79s-2.41,1.26-2.41,2.77v.03c0,1.53,1.05,2.78,2.44,2.78s2.42-1.26,2.42-2.75Z"/>
    <path class="cls-9" d="M145.98,109.39v-.03c0-2.32,1.57-3.72,3.15-3.72,1.22,0,2.02.71,2.53,1.52v-4.31h.98v10.09h-.98v-1.44c-.55.86-1.3,1.59-2.53,1.59-1.58,0-3.15-1.35-3.15-3.7ZM151.69,109.37v-.03c0-1.65-1.16-2.75-2.39-2.75s-2.32,1.02-2.32,2.75v.03c0,1.7,1.06,2.77,2.32,2.77s2.39-1.12,2.39-2.77Z"/>
    <path class="cls-9" d="M154.42,109.39v-.03c0-2.06,1.33-3.72,3.16-3.72,1.95,0,3.07,1.69,3.07,3.77,0,.15,0,.22-.01.35h-5.23c.14,1.55,1.15,2.42,2.32,2.42.92,0,1.53-.4,2.08-1.01l.61.59c-.66.82-1.45,1.34-2.72,1.34-1.8,0-3.29-1.51-3.29-3.72ZM159.66,108.97c-.1-1.29-.78-2.43-2.1-2.43-1.16,0-2,1.05-2.14,2.43h4.25Z"/>
    <path class="cls-9" d="M166.37,103.26h6.42v1.01h-5.41v3.46h4.83v1h-4.83v4.22h-1.01v-9.68Z"/>
    <path class="cls-9" d="M173.97,109.4v-.03c0-2.03,1.44-3.73,3.44-3.73s3.43,1.69,3.43,3.71v.03c0,2.03-1.47,3.73-3.46,3.73s-3.42-1.69-3.42-3.71ZM179.84,109.4v-.03c0-1.53-1.06-2.79-2.45-2.79s-2.41,1.26-2.41,2.77v.03c0,1.53,1.05,2.78,2.44,2.78s2.42-1.26,2.42-2.75Z"/>
    <path class="cls-9" d="M182.61,105.79h.98v1.87c.48-1.19,1.44-2.03,2.69-1.99v1.15h-.08c-1.44,0-2.62,1.12-2.62,3.28v2.85h-.98v-7.15Z"/>
    <path class="cls-9" d="M187.78,105.79h.98v1.2c.45-.72,1.02-1.35,2.13-1.35s1.76.61,2.12,1.42c.48-.79,1.16-1.42,2.32-1.42,1.53,0,2.45,1.09,2.45,2.88v4.42h-.98v-4.17c0-1.38-.64-2.16-1.71-2.16-.98,0-1.82.8-1.82,2.21v4.12h-.97v-4.2c0-1.34-.64-2.13-1.7-2.13s-1.84.94-1.84,2.25v4.08h-.98v-7.15Z"/>
    <path class="cls-9" d="M199.37,110.87v-.03c0-1.49,1.15-2.31,2.82-2.31.85,0,1.43.12,2.03.3v-.25c0-1.29-.73-1.95-1.96-1.95-.78,0-1.39.21-2,.53l-.29-.87c.73-.37,1.43-.59,2.4-.59s1.65.26,2.13.79c.45.48.68,1.19.68,2.09v4.37h-.94v-1.08c-.46.65-1.21,1.23-2.39,1.23s-2.46-.75-2.46-2.23ZM204.23,110.31v-.69c-.5-.15-1.12-.3-1.94-.3-1.24,0-1.93.58-1.93,1.48v.03c0,.9.78,1.42,1.66,1.42,1.22,0,2.21-.8,2.21-1.94Z"/>
    <path class="cls-9" d="M208.62,114.61l1-1.58c-1.62-.29-2.77-1.87-2.77-3.64v-.03c0-2.03,1.44-3.73,3.38-3.73,1.25,0,2.02.55,2.64,1.27l-.65.75c-.52-.59-1.1-1.08-2-1.08-1.34,0-2.36,1.22-2.36,2.77v.03c0,1.55,1.05,2.78,2.42,2.78.85,0,1.49-.46,2.02-1.06l.62.64c-.62.77-1.38,1.31-2.5,1.37l-.84,1.99-.96-.47Z"/>
    <path class="cls-9" d="M214.03,110.87v-.03c0-1.49,1.15-2.31,2.82-2.31.85,0,1.43.12,2.03.3v-.25c0-1.29-.73-1.95-1.96-1.95-.78,0-1.39.21-2,.53l-.29-.87c.73-.37,1.43-.59,2.4-.59s1.65.26,2.13.79c.45.48.68,1.19.68,2.09v4.37h-.94v-1.08c-.46.65-1.21,1.23-2.39,1.23s-2.46-.75-2.46-2.23ZM218.89,110.31v-.69c-.5-.15-1.12-.3-1.94-.3-1.24,0-1.93.58-1.93,1.48v.03c0,.9.78,1.42,1.66,1.42,1.22,0,2.21-.8,2.21-1.94ZM217.13,104.42c-.29-.12-.57-.26-.79-.26-.34,0-.47.18-.66.68l-.6-.18c.26-1.05.6-1.45,1.21-1.45.29,0,.6.12.92.28.29.15.57.28.79.28.34,0,.47-.18.66-.68l.6.18c-.25,1.05-.6,1.45-1.21,1.45-.29,0-.6-.14-.92-.29Z"/>
    <path class="cls-9" d="M221.51,109.4v-.03c0-2.03,1.44-3.73,3.44-3.73s3.43,1.69,3.43,3.71v.03c0,2.03-1.47,3.73-3.46,3.73s-3.42-1.69-3.42-3.71ZM227.37,109.4v-.03c0-1.53-1.06-2.79-2.45-2.79s-2.41,1.26-2.41,2.77v.03c0,1.53,1.05,2.78,2.44,2.78s2.42-1.26,2.42-2.75Z"/>
    <path class="cls-9" d="M237.28,114.89c-2.28-1.38-3.53-3.36-3.53-5.92h0c0-2.54,1.25-4.53,3.53-5.92l.42.71c-1.95,1.34-2.96,2.99-2.96,5.21h0c0,2.21,1.01,3.88,2.96,5.21l-.42.71Z"/>
    <path class="cls-9" d="M238.9,108.13v-.03c0-2.74,1.9-5,4.52-5,1.62,0,2.6.61,3.48,1.53l-.69.8c-.77-.77-1.58-1.33-2.81-1.33-1.98,0-3.46,1.74-3.46,3.97v.03c0,2.24,1.48,4,3.46,4,1.22,0,2.03-.51,2.88-1.4l.66.71c-.92,1.02-1.96,1.7-3.57,1.7-2.58,0-4.48-2.2-4.48-4.98Z"/>
    <path class="cls-9" d="M248.76,103.26h6.42v1.01h-5.41v3.46h4.83v1h-4.83v4.22h-1.01v-9.68Z"/>
    <path class="cls-9" d="M256.57,114.18c1.95-1.34,2.96-2.99,2.96-5.21h0c0-2.21-1.01-3.88-2.96-5.21l.42-.71c2.28,1.38,3.53,3.36,3.53,5.92h0c0,2.54-1.25,4.53-3.53,5.92l-.42-.71Z"/>
  </g>
  <text class="cls-19" transform="translate(478.93 564.09)"><tspan x="0" y="0">Ent</tspan><tspan class="cls-113" x="6.38" y="0">r</tspan><tspan x="7.82" y="0">ada </tspan><tspan x="0" y="4.53">L</tspan><tspan class="cls-71" x="2.32" y="4.53">a</tspan><tspan class="cls-80" x="4.49" y="4.53">t</tspan><tspan x="5.96" y="4.53">e</tspan><tspan class="cls-57" x="8.2" y="4.53">r</tspan><tspan class="cls-111" x="9.63" y="4.53">al </tspan><tspan class="cls-36" x="13.94" y="4.53">0</tspan><tspan x="16.61" y="4.53">2</tspan><tspan class="cls-84" x="0" y="9.06">T</tspan><tspan class="cls-50" x="1.96" y="9.06">emplo</tspan></text>
  <text class="cls-27" transform="translate(806.9 492.83)"><tspan x="0" y="0">Banhei</tspan><tspan class="cls-64" x="5.3" y="0">r</tspan><tspan x="5.9" y="0">o</tspan><tspan class="cls-64" x="0" y="1.88">r</tspan><tspan x=".6" y="1.88">e</tspan><tspan class="cls-109" x="1.53" y="1.88">f</tspan><tspan x="2.08" y="1.88">ei</tspan><tspan class="cls-62" x="3.42" y="1.88">t</tspan><tspan x="4.03" y="1.88">ório</tspan><tspan x="0" y="3.75">Mas / </tspan><tspan class="cls-112" x="4.78" y="3.75">F</tspan><tspan class="cls-85" x="5.78" y="3.75">em</tspan></text>
  <text class="cls-19" transform="translate(896.58 461.7)"><tspan class="cls-36" x="0" y="0">R</tspan><tspan class="cls-37" x="2.69" y="0">e</tspan><tspan class="cls-36" x="4.93" y="0">f</tspan><tspan x="6.28" y="0">ei</tspan><tspan class="cls-80" x="9.51" y="0">t</tspan><tspan class="cls-37" x="10.98" y="0">ório </tspan><tspan class="cls-54" x="19.51" y="0">e</tspan><tspan class="cls-111" x="21.63" y="0">x</tspan><tspan class="cls-83" x="23.8" y="0">t</tspan><tspan x="25.27" y="0">erno</tspan></text>
  <text class="cls-10" transform="translate(231.06 493.35)"><tspan x="0" y="0">Escadas</tspan><tspan x="0" y="2.92">mesanino</tspan><tspan class="cls-68" x="0" y="5.83">t</tspan><tspan x=".95" y="5.83">emplo</tspan></text>
  <text class="cls-15" transform="translate(460.63 493.32)"><tspan x="0" y="0">Escadas</tspan><tspan x="0" y="2.75">mesanino</tspan><tspan class="cls-95" x="0" y="5.49">t</tspan><tspan x=".89" y="5.49">emplo</tspan></text>
  <text class="cls-19" transform="translate(222.85 664.07)"><tspan x="0" y="0">Ent</tspan><tspan class="cls-113" x="6.38" y="0">r</tspan><tspan x="7.82" y="0">ada </tspan><tspan x="0" y="4.53">l</tspan><tspan class="cls-71" x=".99" y="4.53">a</tspan><tspan class="cls-83" x="3.16" y="4.53">t</tspan><tspan x="4.63" y="4.53">e</tspan><tspan class="cls-113" x="6.87" y="4.53">r</tspan><tspan x="8.3" y="4.53">al </tspan><tspan class="cls-36" x="12.62" y="4.53">0</tspan><tspan x="15.28" y="4.53">3</tspan><tspan class="cls-84" x="0" y="9.06">T</tspan><tspan class="cls-50" x="1.96" y="9.06">emplo</tspan></text>
  <text class="cls-8" transform="translate(456.12 674.73)"><tspan x="0" y="0">Ent</tspan><tspan class="cls-38" x="4.61" y="0">r</tspan><tspan class="cls-46" x="5.65" y="0">ada </tspan><tspan x="0" y="3.28">L</tspan><tspan class="cls-42" x="1.68" y="3.28">a</tspan><tspan class="cls-94" x="3.24" y="3.28">t</tspan><tspan x="4.31" y="3.28">e</tspan><tspan class="cls-38" x="5.92" y="3.28">r</tspan><tspan x="6.96" y="3.28">al </tspan><tspan class="cls-42" x="10.08" y="3.28">0</tspan><tspan x="12.01" y="3.28">1</tspan><tspan class="cls-61" x="0" y="6.55">T</tspan><tspan x="1.41" y="6.55">emplo</tspan></text>
  <text class="cls-28" transform="translate(46.49 670.6)"><tspan x="0" y="0">Ja</tspan><tspan class="cls-55" x="6.55" y="0">r</tspan><tspan x="8.77" y="0">dim</tspan></text>
  <text class="cls-19" transform="translate(294.87 317.09)"><tspan x="0" y="0">E</tspan><tspan class="cls-36" x="2.53" y="0">s</tspan><tspan class="cls-37" x="4.37" y="0">tacionamen</tspan><tspan class="cls-80" x="26.33" y="0">t</tspan><tspan class="cls-37" x="27.8" y="0">o </tspan><tspan class="cls-67" x="31.38" y="0">C</tspan><tspan class="cls-37" x="34.14" y="0">o</tspan><tspan class="cls-30" x="36.58" y="0">n</tspan><tspan class="cls-72" x="38.83" y="0">v</tspan><tspan x="40.94" y="0">eniado PIB Curitiba</tspan></text>
  <text class="cls-19" transform="translate(903.21 813.22)"><tspan x="0" y="0">E</tspan><tspan class="cls-36" x="2.53" y="0">s</tspan><tspan class="cls-37" x="4.37" y="0">tacionamen</tspan><tspan class="cls-80" x="26.33" y="0">t</tspan><tspan class="cls-37" x="27.8" y="0">o pa</tspan><tspan class="cls-113" x="36.07" y="0">r</tspan><tspan x="37.51" y="0">a mo</tspan><tspan class="cls-83" x="46.85" y="0">t</tspan><tspan x="48.32" y="0">os PIB Curitiba</tspan></text>
  <text class="cls-23" transform="translate(733.69 517.55)"><tspan x="0" y="0">Ent</tspan><tspan class="cls-107" x="5.03" y="0">r</tspan><tspan class="cls-40" x="6.16" y="0">ada </tspan><tspan x="-8.57" y="3.57">S</tspan><tspan class="cls-82" x="-6.67" y="3.57">e</tspan><tspan class="cls-53" x="-4.98" y="3.57">v</tspan><tspan x="-3.32" y="3.57">en</tspan><tspan class="cls-44" x=".27" y="3.57">P</tspan><tspan class="cls-40" x="2.23" y="3.57">a</tspan><tspan class="cls-44" x="3.96" y="3.57">s</tspan><tspan class="cls-40" x="5.41" y="3.57">s / Ginasio</tspan></text>
  <text class="cls-19" transform="translate(541.66 858.31)"><tspan x="0" y="0">Ent</tspan><tspan class="cls-57" x="6.38" y="0">r</tspan><tspan class="cls-111" x="7.82" y="0">ada e saída / E</tspan><tspan class="cls-67" x="35.67" y="0">s</tspan><tspan x="37.52" y="0">tacionamen</tspan><tspan class="cls-80" x="59.48" y="0">t</tspan><tspan x="60.95" y="0">o - Ben</tspan><tspan class="cls-80" x="74.48" y="0">t</tspan><tspan class="cls-37" x="75.95" y="0">o </tspan><tspan class="cls-30" x="79.53" y="0">V</tspan><tspan x="82.28" y="0">iana 1200</tspan></text>
  <polygon class="cls-9" points="595.05 834.44 591.44 828.78 590.64 828.78 587.37 834.44 590.32 834.44 590.32 851.09 592.09 851.09 592.09 834.44 595.05 834.44"/>
  <polygon class="cls-9" points="554.59 846.19 558.2 851.84 559 851.84 562.27 846.19 559.31 846.19 559.31 829.53 557.55 829.53 557.55 846.19 554.59 846.19"/>
  <text class="cls-12" transform="translate(499.25 853.77)"><tspan class="cls-51"><tspan x="0" y="0">Ent</tspan><tspan class="cls-57" x="6.38" y="0">r</tspan><tspan class="cls-111" x="7.82" y="0">ada pa</tspan><tspan class="cls-113" x="20.53" y="0">r</tspan><tspan class="cls-111" x="21.96" y="0">a </tspan></tspan><tspan class="cls-51"><tspan x="0" y="4.53">pede</tspan><tspan class="cls-67" x="9.49" y="4.53">s</tspan><tspan x="11.33" y="4.53">t</tspan><tspan class="cls-56" x="12.86" y="4.53">r</tspan><tspan x="14.3" y="4.53">es Principal</tspan></tspan><tspan class="cls-66"><tspan x="0" y="8.13">(Ben</tspan><tspan class="cls-91" x="7.09" y="8.13">t</tspan><tspan class="cls-105" x="8.26" y="8.13">o </tspan><tspan class="cls-63" x="11.1" y="8.13">V</tspan><tspan x="13.29" y="8.13">iana 1200)</tspan></tspan></text>
  <text class="cls-19" transform="translate(575.15 507.61)"><tspan x="0" y="0">Ent</tspan><tspan class="cls-57" x="6.38" y="0">r</tspan><tspan class="cls-111" x="7.82" y="0">ada </tspan><tspan x="0" y="4.53">Principal</tspan><tspan class="cls-80" x="0" y="9.06">t</tspan><tspan class="cls-37" x="1.47" y="9.06">oldo</tspan></text>
  <g>
    <path class="cls-9" d="M104.49,440.28h1.92v.27h-1.62v.9h1.45v.27h-1.45v.93h1.63v.27h-1.93v-2.65Z"/>
    <path class="cls-9" d="M106.97,440.97h.29v.34c.13-.21.33-.38.67-.38.47,0,.75.32.75.78v1.21h-.29v-1.14c0-.36-.19-.59-.54-.59s-.59.25-.59.61v1.12h-.29v-1.96Z"/>
    <path class="cls-9" d="M109.4,442.41v-1.18h-.27v-.26h.27v-.59h.29v.59h.62v.26h-.62v1.14c0,.24.13.33.33.33.1,0,.18-.02.28-.07v.25c-.1.06-.21.08-.35.08-.32,0-.55-.16-.55-.55Z"/>
    <path class="cls-9" d="M110.83,440.97h.29v.51c.14-.33.43-.56.8-.54v.31h-.02c-.43,0-.78.31-.78.9v.78h-.29v-1.96Z"/>
    <path class="cls-9" d="M112.11,442.36h0c0-.42.34-.64.84-.64.25,0,.42.03.6.08v-.07c0-.35-.22-.53-.58-.53-.23,0-.41.06-.59.14l-.09-.24c.22-.1.42-.16.71-.16s.49.07.63.22c.13.13.2.33.2.57v1.2h-.28v-.29c-.14.18-.36.34-.71.34s-.73-.2-.73-.61ZM113.56,442.21v-.19c-.15-.04-.33-.08-.58-.08-.37,0-.57.16-.57.41h0c0,.25.23.4.49.4.36,0,.65-.22.65-.53Z"/>
    <path class="cls-9" d="M114.34,441.96h0c0-.64.47-1.03.93-1.03.36,0,.6.19.75.42v-1.18h.29v2.76h-.29v-.39c-.16.24-.39.44-.75.44-.47,0-.93-.37-.93-1.01ZM116.03,441.95h0c0-.46-.34-.76-.71-.76s-.69.28-.69.75h0c0,.47.31.76.69.76s.71-.31.71-.76Z"/>
    <path class="cls-9" d="M116.81,442.36h0c0-.42.34-.64.84-.64.25,0,.42.03.6.08v-.07c0-.35-.22-.53-.58-.53-.23,0-.41.06-.59.14l-.09-.24c.22-.1.42-.16.71-.16s.49.07.63.22c.13.13.2.33.2.57v1.2h-.28v-.29c-.14.18-.36.34-.71.34s-.73-.2-.73-.61ZM118.25,442.21v-.19c-.15-.04-.33-.08-.58-.08-.37,0-.57.16-.57.41h0c0,.25.23.4.49.4.36,0,.65-.22.65-.53Z"/>
    <path class="cls-9" d="M120.16,441.96h0c0-.56.43-1.03,1-1.03.37,0,.6.15.78.35l-.19.2c-.16-.16-.33-.29-.59-.29-.4,0-.7.33-.7.76h0c0,.43.31.77.72.77.25,0,.44-.12.6-.29l.19.17c-.2.22-.43.38-.8.38-.58,0-1-.47-1-1.01Z"/>
    <path class="cls-9" d="M122.26,441.96h0c0-.56.43-1.03,1.02-1.03s1.02.46,1.02,1.01h0c0,.56-.44,1.03-1.03,1.03s-1.01-.46-1.01-1.01ZM124,441.96h0c0-.43-.31-.77-.73-.77s-.72.34-.72.76h0c0,.43.31.77.72.77s.72-.34.72-.75Z"/>
    <path class="cls-9" d="M124.82,440.97h.29v.34c.13-.21.33-.38.67-.38.47,0,.75.32.75.78v1.21h-.29v-1.14c0-.36-.19-.59-.54-.59s-.59.25-.59.61v1.12h-.29v-1.96Z"/>
    <path class="cls-9" d="M127.02,441.96h0c0-.57.39-1.03.94-1.03.58,0,.91.46.91,1.03,0,.04,0,.06,0,.09h-1.55c.04.42.34.66.69.66.27,0,.45-.11.62-.28l.18.16c-.2.22-.43.37-.81.37-.53,0-.98-.41-.98-1.02ZM128.58,441.84c-.03-.35-.23-.67-.62-.67-.34,0-.59.29-.64.67h1.26Z"/>
    <path class="cls-9" d="M130.03,441.74l.58-.76h.33l-.74.96.77,1h-.34l-.61-.81-.61.81h-.33l.76-1-.73-.96h.33l.58.76Z"/>
    <path class="cls-9" d="M131.23,442.36h0c0-.42.34-.64.84-.64.25,0,.42.03.6.08v-.07c0-.35-.22-.53-.58-.53-.23,0-.41.06-.59.14l-.09-.24c.22-.1.42-.16.71-.16s.49.07.63.22c.13.13.2.33.2.57v1.2h-.28v-.29c-.14.18-.36.34-.71.34s-.73-.2-.73-.61ZM132.67,442.21v-.19c-.15-.04-.33-.08-.58-.08-.37,0-.57.16-.57.41h0c0,.25.23.4.49.4.36,0,.65-.22.65-.53ZM132.15,440.6c-.09-.03-.17-.07-.23-.07-.1,0-.14.05-.2.19l-.18-.05c.08-.29.18-.4.36-.4.09,0,.18.03.27.08.09.04.17.08.23.08.1,0,.14-.05.2-.19l.18.05c-.08.29-.18.4-.36.4-.09,0-.18-.04-.27-.08Z"/>
    <path class="cls-9" d="M133.44,441.96h0c0-.56.43-1.03,1.02-1.03s1.02.46,1.02,1.01h0c0,.56-.44,1.03-1.03,1.03s-1.01-.46-1.01-1.01ZM135.18,441.96h0c0-.43-.31-.77-.73-.77s-.71.34-.71.76h0c0,.43.31.77.72.77s.72-.34.72-.75Z"/>
    <path class="cls-9" d="M135.99,440.97h.35v.4h-.35v-.4ZM135.99,442.53h.35v.4h-.35v-.4Z"/>
    <path class="cls-9" d="M105.18,445.09h-.89v-.28h2.08v.28h-.89v2.37h-.3v-2.37Z"/>
    <path class="cls-9" d="M106.28,446.49h0c0-.57.39-1.03.94-1.03.58,0,.91.46.91,1.03,0,.04,0,.06,0,.09h-1.55c.04.42.34.66.69.66.27,0,.45-.11.62-.28l.18.16c-.2.22-.43.37-.81.37-.53,0-.98-.41-.98-1.02ZM107.83,446.38c-.03-.35-.23-.67-.62-.67-.34,0-.59.29-.64.67h1.26Z"/>
    <path class="cls-9" d="M108.64,445.5h.29v.33c.13-.2.3-.37.63-.37s.52.17.63.39c.14-.22.34-.39.69-.39.45,0,.73.3.73.79v1.21h-.29v-1.14c0-.38-.19-.59-.51-.59-.29,0-.54.22-.54.61v1.13h-.29v-1.15c0-.37-.19-.58-.5-.58s-.54.26-.54.62v1.12h-.29v-1.96Z"/>
    <path class="cls-9" d="M112.22,445.5h.29v.39c.16-.23.39-.43.75-.43.47,0,.93.37.93,1.01h0c0,.64-.46,1.03-.93,1.03-.36,0-.6-.19-.75-.42v.98h-.29v-2.56ZM113.89,446.49h0c0-.47-.31-.76-.69-.76s-.71.31-.71.75h0c0,.46.34.76.71.76s.69-.28.69-.75Z"/>
    <path class="cls-9" d="M114.75,444.7h.29v2.76h-.29v-2.76Z"/>
    <path class="cls-9" d="M115.6,446.49h0c0-.56.43-1.03,1.02-1.03s1.02.46,1.02,1.01h0c0,.56-.44,1.03-1.03,1.03s-1.01-.46-1.01-1.01ZM117.34,446.49h0c0-.43-.31-.77-.73-.77s-.71.34-.71.76h0c0,.43.31.77.72.77s.72-.34.72-.75Z"/>
    <path class="cls-9" d="M120.64,444.44h.27l-1.76,3.5h-.27l1.76-3.5Z"/>
    <path class="cls-9" d="M122.13,447.03l.22-.19c.16.25.33.38.61.38.3,0,.52-.22.52-.64v-1.78h.3v1.77c0,.31-.09.54-.24.7-.15.15-.34.22-.58.22-.4,0-.65-.2-.82-.47Z"/>
    <path class="cls-9" d="M124.28,446.89h0c0-.42.34-.64.84-.64.25,0,.42.03.6.08v-.07c0-.35-.22-.53-.58-.53-.23,0-.41.06-.59.14l-.09-.24c.22-.1.42-.16.71-.16s.49.07.63.22c.13.13.2.33.2.57v1.2h-.28v-.29c-.14.18-.36.34-.71.34s-.73-.2-.73-.61ZM125.73,446.74v-.19c-.15-.04-.33-.08-.58-.08-.37,0-.57.16-.57.4h0c0,.25.23.4.49.4.36,0,.65-.22.65-.53Z"/>
    <path class="cls-9" d="M126.62,445.5h.29v.51c.14-.33.43-.56.8-.54v.31h-.02c-.43,0-.78.31-.78.9v.78h-.29v-1.96Z"/>
    <path class="cls-9" d="M127.96,446.49h0c0-.64.47-1.03.93-1.03.36,0,.6.19.75.42v-1.18h.29v2.76h-.29v-.39c-.16.23-.39.43-.75.43-.47,0-.93-.37-.93-1.01ZM129.65,446.49h0c0-.46-.34-.76-.71-.76s-.69.28-.69.75h0c0,.47.31.76.69.76s.71-.31.71-.76Z"/>
    <path class="cls-9" d="M130.58,444.76h.33v.32h-.33v-.32ZM130.6,445.5h.29v1.96h-.29v-1.96Z"/>
    <path class="cls-9" d="M131.57,445.5h.29v.33c.13-.2.3-.37.63-.37s.52.17.63.39c.14-.22.34-.39.69-.39.45,0,.73.3.73.79v1.21h-.29v-1.14c0-.38-.19-.59-.51-.59-.29,0-.54.22-.54.61v1.13h-.29v-1.15c0-.37-.19-.58-.5-.58s-.54.26-.54.62v1.12h-.29v-1.96Z"/>
  </g>
  <text class="cls-19" transform="translate(3.21 363.05) rotate(-90)"><tspan x="0" y="0">Ent</tspan><tspan class="cls-57" x="6.38" y="0">r</tspan><tspan class="cls-111" x="7.82" y="0">ada e Saída / E</tspan><tspan class="cls-36" x="36.21" y="0">s</tspan><tspan class="cls-37" x="38.05" y="0">tacionamen</tspan><tspan class="cls-83" x="60.01" y="0">t</tspan><tspan x="61.48" y="0">o - </tspan><tspan class="cls-52" x="67.73" y="0">A</tspan><tspan class="cls-35" x="70.48" y="0">v</tspan><tspan x="72.37" y="0">. B</tspan><tspan class="cls-71" x="77.16" y="0">a</tspan><tspan class="cls-83" x="79.32" y="0">t</tspan><tspan x="80.79" y="0">el</tspan></text>
  <polygon class="cls-9" points="14.47 288.27 8.82 291.88 8.82 292.68 14.47 295.95 14.47 293 31.13 293 31.13 291.23 14.47 291.23 14.47 288.27"/>
  <polygon class="cls-9" points="28 342.6 33.66 338.99 33.66 338.19 28 334.92 28 337.87 11.34 337.87 11.34 339.64 28 339.64 28 342.6"/>
  <text class="cls-18" transform="translate(679.58 494.05)"><tspan x="0" y="0">Banhei</tspan><tspan class="cls-43" x="7.45" y="0">r</tspan><tspan x="8.29" y="0">o</tspan><tspan class="cls-87" x="0" y="2.64">F</tspan><tspan x="1.41" y="2.64">eminino</tspan></text>
  <text class="cls-18" transform="translate(781.62 494.44)"><tspan x="0" y="0">Banhei</tspan><tspan class="cls-43" x="7.45" y="0">r</tspan><tspan x="8.29" y="0">o</tspan><tspan x="0" y="2.64">Mas</tspan><tspan class="cls-122" x="4.28" y="2.64">c</tspan><tspan x="5.52" y="2.64">ulino</tspan></text>
  <text class="cls-11" transform="translate(692.44 293.36) scale(.94 1)"><tspan x="0" y="0">E</tspan><tspan class="cls-49" x="2.7" y="0">s</tspan><tspan class="cls-58" x="4.67" y="0">tacionamen</tspan><tspan class="cls-97" x="28.11" y="0">t</tspan><tspan class="cls-58" x="29.68" y="0">o </tspan><tspan class="cls-59" x="33.5" y="0">C</tspan><tspan class="cls-58" x="36.45" y="0">o</tspan><tspan class="cls-86" x="39.05" y="0">n</tspan><tspan class="cls-78" x="41.45" y="0">v</tspan><tspan x="43.7" y="0">eniado PIB Curitiba</tspan></text>
  <text class="cls-19" transform="translate(22.41 434.74)"><tspan x="0" y="0">Ent</tspan><tspan class="cls-101" x="6.38" y="0">r</tspan><tspan x="7.82" y="0">ada pa</tspan><tspan class="cls-57" x="20.53" y="0">r</tspan><tspan x="21.96" y="0">a </tspan><tspan class="cls-74" x="25.28" y="0">P</tspan><tspan class="cls-50" x="27.79" y="0">ede</tspan><tspan class="cls-29" x="34.77" y="0">s</tspan><tspan x="36.61" y="0">t</tspan><tspan class="cls-103" x="38.14" y="0">r</tspan><tspan class="cls-50" x="39.58" y="0">es </tspan><tspan class="cls-74" x="44.83" y="0">0</tspan><tspan x="47.52" y="0">1 </tspan><tspan class="cls-33" x="50" y="0">A</tspan><tspan class="cls-110" x="52.75" y="0">v</tspan><tspan x="54.64" y="0">. B</tspan><tspan class="cls-74" x="59.43" y="0">a</tspan><tspan class="cls-80" x="61.59" y="0">t</tspan><tspan class="cls-50" x="63.06" y="0">el</tspan></text>
  <text class="cls-25" transform="translate(268.23 489.78)"><tspan x="0" y="0">Ent</tspan><tspan class="cls-120" x="5.54" y="0">r</tspan><tspan class="cls-70" x="6.78" y="0">ada </tspan><tspan class="cls-60" x="13.74" y="0">0</tspan><tspan class="cls-31" x="16.06" y="0">1 </tspan><tspan x="0" y="3.93">Principal</tspan><tspan class="cls-48" x="0" y="7.86">T</tspan><tspan class="cls-70" x="1.7" y="7.86">emplo</tspan></text>
  <text class="cls-25" transform="translate(417.45 489.11)"><tspan x="0" y="0">Ent</tspan><tspan class="cls-120" x="5.54" y="0">r</tspan><tspan class="cls-70" x="6.78" y="0">ada </tspan><tspan class="cls-3" x="13.74" y="0">0</tspan><tspan x="16.05" y="0">2 </tspan><tspan x="0" y="3.93">Principal</tspan><tspan class="cls-48" x="0" y="7.86">T</tspan><tspan class="cls-70" x="1.7" y="7.86">emplo</tspan></text>
  <text class="cls-19" transform="translate(22.5 455.24)"><tspan x="0" y="0">Ent</tspan><tspan class="cls-101" x="6.38" y="0">r</tspan><tspan x="7.82" y="0">ada pa</tspan><tspan class="cls-57" x="20.53" y="0">r</tspan><tspan x="21.96" y="0">a </tspan><tspan class="cls-74" x="25.28" y="0">P</tspan><tspan class="cls-50" x="27.79" y="0">ede</tspan><tspan class="cls-29" x="34.77" y="0">s</tspan><tspan x="36.61" y="0">t</tspan><tspan class="cls-103" x="38.14" y="0">r</tspan><tspan class="cls-50" x="39.58" y="0">es </tspan><tspan class="cls-67" x="44.83" y="0">0</tspan><tspan x="47.5" y="0">2 </tspan><tspan class="cls-99" x="50.89" y="0">A</tspan><tspan class="cls-88" x="53.64" y="0">v</tspan><tspan x="55.54" y="0">. B</tspan><tspan class="cls-74" x="60.32" y="0">a</tspan><tspan class="cls-80" x="62.48" y="0">t</tspan><tspan x="63.95" y="0">el</tspan></text>
  <text class="cls-19" transform="translate(362.99 437.49)"><tspan class="cls-80" x="0" y="0">F</tspan><tspan class="cls-50" x="2.42" y="0">on</tspan><tspan class="cls-80" x="7.19" y="0">t</tspan><tspan x="8.66" y="0">e</tspan></text>
  <polygon class="cls-9" points="16.92 461.2 18.56 460.14 18.56 459.91 16.92 458.95 16.92 459.82 12.09 459.82 12.09 460.33 16.92 460.33 16.92 461.2"/>
  <text class="cls-18" transform="translate(131.81 782.14)"><tspan x="0" y="0">Banhei</tspan><tspan class="cls-43" x="7.45" y="0">r</tspan><tspan x="8.29" y="0">o</tspan><tspan class="cls-87" x="0" y="2.64">F</tspan><tspan x="1.41" y="2.64">eminino</tspan></text>
  <text class="cls-18" transform="translate(147.06 781.9)"><tspan x="0" y="0">Banhei</tspan><tspan class="cls-43" x="7.45" y="0">r</tspan><tspan x="8.29" y="0">o</tspan><tspan x="0" y="2.64">Mas</tspan><tspan class="cls-122" x="4.28" y="2.64">c</tspan><tspan x="5.52" y="2.64">ulino</tspan></text>
  <text class="cls-19" transform="translate(905.57 414.67)"><tspan x="0" y="0">Á</tspan><tspan class="cls-56" x="2.98" y="0">r</tspan><tspan x="4.43" y="0">ea Kids</tspan></text>
  <polygon class="cls-9" points="17.47 438.18 19.11 437.12 19.11 436.89 17.47 435.93 17.47 436.8 12.64 436.8 12.64 437.31 17.47 437.31 17.47 438.18"/>
  <text class="cls-16" transform="translate(209.37 413.9)"><tspan x="0" y="0">Espa</tspan><tspan class="cls-39" x="7.84" y="0">ç</tspan><tspan x="9.65" y="0">o </tspan><tspan class="cls-92" x="12.72" y="0">A</tspan><tspan class="cls-39" x="15.21" y="0">c</tspan><tspan x="17.02" y="0">olher / CEARA</tspan></text>
  <text class="cls-6" transform="translate(584.42 488.98) scale(.89 1)"><tspan x="0" y="0">A</tspan><tspan class="cls-119" x="2.94" y="0">B</tspan><tspan class="cls-98" x="5.6" y="0">A</tspan><tspan x="8.49" y="0">SC - </tspan><tspan class="cls-93" x="17.4" y="0">A</tspan><tspan x="20.25" y="0">ção Social</tspan></text>
  <text class="cls-18" transform="translate(657.46 504.95)"><tspan x="0" y="0">El</tspan><tspan class="cls-104" x="2.05" y="0">ev</tspan><tspan x="4.53" y="0">ador</tspan><tspan x="0" y="2.64">Ginásio</tspan></text>
  <text class="cls-4" transform="translate(339.59 748.51)"><tspan x="0" y="0">B</tspan><tspan class="cls-47" x="3.42" y="0">a</tspan><tspan x="6.15" y="0">ti</tspan><tspan class="cls-117" x="9.31" y="0">s</tspan><tspan class="cls-115" x="11.63" y="0">t</tspan><tspan x="13.47" y="0">ério</tspan></text>
  <g>
    <path class="cls-9" d="M436.22,745.76h1.04v.14h-.88v.46h.79v.14h-.79v.47h.89v.14h-1.05v-1.33Z"/>
    <path class="cls-9" d="M437.57,746.11h.16v.17c.07-.11.18-.19.36-.19.26,0,.41.16.41.39v.61h-.16v-.58c0-.18-.1-.3-.29-.3s-.32.12-.32.31v.56h-.16v-.99Z"/>
    <path class="cls-9" d="M438.9,746.83v-.59h-.15v-.13h.15v-.3h.16v.3h.34v.13h-.34v.58c0,.12.07.16.18.16.06,0,.1,0,.15-.03v.13c-.06.03-.12.04-.19.04-.17,0-.3-.08-.3-.28Z"/>
    <path class="cls-9" d="M439.68,746.11h.16v.26c.08-.16.23-.28.43-.27v.16h-.01c-.23,0-.42.15-.42.45v.39h-.16v-.99Z"/>
    <path class="cls-9" d="M440.38,746.81h0c0-.21.19-.32.46-.32.14,0,.23.02.33.04v-.03c0-.18-.12-.27-.32-.27-.13,0-.22.03-.32.07l-.05-.12c.12-.05.23-.08.39-.08s.27.04.34.11c.07.07.11.16.11.29v.6h-.15v-.15c-.07.09-.2.17-.39.17s-.4-.1-.4-.31ZM441.16,746.73v-.1c-.08-.02-.18-.04-.31-.04-.2,0-.31.08-.31.2h0c0,.13.13.2.27.2.2,0,.36-.11.36-.27Z"/>
    <path class="cls-9" d="M441.59,746.6h0c0-.32.25-.52.51-.52.2,0,.33.1.41.21v-.6h.16v1.39h-.16v-.2c-.09.12-.21.22-.41.22-.26,0-.51-.19-.51-.51ZM442.51,746.6h0c0-.23-.19-.38-.39-.38s-.37.14-.37.38h0c0,.24.17.39.37.39s.39-.15.39-.38Z"/>
    <path class="cls-9" d="M442.94,746.81h0c0-.21.19-.32.46-.32.14,0,.23.02.33.04v-.03c0-.18-.12-.27-.32-.27-.13,0-.22.03-.32.07l-.05-.12c.12-.05.23-.08.39-.08s.27.04.34.11c.07.07.11.16.11.29v.6h-.15v-.15c-.07.09-.2.17-.38.17s-.4-.1-.4-.31ZM443.73,746.73v-.1c-.08-.02-.18-.04-.31-.04-.2,0-.31.08-.31.2h0c0,.13.13.2.27.2.2,0,.36-.11.36-.27Z"/>
    <path class="cls-9" d="M436.22,748.05h.15l.91,1.07v-1.07h.16v1.33h-.13l-.93-1.09v1.09h-.16v-1.33Z"/>
    <path class="cls-9" d="M437.74,749.1h0c0-.21.19-.32.46-.32.14,0,.23.02.33.04v-.03c0-.18-.12-.27-.32-.27-.13,0-.22.03-.32.07l-.05-.12c.12-.05.23-.08.39-.08s.27.04.34.11c.07.07.11.16.11.29v.6h-.15v-.15c-.07.09-.2.17-.39.17s-.4-.1-.4-.31ZM438.52,749.03v-.1c-.08-.02-.18-.04-.31-.04-.2,0-.31.08-.31.2h0c0,.13.13.2.27.2.2,0,.36-.11.36-.27Z"/>
    <path class="cls-9" d="M439.01,748.4h.16v.26c.08-.16.23-.28.43-.27v.16h-.01c-.23,0-.42.15-.42.45v.39h-.16v-.99Z"/>
    <path class="cls-9" d="M439.85,748.4h.16v.17c.07-.11.18-.19.36-.19.26,0,.41.16.41.39v.61h-.16v-.58c0-.18-.1-.3-.29-.3s-.32.12-.32.31v.56h-.16v-.99Z"/>
    <path class="cls-9" d="M441.12,748.02h.18v.16h-.18v-.16ZM441.13,748.4h.16v.99h-.16v-.99Z"/>
    <path class="cls-9" d="M441.58,749.1h0c0-.21.19-.32.46-.32.14,0,.23.02.33.04v-.03c0-.18-.12-.27-.32-.27-.13,0-.22.03-.32.07l-.05-.12c.12-.05.23-.08.39-.08s.27.04.34.11c.07.07.11.16.11.29v.6h-.15v-.15c-.07.09-.2.17-.39.17s-.4-.1-.4-.31ZM442.37,749.03v-.1c-.08-.02-.18-.04-.31-.04-.2,0-.31.08-.31.2h0c0,.13.13.2.27.2.2,0,.36-.11.36-.27Z"/>
    <path class="cls-9" d="M443.5,748.05h.61c.16,0,.29.04.38.12.06.06.09.13.09.21h0c0,.18-.12.27-.23.31.17.05.31.14.31.32h0c0,.23-.21.37-.52.37h-.64v-1.33ZM444.42,748.41c0-.13-.11-.22-.32-.22h-.44v.46h.43c.2,0,.33-.08.33-.24h0ZM444.5,749.01c0-.14-.13-.23-.38-.23h-.46v.47h.48c.22,0,.35-.09.35-.24h0Z"/>
    <path class="cls-9" d="M444.91,748.72h0c0-.38.24-.69.61-.69s.61.31.61.69h0c0,.38-.24.69-.61.69s-.61-.31-.61-.69ZM445.96,748.72h0c0-.29-.17-.56-.44-.56s-.44.26-.44.55h0c0,.29.17.56.44.56s.44-.26.44-.55Z"/>
    <path class="cls-9" d="M446.34,749.27l.52-.43c.22-.18.3-.29.3-.42,0-.16-.13-.26-.29-.26-.16,0-.27.08-.39.23l-.12-.08c.13-.18.26-.28.52-.28s.45.16.45.38h0c0,.2-.11.32-.36.52l-.39.32h.76v.14h-1.01v-.12Z"/>
  </g>
  <text class="cls-19" transform="translate(3.21 266.51) rotate(-90)"><tspan x="0" y="0">Ent</tspan><tspan class="cls-57" x="6.38" y="0">r</tspan><tspan class="cls-111" x="7.82" y="0">ada e Saída </tspan><tspan x="0" y="4.53">pa</tspan><tspan class="cls-57" x="4.7" y="4.53">r</tspan><tspan class="cls-111" x="6.13" y="4.53">a pede</tspan><tspan class="cls-67" x="18.94" y="4.53">s</tspan><tspan x="20.78" y="4.53">t</tspan><tspan class="cls-56" x="22.31" y="4.53">r</tspan><tspan x="23.75" y="4.53">e - </tspan><tspan class="cls-99" x="29.8" y="4.53">A</tspan><tspan class="cls-110" x="32.54" y="4.53">v</tspan><tspan x="34.44" y="4.53">. B</tspan><tspan class="cls-71" x="39.22" y="4.53">a</tspan><tspan class="cls-83" x="41.39" y="4.53">t</tspan><tspan x="42.86" y="4.53">el</tspan></text>
</svg>