<?xml version="1.0" encoding="UTF-8"?>
<svg xmlns="http://www.w3.org/2000/svg" xmlns:xlink="http://www.w3.org/1999/xlink" viewBox="15 385 1145 360">
  <defs>
    <style>
      .cls-1 {
        letter-spacing: -.02em;
      }

      .cls-2 {
        fill: #fff;
      }

      .cls-3 {
        fill: #193124;
      }

      .cls-4 {
        fill: #fffef5;
      }

      .cls-5 {
        font-size: 3.43px;
      }

      .cls-5, .cls-6 {
        fill: #1d1d1b;
        font-family: Gotham-Book, Gotham;
      }

      .cls-7 {
        letter-spacing: -.02em;
      }

      .cls-6 {
        font-size: 4.9px;
      }

      .cls-8 {
        fill: #661c1c;
      }

      .cls-9 {
        letter-spacing: 0em;
      }

      .cls-10 {
        letter-spacing: -.02em;
      }
    </style>
    <symbol id="ADM_1_Andar" data-name="ADM 1°Andar" viewBox="0 0 705.04 205.98">
      <g>
        <g>
          <rect class="cls-8" x=".15" y="12.62" width="9.47" height="193.08"/>
          <polygon class="cls-8" points="1.21 20.74 1.21 12.62 259.05 12.62 259.05 20.74 1.21 20.74"/>
          <polygon class="cls-8" points="256.23 8.25 256.23 .13 462.67 .13 462.67 8.25 256.23 8.25"/>
          <rect class="cls-8" x="251.1" width="8.14" height="98.59"/>
          <polygon class="cls-8" points="243.96 98.58 243.96 93.7 294.22 93.7 294.22 98.58 243.96 98.58"/>
          <polygon class="cls-8" points="255.51 67.8 255.51 64.23 293.74 64.23 293.74 67.8 255.51 67.8"/>
          <polygon class="cls-8" points="255.18 38.96 255.18 35.38 292.74 35.38 292.74 38.96 255.18 38.96"/>
          <polygon class="cls-8" points="293.98 45.27 290.39 45.27 290.39 29.07 293.98 29.07 293.98 45.27"/>
          <polygon class="cls-8" points="293.98 74.12 290.39 74.12 290.39 57.91 293.98 57.91 293.98 74.12"/>
          <polygon class="cls-8" points="293.98 17.69 290.39 17.69 290.39 1.48 293.98 1.48 293.98 17.69"/>
          <polygon class="cls-8" points="294.28 98.46 290.69 98.46 290.69 82.25 294.28 82.25 294.28 98.46"/>
          <rect class="cls-8" x="437.13" y=".42" width="8.14" height="98.91"/>
          <polygon class="cls-8" points="521.11 185.21 515.72 185.21 515.72 122.25 521.11 122.25 521.11 185.21"/>
          <polygon class="cls-8" points="373.01 70.12 367.61 70.12 367.61 7.72 373.01 7.72 373.01 70.12"/>
          <polygon class="cls-8" points="390.39 70.12 384.99 70.12 384.99 7.72 390.39 7.72 390.39 70.12"/>
          <polygon class="cls-8" points="455.48 20.67 455.48 12.55 702.49 12.55 702.49 20.67 455.48 20.67"/>
          <polygon class="cls-8" points="705.04 205.52 697.71 205.52 697.71 12.47 705.04 12.47 705.04 205.52"/>
          <polygon class="cls-8" points="521.15 122.36 521.15 127.77 445 127.77 445 122.36 521.15 122.36"/>
          <polygon class="cls-8" points="1.56 205.98 1.56 199.5 263.42 199.5 263.42 205.98 1.56 205.98"/>
          <polygon class="cls-8" points="197.06 98.51 190.56 98.51 190.56 13.56 197.06 13.56 197.06 98.51"/>
          <polygon class="cls-8" points="160.66 82.69 154.17 82.69 154.17 16.24 160.66 16.24 160.66 82.69"/>
          <polygon class="cls-8" points="62.07 86.77 55.57 86.77 55.57 14.25 62.07 14.25 62.07 86.77"/>
          <polygon class="cls-8" points="127.87 99.18 121.37 99.18 121.37 16.87 127.87 16.87 127.87 99.18"/>
          <polygon class="cls-8" points="368.57 99.69 368.57 94.3 501.63 94.3 501.63 99.69 368.57 99.69"/>
          <polygon class="cls-8" points="372.15 97.24 368.57 97.24 368.57 81.04 372.15 81.04 372.15 97.24"/>
          <polygon class="cls-8" points="263.63 143.81 263.63 141.71 386.09 141.71 386.09 143.81 263.63 143.81"/>
          <rect class="cls-8" x="437.56" y="122.44" width="8.14" height="80.42"/>
          <rect class="cls-8" x="455.04" y=".07" width="8.14" height="20.59"/>
          <polygon class="cls-8" points="437.56 205.72 437.56 197.6 703.11 197.6 703.11 205.72 437.56 205.72"/>
          <polygon class="cls-8" points="160.52 94.39 160.52 99.31 121.3 99.31 121.3 94.39 160.52 94.39"/>
          <polygon class="cls-8" points="208.15 43.91 208.15 48.82 190.57 48.82 190.57 43.91 208.15 43.91"/>
          <polygon class="cls-8" points="258.22 96.08 258.22 103.06 262.81 103.06 262.81 96.08 258.22 96.08"/>
          <polygon class="cls-8" points="66.73 200.47 60.23 200.47 60.23 128.03 66.73 128.03 66.73 200.47"/>
          <polygon class="cls-8" points="263.26 127.06 263.26 133.56 231.85 133.56 231.85 127.06 263.26 127.06"/>
          <rect class="cls-8" x="87.08" y="110.04" width="6.49" height="94.65"/>
          <polyline class="cls-8" points="215.68 200.69 215.68 126.67 222.18 126.67 222.18 200.69"/>
          <polyline class="cls-8" points="257.63 205.18 257.19 123.85 263.68 123.85 264.12 205.18"/>
          <polygon class="cls-8" points="263.41 203.32 263.41 200.51 437.7 200.51 437.7 203.32 263.41 203.32"/>
          <polygon class="cls-8" points="386.44 195.52 383.63 195.52 383.63 139.26 386.44 139.26 386.44 195.52"/>
          <polygon class="cls-8" points="439.91 193.28 439.91 196.08 383.65 196.08 383.65 193.28 439.91 193.28"/>
          <polygon class="cls-8" points="525.04 99.91 525.04 94.52 629.49 94.52 629.49 99.91 525.04 99.91"/>
          <polygon class="cls-8" points="515.88 99.92 510.49 99.92 510.49 12.47 515.88 12.47 515.88 99.92"/>
          <polygon class="cls-8" points="580.47 99.53 575.08 99.53 575.08 12.08 580.47 12.08 580.47 99.53"/>
          <polygon class="cls-8" points="644.18 100.72 638.79 100.72 638.79 13.27 644.18 13.27 644.18 100.72"/>
          <polygon class="cls-8" points="658.67 99.98 658.67 94.59 704.89 94.59 704.89 99.98 658.67 99.98"/>
          <polygon class="cls-8" points="222.22 126.67 222.22 133.16 189.41 133.16 189.41 126.67 222.22 126.67"/>
          <polyline class="cls-8" points="164.5 200.71 164.5 126.68 170.99 126.68 170.99 200.71"/>
          <polygon class="cls-8" points="171.04 126.68 171.04 133.18 138.52 133.18 138.52 126.68 171.04 126.68"/>
          <g>
            <polyline class="cls-8" points="120.06 201.67 120.06 127.64 126.55 127.64 126.55 201.67"/>
            <polygon class="cls-8" points="126.59 127.31 126.59 133.81 101.89 133.81 101.89 127.31 126.59 127.31"/>
          </g>
          <g>
            <polyline class="cls-8" points="45.67 113.95 45.67 97.48 52.16 97.48 52.16 113.95"/>
            <polygon class="cls-8" points="52.2 97.14 52.2 103.64 6.07 103.64 6.07 97.14 52.2 97.14"/>
            <g>
              <polyline class="cls-8" points="45.42 140.65 45.42 128.47 51.91 128.47 51.91 140.65"/>
              <polygon class="cls-8" points="51.7 134.22 51.7 140.71 24.49 140.71 24.49 134.22 51.7 134.22"/>
              <polygon class="cls-8" points="16.42 134.19 16.42 140.68 0 140.68 0 134.19 16.42 134.19"/>
            </g>
          </g>
          <polygon class="cls-8" points="25.63 62.8 25.63 57.92 59.33 57.92 59.33 62.8 25.63 62.8"/>
          <polygon class="cls-8" points="225.85 62.04 225.85 58.46 253.04 58.46 253.04 62.04 225.85 62.04"/>
          <polygon class="cls-8" points="229.42 98.69 225.84 98.69 225.84 58.49 229.42 58.49 229.42 98.69"/>
          <rect class="cls-8" x="223.58" y="94.23" width="8.94" height="4.59"/>
          <polygon class="cls-8" points="109.54 83.72 109.54 88.63 46.52 88.63 46.52 83.72 109.54 83.72"/>
          <polygon class="cls-8" points="177.48 77.79 177.48 82.71 154.62 82.71 154.62 77.79 177.48 77.79"/>
          <rect class="cls-8" x="172.65" y="81.98" width="4.91" height="17.57"/>
          <rect class="cls-8" x="190.49" y="93.95" width="17.06" height="4.59"/>
          <rect class="cls-8" x="170.05" y="94.99" width="8.94" height="4.59"/>
        </g>
        <rect class="cls-8" x="403.56" y="143.85" width="16.22" height="31.78"/>
        <polygon class="cls-8" points="93.69 109.89 93.69 116.39 60 116.39 60 109.89 93.69 109.89"/>
        <rect class="cls-8" x="367.7" y="49.99" width="21.81" height="5.78"/>
      </g>
    </symbol>
  </defs>
  <g id="L01_adm_map_bacground">
    <rect class="cls-4" width="1175.11" height="1120"/>
    <use width="705.04" height="205.98" transform="translate(37.53 401.3) scale(1.57)" xlink:href="#ADM_1_Andar"/>
  </g>
  <g id="INFO">
    <g>
      <path class="cls-3" d="M685.31,470.05c.43.2.81.36,1.17.56.11.06.19.26.19.39-.01.58-.06,1.16-.1,1.75-.04.71.34,1.21.98,1.26.56.05,1.06-.38,1.12-1.04.08-.98.12-1.96.16-2.94.02-.47-.23-.78-.65-.98-.65-.31-1.28-.63-1.94-.92-.25-.11-.35-.26-.33-.53.02-.48,0-.95,0-1.53,1.1,1.34,2.58,1.03,3.92,1.17.48.05.81-.38.82-.88,0-.49-.27-.83-.75-.89-.58-.07-1.16-.15-1.74-.19-.35-.03-.62-.16-.84-.45-.56-.73-1.12-1.45-1.73-2.13-.7-.78-1.18-.83-2.04-.23-.93.65-1.84,1.32-2.72,2.03-.21.16-.36.48-.4.75-.12.97-.19,1.95-.26,2.93-.04.53.28.92.79.98.54.06.94-.22,1.01-.79.07-.58.17-1.17.12-1.74-.06-.84.41-1.23,1.1-1.56.01.17.03.31.04.45,0,1.23.1,2.47,0,3.7-.09,1.05-.41,2.08-.64,3.12-.24,1.07-.52,2.13-.77,3.2-.15.62.14,1.16.68,1.31.61.17,1.15-.14,1.32-.81.47-1.89.92-3.78,1.38-5.67.02-.08.05-.16.09-.31Z"/>
      <path class="cls-3" d="M694.99,466.13c0,.92,0,1.81,0,2.75h-2.79v2.78h-2.8v2.82h-2.78c0,1.08,0,2.1,0,3.11.45.12.77.02,1.09-.3,3.32-3.34,6.65-6.67,9.99-9.99.34-.34.51-.67.37-1.18h-3.09Z"/>
      <path class="cls-3" d="M683.53,459.89c0,1.02.78,1.79,1.8,1.79,1,0,1.8-.81,1.79-1.81,0-.97-.81-1.77-1.78-1.78-.99-.01-1.8.8-1.8,1.8Z"/>
    </g>
    <text class="cls-6" transform="translate(673.36 482.78) scale(1.08 1)"><tspan x="0" y="0">Escadas de</tspan><tspan x="0" y="5.88">eme</tspan><tspan class="cls-1" x="10.45" y="5.88">r</tspan><tspan class="cls-9" x="12.33" y="5.88">gência</tspan></text>
  </g>
  <!-- Nó oculto: porta do elevador (conexão vertical L00 ↔ L01) -->
  <g id="NODES" visibility="hidden" aria-hidden="true">
    <circle id="L01_elevador" cx="498" cy="482" r="1.5" fill="none"/>
  </g>
  <g id="POIS">
    <g id="P027_elevador_templo">
      <g>
        <rect class="cls-2" x="445.71" y="453.78" width="47.27" height="55.98" rx="1.17" ry="1.17"/>
        <path class="cls-3" d="M447.15,480.1c0-6.98,0-13.95,0-20.93,0-2.84,1.08-3.91,3.93-3.91,6.91,0,13.82,0,20.73,0,2.6,0,3.78,1.12,3.79,3.65.01,14.12.01,28.25,0,42.37,0,2.53-1.19,3.65-3.78,3.65-6.98,0-13.96,0-20.94,0-2.57,0-3.73-1.14-3.73-3.7,0-7.05,0-14.09,0-21.14ZM472.62,481.46c0-6.23,0-12.45,0-18.68,0-1.64-.49-2.11-2.18-2.11-6.08,0-12.15,0-18.23,0-1.59,0-2.13.52-2.13,2.07,0,12.45,0,24.91,0,37.36,0,1.54.55,2.06,2.14,2.06,6.04,0,12.08,0,18.12,0,1.82,0,2.27-.44,2.28-2.22,0-6.16,0-12.32,0-18.48Z"/>
        <path class="cls-3" d="M485.2,491.45c.76-.2,1.33-.47,1.89-.47.52,0,1.25.17,1.49.52.24.35.19,1.22-.1,1.53-1.44,1.56-2.99,3.03-4.54,4.5-.58.55-1.3.51-1.87-.04-1.52-1.45-3.04-2.89-4.46-4.43-.29-.32-.37-1.17-.14-1.53.23-.36.96-.55,1.48-.56.6,0,1.19.28,1.95.47,0-.93,0-1.76,0-2.59,0-1.77-.01-3.54,0-5.31,0-1.18.43-1.58,1.63-1.63.21,0,.42,0,.62,0,1.67,0,2.03.36,2.04,1.96,0,2.48,0,4.95,0,7.57Z"/>
        <path class="cls-3" d="M485.09,471.15c0,2.26,0,4.39,0,6.53,0,1.95-1.8,3-3.52,1.95-.39-.24-.67-.94-.68-1.45-.07-2.27-.03-4.55-.03-7.01-.65.16-1.19.29-1.74.42-.73.17-1.4.15-1.81-.59-.38-.69-.09-1.23.42-1.73,1.38-1.34,2.74-2.7,4.13-4.04.82-.78,1.42-.78,2.24,0,1.39,1.33,2.75,2.69,4.13,4.04.51.5.78,1.04.39,1.73-.39.69-1.03.75-1.72.59-.57-.13-1.12-.28-1.82-.46Z"/>
        <path class="cls-3" d="M464.86,485.37c0,1.43,0,2.74,0,4.05,0,3,0,5.99,0,8.99,0,.94-.27,1.07-1.67,1.09-.9.02-1.45-.16-1.45-1.1.03-3.33.01-6.67.01-10,0-.24.02-.49-.04-.73-.03-.11-.21-.26-.33-.26-.13,0-.34.13-.37.23-.06.26-.06.55-.06.82,0,3.27,0,6.54,0,9.82,0,1.1-.15,1.21-1.5,1.21-1.38,0-1.62-.16-1.62-1.23,0-4.25,0-8.5,0-12.89-.54,0-1,0-1.47,0-.75,0-1.08-.36-1.01-.99.27-2.65.53-5.3.85-7.94.19-1.51,1.21-2.28,2.92-2.3,1.46-.02,2.92-.02,4.37,0,1.87.02,2.88.86,3.04,2.49.25,2.44.51,4.87.78,7.3.14,1.25-.03,1.43-1.5,1.44-.27,0-.55,0-.96,0Z"/>
        <path class="cls-3" d="M457.91,469.71c-.02-1.88,1.49-3.39,3.4-3.4,1.96-.02,3.55,1.5,3.53,3.4-.02,1.84-1.59,3.37-3.47,3.37-1.9,0-3.44-1.5-3.46-3.37Z"/>
      </g>
    </g>
    <text class="cls-5" transform="translate(461.38 515.69) scale(.95 1)"><tspan x="0" y="0">El</tspan><tspan class="cls-7" x="3.2" y="0">ev</tspan><tspan x="7.08" y="0">ado</tspan><tspan class="cls-10" x="13.56" y="0">r</tspan><tspan x="14.88" y="0">es</tspan></text>
  </g>
</svg>