<?xml version="1.0" encoding="UTF-8"?>
<svg id="_05_edge_indoor_tech" data-name="05_edge_indoor_tech" xmlns="http://www.w3.org/2000/svg" viewBox="0 0 1011.56 862.63">
  <defs>
    <style>
      .cls-1 {
        fill: none;
        stroke: #ff9700;
        stroke-miterlimit: 10;
      }
    </style>
  </defs>
  <line class="cls-1" x1="276.9" y1="431.5" x2="276.9" y2="455.66"/>
  <line class="cls-1" x1="425.91" y1="459.65" x2="425.91" y2="478.17"/>
  <polyline class="cls-1" points="279.24 457.6 290.27 457.6 335.91 457.6"/>
  <line class="cls-1" x1="338.56" y1="454.89" x2="338.56" y2="432.7"/>
  <line class="cls-1" x1="336.69" y1="392.44" x2="328.87" y2="387.83"/>
  <line class="cls-1" x1="237.3" y1="459.94" x2="237.3" y2="474.27"/>
  <line class="cls-1" x1="338.41" y1="396.04" x2="338.41" y2="426.76"/>
  <line class="cls-1" x1="294.35" y1="429.47" x2="336.13" y2="429.47"/>
  <line class="cls-1" x1="292.19" y1="420.69" x2="292.19" y2="427.06"/>
  <line class="cls-1" x1="341" y1="457.6" x2="423.19" y2="457.74"/>
  <line class="cls-1" x1="428.41" y1="457.74" x2="463.5" y2="457.6"/>
  <line class="cls-1" x1="468.39" y1="457.6" x2="489.43" y2="457.6"/>
  <line class="cls-1" x1="494.61" y1="457.6" x2="566.64" y2="457.6"/>
  <line class="cls-1" x1="571.17" y1="457.6" x2="623" y2="457.6"/>
  <line class="cls-1" x1="628.45" y1="457.6" x2="737.83" y2="457.6"/>
  <line class="cls-1" x1="442.05" y1="445.48" x2="426.96" y2="454.86"/>
  <line class="cls-1" x1="464.95" y1="445.54" x2="428.13" y2="456.13"/>
  <line class="cls-1" x1="416.52" y1="446.61" x2="425.08" y2="454.86"/>
  <line class="cls-1" x1="394.15" y1="446.32" x2="423.45" y2="456.56"/>
  <line class="cls-1" x1="336.95" y1="427.06" x2="328.65" y2="414.57"/>
  <line class="cls-1" x1="492.02" y1="446.61" x2="492.02" y2="455.28"/>
  <line class="cls-1" x1="566.76" y1="489.69" x2="560.09" y2="489.69"/>
  <line class="cls-1" x1="568.8" y1="487.43" x2="568.8" y2="459.89"/>
  <line class="cls-1" x1="625.69" y1="454.56" x2="625.69" y2="363.81"/>
  <line class="cls-1" x1="739.72" y1="511.24" x2="739.72" y2="505.13"/>
  <line class="cls-1" x1="739.93" y1="500.09" x2="739.93" y2="481.94"/>
  <line class="cls-1" x1="697.32" y1="495.34" x2="737.17" y2="500.73"/>
  <line class="cls-1" x1="742.52" y1="500.73" x2="776.65" y2="495.34"/>
  <line class="cls-1" x1="820.61" y1="479.13" x2="858.42" y2="479.13"/>
  <line class="cls-1" x1="742.45" y1="479.13" x2="798.71" y2="479.13"/>
  <line class="cls-1" x1="819.49" y1="476.98" x2="819.49" y2="472.72"/>
  <line class="cls-1" x1="739.93" y1="476.78" x2="739.93" y2="460.56"/>
  <line class="cls-1" x1="801.06" y1="485.67" x2="801.06" y2="481.2"/>
  <line class="cls-1" x1="803.41" y1="479.13" x2="817.34" y2="479.13"/>
  <line class="cls-1" x1="208.5" y1="457.57" x2="234.95" y2="457.57"/>
  <line class="cls-1" x1="222.62" y1="429.47" x2="274.5" y2="429.47"/>
  <line class="cls-1" x1="681.29" y1="502.87" x2="736.35" y2="502.87"/>
  <line class="cls-1" x1="742.52" y1="502.87" x2="783.17" y2="502.87"/>
  <line class="cls-1" x1="466.06" y1="459.67" x2="466.06" y2="473.31"/>
  <line class="cls-1" x1="220.2" y1="420.89" x2="220.2" y2="427.06"/>
  <line class="cls-1" x1="208.06" y1="429.47" x2="218.06" y2="429.47"/>
  <line class="cls-1" x1="625.69" y1="470.06" x2="625.69" y2="459.61"/>
  <line class="cls-1" x1="276.9" y1="459.48" x2="276.9" y2="481.53"/>
  <line class="cls-1" x1="279.24" y1="429.32" x2="289.61" y2="429.32"/>
  <line class="cls-1" x1="239.43" y1="457.6" x2="274.5" y2="457.6"/>
  <line class="cls-1" x1="350.5" y1="413.77" x2="340.06" y2="427.5"/>
  <line class="cls-1" x1="349.48" y1="393.77" x2="340.57" y2="393.77"/>
  <line class="cls-1" x1="863.02" y1="479.13" x2="911.34" y2="479.13"/>
  <line class="cls-1" x1="861.72" y1="476.98" x2="911.79" y2="418.61"/>
</svg>