<?xml version="1.0" encoding="UTF-8"?>
<svg xmlns="http://www.w3.org/2000/svg" xmlns:xlink="http://www.w3.org/1999/xlink" viewBox="0 0 1011.56 862.63" version="1.1">
<defs>
    <style>
      .cls-1 {
        fill: #fff;
      }

      .cls-2 {
        fill: #e56767;
      }

      .cls-3 {
        fill: #8e8e8e;
      }

      .cls-4 {
        fill: #a0a0a0;
      }

      .cls-5 {
        fill: #ddd;
      }

      .cls-6 {
        fill: #a8a8a8;
      }

      .cls-7 {
        fill: #efefef;
      }

      .cls-8 {
        fill: #7a7a7a;
      }
    </style>
  </defs>
  <g id="_x30_2_x5F_background_x5F_estacionamento_x5F_BG" data-name="02_background_estacionamento_BG">
    <rect class="cls-7" x="531.43" y="528.2" width="462.58" height="306.95" rx="13.47" ry="13.47"/>
      <path class="cls-6" d="M829.91,697.52c.05.2.09.34.12.49.45,1.78.94,3.55,1.34,5.33.36,1.57.92,3.04,1.74,4.44,1.41,2.41.63,5.35-1.73,6.85-1.24.79-2.59,1.29-4,1.64-1.29.32-2.6.51-3.94.43-2.94-.16-5.03-2.28-4.96-5.23.04-1.7-.18-3.32-.66-4.93-.03-.09-.05-.18-.07-.28-.05-.36.13-.66.44-.73.31-.08.61.1.73.45.05.14.09.29.11.44.17,1.25.81,2.27,1.6,3.3.17-.83.33-1.62.49-2.42.01-.06-.03-.13-.05-.19-.16-.4-.37-.79-.48-1.2-.51-1.93-.99-3.87-1.48-5.81-.07-.26-.15-.55-.09-.8.09-.42-.09-.6-.45-.76-.14.62-.5,1.1-1,1.49-.07.06-.09.24-.06.35.22.89.46,1.78.68,2.66.12.49-.01.8-.38.9-.38.1-.66-.11-.79-.62-.2-.77-.39-1.54-.6-2.37-.17.12-.31.22-.45.31-.47.31-1,.25-1.38-.14-1.03-1.03-1.02-2.35-.01-3.38.1-.1.14-.34.1-.49-.36-1.46-.75-2.91-1.11-4.38-.62-2.52.48-4.92,2.78-5.97.71-.32,1.51-.48,2.27-.69,1.2-.32,2.41-.62,3.62-.91,2.99-.72,5.63.87,6.39,3.86.36,1.42.72,2.84,1.07,4.26.06.26.17.38.44.45,1.32.35,1.99,1.82,1.44,3.08-.17.39-.58.65-1.01.63-.19,0-.38-.04-.64-.07ZM817.84,687.67c.11.42.21.8.3,1.19.17.78-.14,1.57-.8,1.95-.23.14-.5.22-.76.29-.67.18-1.34.34-2.07.53l.97,3.83c3.55-3.69,7.76-4.77,12.61-3.21l-.97-3.82c-.74.19-1.42.36-2.09.53-1.24.31-2.13-.22-2.45-1.45-.08-.32-.16-.65-.25-.98l-4.49,1.14ZM831.84,707.91c-.16.33-.25.69-.48.92-.37.39-.8.76-1.25,1.04-2.22,1.37-4.66,2.01-7.26,1.99-1.17,0-2.42,0-3.15-1.25-.04.38-.06.73-.05,1.08.04,2.03,1.61,3.68,3.63,3.81,2.35.14,4.56-.39,6.66-1.41.79-.39,1.54-.85,2.02-1.62.96-1.54.83-3.05-.12-4.55ZM821.02,702.83c.27,1.06.54,2.12.8,3.18.09.37.28.49.65.4,1.56-.4,3.13-.8,4.69-1.19.36-.09.5-.27.4-.65-.54-2.11-1.08-4.21-1.6-6.32-.09-.37-.27-.49-.65-.4-1.56.4-3.13.79-4.69,1.19-.44.11-.51.23-.39.68.26,1.03.52,2.07.79,3.1ZM826.9,693.19c-3.1-1.2-7.93.11-9.91,2.52.91.72,1.81,1.45,2.73,2.16.09.07.25.08.37.06,1.73-.43,3.45-.86,5.17-1.31.11-.03.24-.13.29-.24.46-1.05.9-2.11,1.36-3.2ZM821.67,710.6c3.01.28,5.73-.41,8.28-2.01-.65-.77-1.24-1.49-1.85-2.19-.07-.08-.23-.13-.33-.1-1.83.45-3.66.92-5.5,1.39-.19.94-.38,1.89-.59,2.91ZM826.79,696.53c-.15.23-.23.49.06.8.16.18.23.46.29.71.52,2.04,1.04,4.08,1.56,6.12.04.17.12.36.08.52-.13.56.18.92.52,1.28.1.11.19.23.29.34.31.37.62.74.93,1.1.11-.73.26-1.45.1-2.11-.62-2.68-1.33-5.33-1.97-7.87-.65-.32-1.24-.6-1.86-.9ZM816.97,697.39c-.55.43-1.12.85-1.66,1.31-.46.4-.41,1.09.09,1.48.52-.41,1.06-.81,1.58-1.24.53-.44.53-1.1-.01-1.56ZM830.47,696.38c.15-.71-.06-1.21-.61-1.34-.71-.17-1.44-.27-2.15-.39-.2.66.06,1.23.65,1.36.69.15,1.39.25,2.11.37ZM826.31,687.39c-.84-.74-1.73-1.08-2.79-1.07.1.39.18.74.28,1.08.11.36.38.52.76.44.56-.13,1.11-.28,1.76-.44ZM816.69,688.08c-.91.4-1.74,1.39-1.87,2.22.59-.15,1.17-.28,1.75-.45.32-.09.46-.34.4-.67-.07-.36-.18-.71-.27-1.1Z"/>
      <g>
        <path class="cls-8" d="M367.86,411.25c.22.1.42.18.6.29.05.03.1.13.1.2,0,.3-.03.59-.05.89-.02.36.17.62.5.65.29.03.54-.19.57-.53.04-.5.06-1,.08-1.5,0-.24-.12-.4-.33-.5-.33-.16-.66-.32-.99-.47-.13-.06-.18-.13-.17-.27.01-.24,0-.49,0-.78.56.69,1.32.53,2.01.6.25.03.41-.19.42-.45,0-.25-.14-.43-.38-.46-.3-.04-.59-.07-.89-.1-.18-.01-.32-.08-.43-.23-.29-.37-.57-.74-.88-1.09-.36-.4-.61-.43-1.05-.12-.47.33-.94.68-1.39,1.04-.11.08-.19.25-.2.38-.06.5-.1,1-.13,1.5-.02.27.14.47.4.5.28.03.48-.11.52-.4.04-.3.09-.6.06-.89-.03-.43.21-.63.56-.8,0,.09.02.16.02.23,0,.63.05,1.26,0,1.89-.05.54-.21,1.07-.33,1.6-.12.55-.26,1.09-.39,1.64-.07.32.07.59.35.67.31.09.59-.07.68-.41.24-.96.47-1.93.71-2.9,0-.04.02-.08.05-.16Z"/>
        <path class="cls-8" d="M372.81,409.24v1.41h-1.42v1.42h-1.43v1.44h-1.42v1.59c.23.06.39.01.56-.15,1.7-1.71,3.4-3.41,5.11-5.11.18-.17.26-.35.19-.6h-1.58Z"/>
        <path class="cls-8" d="M366.95,406.05c0,.52.4.92.92.92.51,0,.92-.41.91-.93,0-.49-.42-.91-.91-.91-.51,0-.92.41-.92.92Z"/>
      </g>
      <g>
        <path class="cls-8" d="M464.15,486c.22.1.42.18.6.29.05.03.1.13.1.2,0,.3-.03.59-.05.89-.02.36.17.62.5.65.29.03.54-.19.57-.53.04-.5.06-1,.08-1.5,0-.24-.12-.4-.33-.5-.33-.16-.66-.32-.99-.47-.13-.06-.18-.13-.17-.27.01-.24,0-.49,0-.78.56.69,1.32.53,2.01.6.25.03.41-.19.42-.45,0-.25-.14-.43-.38-.46-.3-.04-.59-.07-.89-.1-.18-.01-.32-.08-.43-.23-.29-.37-.57-.74-.88-1.09-.36-.4-.61-.43-1.05-.12-.47.33-.94.68-1.39,1.04-.11.08-.19.25-.2.38-.06.5-.1,1-.13,1.5-.02.27.14.47.4.5.28.03.48-.11.52-.4.04-.3.09-.6.06-.89-.03-.43.21-.63.56-.8,0,.09.02.16.02.23,0,.63.05,1.26,0,1.89-.05.54-.21,1.07-.33,1.6-.12.55-.26,1.09-.39,1.64-.07.32.07.59.35.67.31.09.59-.07.68-.41.24-.96.47-1.93.71-2.9,0-.04.02-.08.05-.16Z"/>
        <path class="cls-8" d="M469.1,483.99v1.41h-1.42v1.42h-1.43v1.44h-1.42v1.59c.23.06.39.01.56-.15,1.7-1.71,3.4-3.41,5.11-5.11.18-.17.26-.35.19-.6h-1.58Z"/>
        <path class="cls-8" d="M463.24,480.81c0,.52.4.92.92.92.51,0,.92-.41.91-.93,0-.49-.42-.91-.91-.91-.51,0-.92.41-.92.92Z"/>
      </g>
      <g>
        <path class="cls-8" d="M368.3,381.75c.22.1.42.18.6.29.05.03.1.13.1.2,0,.3-.03.59-.05.89-.02.36.17.62.5.65.29.03.54-.19.57-.53.04-.5.06-1,.08-1.5,0-.24-.12-.4-.33-.5-.33-.16-.66-.32-.99-.47-.13-.06-.18-.13-.17-.27.01-.24,0-.49,0-.78.56.69,1.32.53,2.01.6.25.03.41-.19.42-.45,0-.25-.14-.43-.38-.46-.3-.04-.59-.07-.89-.1-.18-.01-.32-.08-.43-.23-.29-.37-.57-.74-.88-1.09-.36-.4-.61-.43-1.05-.12-.47.33-.94.68-1.39,1.04-.11.08-.19.25-.2.38-.06.5-.1,1-.13,1.5-.02.27.14.47.4.5.28.03.48-.11.52-.4.04-.3.09-.6.06-.89-.03-.43.21-.63.56-.8,0,.09.02.16.02.23,0,.63.05,1.26,0,1.89-.05.54-.21,1.07-.33,1.6-.12.55-.26,1.09-.39,1.64-.07.32.07.59.35.67.31.09.59-.07.68-.41.24-.96.47-1.93.71-2.9,0-.04.02-.08.05-.16Z"/>
        <path class="cls-8" d="M373.25,379.74v1.41h-1.42v1.42h-1.43v1.44h-1.42v1.59c.23.06.39.01.56-.15,1.7-1.71,3.4-3.41,5.11-5.11.18-.17.26-.35.19-.6h-1.58Z"/>
        <path class="cls-8" d="M367.4,376.55c0,.52.4.92.92.92.51,0,.92-.41.91-.93,0-.49-.42-.91-.91-.91-.51,0-.92.41-.92.92Z"/>
      </g>
      <g>
        <path class="cls-8" d="M15.58,453.65c.15.07.29.13.42.2.04.02.07.09.07.14,0,.21-.02.42-.04.62-.02.26.12.43.35.45.2.02.38-.13.4-.37.03-.35.04-.7.06-1.05,0-.17-.08-.28-.23-.35-.23-.11-.46-.23-.69-.33-.09-.04-.12-.09-.12-.19,0-.17,0-.34,0-.55.39.48.92.37,1.4.42.17.02.29-.13.29-.32,0-.18-.1-.3-.27-.32-.21-.03-.41-.05-.62-.07-.13-.01-.22-.06-.3-.16-.2-.26-.4-.52-.62-.76-.25-.28-.42-.3-.73-.08-.33.23-.66.47-.97.73-.07.06-.13.17-.14.27-.04.35-.07.7-.09,1.05-.01.19.1.33.28.35.19.02.34-.08.36-.28.03-.21.06-.42.04-.62-.02-.3.15-.44.4-.56,0,.06.01.11.01.16,0,.44.04.89,0,1.32-.03.38-.15.75-.23,1.12-.09.38-.18.76-.27,1.15-.05.22.05.42.24.47.22.06.41-.05.47-.29.17-.68.33-1.35.5-2.03,0-.03.02-.06.03-.11Z"/>
        <path class="cls-8" d="M19.05,452.25v.99h-1v1h-1v1.01h-.99v1.11c.16.04.28,0,.39-.11,1.19-1.2,2.38-2.39,3.58-3.58.12-.12.18-.24.13-.42h-1.11Z"/>
        <path class="cls-8" d="M14.95,450.02c0,.36.28.64.64.64.36,0,.64-.29.64-.65,0-.35-.29-.63-.64-.64-.35,0-.64.29-.65.64Z"/>
      </g>
      <g>
        <path class="cls-8" d="M14.21,432.77c.15.07.29.13.42.2.04.02.07.09.07.14,0,.21-.02.42-.04.62-.02.26.12.43.35.45.2.02.38-.13.4-.37.03-.35.04-.7.06-1.05,0-.17-.08-.28-.23-.35-.23-.11-.46-.23-.69-.33-.09-.04-.12-.09-.12-.19,0-.17,0-.34,0-.55.39.48.92.37,1.4.42.17.02.29-.13.29-.32,0-.18-.1-.3-.27-.32-.21-.03-.41-.05-.62-.07-.13-.01-.22-.06-.3-.16-.2-.26-.4-.52-.62-.76-.25-.28-.42-.3-.73-.08-.33.23-.66.47-.97.73-.07.06-.13.17-.14.27-.04.35-.07.7-.09,1.05-.01.19.1.33.28.35.19.02.34-.08.36-.28.03-.21.06-.42.04-.62-.02-.3.15-.44.4-.56,0,.06.01.11.01.16,0,.44.04.89,0,1.32-.03.38-.15.75-.23,1.12-.09.38-.18.76-.27,1.15-.05.22.05.42.24.47.22.06.41-.05.47-.29.17-.68.33-1.35.5-2.03,0-.03.02-.06.03-.11Z"/>
        <path class="cls-8" d="M17.68,431.36v.99h-1v1h-1v1.01h-.99v1.11c.16.04.28,0,.39-.11,1.19-1.2,2.38-2.39,3.58-3.58.12-.12.18-.24.13-.42h-1.11Z"/>
        <path class="cls-8" d="M13.57,429.13c0,.36.28.64.64.64.36,0,.64-.29.64-.65,0-.35-.29-.63-.64-.64-.35,0-.64.29-.65.64Z"/>
      </g>
      <g>
        <path class="cls-8" d="M234.78,485.81c.22.1.42.18.6.29.05.03.1.13.1.2,0,.3-.03.59-.05.89-.02.36.17.62.5.65.29.03.54-.19.57-.53.04-.5.06-1,.08-1.5,0-.24-.12-.4-.33-.5-.33-.16-.66-.32-.99-.47-.13-.06-.18-.13-.17-.27.01-.24,0-.49,0-.78.56.69,1.32.53,2.01.6.25.03.41-.19.42-.45,0-.25-.14-.43-.38-.46-.3-.04-.59-.07-.89-.1-.18-.01-.32-.08-.43-.23-.29-.37-.57-.74-.88-1.09-.36-.4-.61-.43-1.05-.12-.47.33-.94.68-1.39,1.04-.11.08-.19.25-.2.38-.06.5-.1,1-.13,1.5-.02.27.14.47.4.5.28.03.48-.11.52-.4.04-.3.09-.6.06-.89-.03-.43.21-.63.56-.8,0,.09.02.16.02.23,0,.63.05,1.26,0,1.89-.05.54-.21,1.07-.33,1.6-.12.55-.26,1.09-.39,1.64-.07.32.07.59.35.67.31.09.59-.07.68-.41.24-.96.47-1.93.71-2.9,0-.04.02-.08.05-.16Z"/>
        <path class="cls-8" d="M239.73,483.8v1.41h-1.42v1.42h-1.43v1.44h-1.42v1.59c.23.06.39.01.56-.15,1.7-1.71,3.4-3.41,5.11-5.11.18-.17.26-.35.19-.6h-1.58Z"/>
        <path class="cls-8" d="M233.87,480.61c0,.52.4.92.92.92.51,0,.92-.41.91-.93,0-.49-.42-.91-.91-.91-.51,0-.92.41-.92.92Z"/>
      </g>
      <g>
        <path class="cls-8" d="M276.83,766.21c-.26.12-.5.22-.72.34-.07.04-.12.16-.12.24,0,.36.04.71.06,1.07.03.44-.21.74-.6.78-.35.03-.65-.23-.68-.64-.05-.6-.07-1.2-.1-1.81-.01-.29.14-.48.4-.6.4-.19.79-.39,1.19-.57.15-.07.21-.16.2-.33-.01-.29,0-.59,0-.94-.67.82-1.58.63-2.41.72-.3.03-.5-.23-.5-.54,0-.3.17-.51.46-.55.35-.05.71-.09,1.07-.12.22-.02.38-.1.52-.27.34-.45.69-.89,1.06-1.31.43-.48.73-.51,1.25-.14.57.4,1.13.81,1.67,1.25.13.1.22.3.24.46.07.6.11,1.2.16,1.8.02.33-.17.56-.48.6-.33.04-.58-.14-.62-.48-.05-.35-.1-.72-.08-1.07.04-.52-.25-.75-.68-.96,0,.1-.02.19-.02.27,0,.76-.06,1.52,0,2.27.06.64.25,1.28.39,1.91.15.66.32,1.31.47,1.96.09.38-.09.71-.42.8-.37.1-.71-.08-.81-.5-.29-1.16-.57-2.32-.85-3.48-.01-.05-.03-.1-.06-.19Z"/>
        <path class="cls-8" d="M270.89,763.8v1.69h1.71v1.71h1.72v1.73h1.7v1.91c-.28.08-.47.01-.67-.19-2.04-2.05-4.08-4.09-6.13-6.13-.21-.21-.31-.41-.23-.72h1.9Z"/>
        <path class="cls-8" d="M277.92,759.97c0,.62-.48,1.1-1.1,1.1-.61,0-1.1-.5-1.1-1.11,0-.59.5-1.09,1.09-1.09.61,0,1.1.49,1.11,1.11Z"/>
      </g>
      <g>
        <path class="cls-8" d="M490.64,714.23c.26.12.5.22.72.34.07.04.12.16.12.24,0,.36-.04.71-.06,1.07-.03.44.21.74.6.78.35.03.65-.23.68-.64.05-.6.07-1.2.1-1.81.01-.29-.14-.48-.4-.6-.4-.19-.79-.39-1.19-.57-.15-.07-.21-.16-.2-.33.01-.29,0-.59,0-.94.67.82,1.58.63,2.41.72.3.03.5-.23.5-.54,0-.3-.17-.51-.46-.55-.35-.05-.71-.09-1.07-.12-.22-.02-.38-.1-.52-.27-.34-.45-.69-.89-1.06-1.31-.43-.48-.73-.51-1.25-.14-.57.4-1.13.81-1.67,1.25-.13.1-.22.3-.24.46-.07.6-.11,1.2-.16,1.8-.02.33.17.56.48.6.33.04.58-.14.62-.48.05-.35.1-.72.08-1.07-.04-.52.25-.75.68-.96,0,.1.02.19.02.27,0,.76.06,1.52,0,2.27-.06.64-.25,1.28-.39,1.91-.15.66-.32,1.31-.47,1.96-.09.38.09.71.42.8.37.1.71-.08.81-.5.29-1.16.57-2.32.85-3.48.01-.05.03-.1.06-.19Z"/>
        <path class="cls-8" d="M496.58,711.82v1.69h-1.71v1.71h-1.72v1.73h-1.7v1.91c.28.08.47.01.67-.19,2.04-2.05,4.08-4.09,6.13-6.13.21-.21.31-.41.23-.72h-1.9Z"/>
        <path class="cls-8" d="M489.55,708c0,.62.48,1.1,1.1,1.1.61,0,1.1-.5,1.1-1.11,0-.59-.5-1.09-1.09-1.09-.61,0-1.1.49-1.11,1.11Z"/>
      </g>
      <g>
        <path class="cls-8" d="M188.34,664.61c.15.07.29.13.42.2.04.02.07.09.07.14,0,.21-.02.42-.04.62-.02.26.12.43.35.45.2.02.38-.13.4-.37.03-.35.04-.7.06-1.05,0-.17-.08-.28-.23-.35-.23-.11-.46-.23-.69-.33-.09-.04-.12-.09-.12-.19,0-.17,0-.34,0-.55.39.48.92.37,1.4.42.17.02.29-.13.29-.32,0-.18-.1-.3-.27-.32-.21-.03-.41-.05-.62-.07-.13-.01-.22-.06-.3-.16-.2-.26-.4-.52-.62-.76-.25-.28-.42-.3-.73-.08-.33.23-.66.47-.97.73-.07.06-.13.17-.14.27-.04.35-.07.7-.09,1.05-.01.19.1.33.28.35.19.02.34-.08.36-.28.03-.21.06-.42.04-.62-.02-.3.15-.44.4-.56,0,.06.01.11.01.16,0,.44.04.89,0,1.32-.03.38-.15.75-.23,1.12-.09.38-.18.76-.27,1.15-.05.22.05.42.24.47.22.06.41-.05.47-.29.17-.68.33-1.35.5-2.03,0-.03.02-.06.03-.11Z"/>
        <path class="cls-8" d="M191.81,663.2v.99h-1v1h-1v1.01h-.99v1.11c.16.04.28,0,.39-.11,1.19-1.2,2.38-2.39,3.58-3.58.12-.12.18-.24.13-.42h-1.11Z"/>
        <path class="cls-8" d="M187.7,660.97c0,.36.28.64.64.64.36,0,.64-.29.64-.65,0-.35-.29-.63-.64-.64-.35,0-.64.29-.65.64Z"/>
      </g>
      <g>
        <path class="cls-8" d="M787.5,503.5c.15.07.29.13.42.2.04.02.07.09.07.14,0,.21-.02.42-.04.62-.02.25.12.43.35.45.2.02.38-.13.4-.37.03-.35.04-.7.06-1.05,0-.17-.08-.28-.23-.35-.23-.11-.46-.22-.69-.33-.09-.04-.12-.09-.12-.19,0-.17,0-.34,0-.55.39.48.92.37,1.4.42.17.02.29-.13.29-.31,0-.18-.1-.3-.27-.32-.21-.03-.41-.05-.62-.07-.13-.01-.22-.06-.3-.16-.2-.26-.4-.52-.62-.76-.25-.28-.42-.3-.73-.08-.33.23-.66.47-.97.72-.07.06-.13.17-.14.27-.04.35-.07.7-.09,1.05-.01.19.1.33.28.35.19.02.34-.08.36-.28.03-.21.06-.42.04-.62-.02-.3.15-.44.4-.56,0,.06.01.11.01.16,0,.44.04.88,0,1.32-.03.38-.15.74-.23,1.11-.09.38-.18.76-.27,1.14-.05.22.05.41.24.47.22.06.41-.05.47-.29.17-.67.33-1.35.5-2.02,0-.03.02-.06.03-.11Z"/>
        <path class="cls-8" d="M790.97,502.1v.98h-1v.99h-1v1.01h-.99v1.11c.16.04.28,0,.39-.11,1.19-1.19,2.38-2.38,3.58-3.57.12-.12.18-.24.13-.42h-1.11Z"/>
        <path class="cls-8" d="M786.87,499.87c0,.36.28.64.64.64.36,0,.64-.29.64-.65,0-.34-.29-.63-.64-.64-.35,0-.64.29-.65.64Z"/>
      </g>
      <g>
        <path class="cls-8" d="M675.74,502.96c-.15.07-.29.13-.42.2-.04.02-.07.09-.07.14,0,.21.02.42.04.62.02.26-.12.43-.35.45-.2.02-.38-.13-.4-.37-.03-.35-.04-.7-.06-1.05,0-.17.08-.28.23-.35.23-.11.46-.23.69-.33.09-.04.12-.09.12-.19,0-.17,0-.34,0-.55-.39.48-.92.37-1.4.42-.17.02-.29-.13-.29-.32,0-.18.1-.3.27-.32.21-.03.41-.05.62-.07.13-.01.22-.06.3-.16.2-.26.4-.52.62-.76.25-.28.42-.3.73-.08.33.23.66.47.97.73.07.06.13.17.14.27.04.35.07.7.09,1.05.01.19-.1.33-.28.35-.19.02-.34-.08-.36-.28-.03-.21-.06-.42-.04-.62.02-.3-.15-.44-.4-.56,0,.06-.01.11-.01.16,0,.44-.04.89,0,1.32.03.38.15.75.23,1.12.09.38.18.76.27,1.15.05.22-.05.42-.24.47-.22.06-.41-.05-.47-.29-.17-.68-.33-1.35-.5-2.03,0-.03-.02-.06-.03-.11Z"/>
        <path class="cls-8" d="M672.28,501.55v.99h1v1h1v1.01h.99v1.11c-.16.04-.28,0-.39-.11-1.19-1.2-2.38-2.39-3.58-3.58-.12-.12-.18-.24-.13-.42h1.11Z"/>
        <path class="cls-8" d="M676.38,499.32c0,.36-.28.64-.64.64-.36,0-.64-.29-.64-.65,0-.35.29-.63.64-.64.35,0,.64.29.65.64Z"/>
      </g>
      <g id="bancoentrada02">
        <path class="cls-6" d="M618.42,505.23c.15-.07.3-.23.45-.29.9-.39,1.15,1.03.66,1.56-.38.41-.83.02-.83-.45,0-.27.17-.64.48-.41l.11.21c.13-.82-.41-.8-.87-.31-.01.26-.01.56.15.78.33.43,1.09.44,1.14,1.07.04.46.04,1.33,0,1.79,0,.09-.02.16-.13.18-.14.02-.35.03-.38-.14-.03-.53,0-1.05,0-1.58,0-.03,0-.03-.03-.05h-.71l-.04.04v.61c0,.14-.49.14-.49,0v-.65h-6.38v.6c0,.22-.52.19-.52.02v-.62h-.75v1.66c0,.14-.51.18-.51-.03,0-.55-.04-1.14-.01-1.69.02-.27.04-.42.25-.6.5-.41,1.03-.35,1.07-1.19.01-.22-.03-.23-.2-.36-.36-.28-.69-.3-.72.25,0,.07-.02.2.05.22.01-.3.37-.4.5-.11s.07.73-.24.88c-.18.09-.3.07-.46-.06-.57-.47-.33-1.99.58-1.62.18.07.31.24.49.3v-1.66s.06-.22.08-.27c.08-.2.23-.4.42-.49l6.34.02c.19.12.34.32.41.53.02.06.07.25.07.31v1.57ZM610.38,507.18h8.74l-.71-.46c-.28-.25-.38-.55-.4-.92-.04-.67.06-1.41,0-2.07-.02-.2-.08-.37-.21-.52l-6.04-.02c-.12.01-.25.32-.27.43-.1.73.2,2.36-.24,2.92-.23.29-.58.44-.87.65Z"/>
        <path class="cls-1" d="M617.59,503.74h-5.68v.36h5.68v-.36ZM617.59,504.57h-5.68v.4h5.68v-.4ZM617.59,505.44h-5.68v.34s-.03.03-.02.06h5.7v-.4ZM617.85,506.71c-.09-.07-.14-.38-.22-.4h-5.81s-.16.4-.16.4h6.19Z"/>
        <path class="cls-6" d="M617.85,506.71h-6.19l.16-.39h5.81c.08,0,.14.32.22.39Z"/>
        <path class="cls-6" d="M617.59,505.44v.4h-5.7s.02-.05.02-.06v-.34h5.68Z"/>
        <rect class="cls-6" x="611.92" y="503.7" width="5.68" height=".4"/>
        <rect class="cls-6" x="611.92" y="504.57" width="5.68" height=".4"/>
      </g>
      <g id="bancoentrada01">
        <path class="cls-6" d="M634.68,505.23c.15-.07.3-.23.45-.29.9-.39,1.15,1.03.66,1.56-.38.41-.83.02-.83-.45,0-.27.17-.64.48-.41l.11.21c.13-.82-.41-.8-.87-.31-.01.26-.01.56.15.78.33.43,1.09.44,1.14,1.07.04.46.04,1.33,0,1.79,0,.09-.02.16-.13.18-.14.02-.35.03-.38-.14-.03-.53,0-1.05,0-1.58,0-.03,0-.03-.03-.05h-.71l-.04.04v.61c0,.14-.49.14-.49,0v-.65h-6.38v.6c0,.22-.52.19-.52.02v-.62h-.75v1.66c0,.14-.51.18-.51-.03,0-.55-.04-1.14-.01-1.69.02-.27.04-.42.25-.6.5-.41,1.03-.35,1.07-1.19.01-.22-.03-.23-.2-.36-.36-.28-.69-.3-.72.25,0,.07-.02.2.05.22.01-.3.37-.4.5-.11s.07.73-.24.88c-.18.09-.3.07-.46-.06-.57-.47-.33-1.99.58-1.62.18.07.31.24.49.3v-1.66s.06-.22.08-.27c.08-.2.23-.4.42-.49l6.34.02c.19.12.34.32.41.53.02.06.07.25.07.31v1.57ZM626.64,507.18h8.74l-.71-.46c-.28-.25-.38-.55-.4-.92-.04-.67.06-1.41,0-2.07-.02-.2-.08-.37-.21-.52l-6.04-.02c-.12.01-.25.32-.27.43-.1.73.2,2.36-.24,2.92-.23.29-.58.44-.87.65Z"/>
        <path class="cls-1" d="M633.85,503.74h-5.68v.36h5.68v-.36ZM633.85,504.57h-5.68v.4h5.68v-.4ZM633.85,505.44h-5.68v.34s-.03.03-.02.06h5.7v-.4ZM634.11,506.71c-.09-.07-.14-.38-.22-.4h-5.81s-.16.4-.16.4h6.19Z"/>
        <path class="cls-6" d="M634.11,506.71h-6.19l.16-.39h5.81c.08,0,.14.32.22.39Z"/>
        <path class="cls-6" d="M633.85,505.44v.4h-5.7s.02-.05.02-.06v-.34h5.68Z"/>
        <rect class="cls-6" x="628.18" y="503.7" width="5.68" height=".4"/>
        <rect class="cls-6" x="628.18" y="504.57" width="5.68" height=".4"/>
      </g>
      <g>
        <path class="cls-6" d="M605.48,504.52c-.06-.23.07-1.12-.03-1.26-.21-.28-.51.12-.41.39-.78.03-1.52.37-2.08.92l-.44.57c-.47-.9-1.47-1.43-2.47-1.49.02-.21.01-.44-.24-.48-.05,0-.12.03-.15.06-.18.17-.03,1.03-.11,1.29-.48.08-.87.4-.85.91h2.27c-.07-.51-.38-.84-.9-.91l-.02-.44c1.11.08,2.25.85,2.27,2.05-.36-.05-.98,0-.92.5.06.47.57.39.92.38v5.96s-.22.15-.22.22v2.95h.87v-2.95c0-.07-.25-.2-.22-.3v-5.77s.07-.1.07-.1c.45.16,1.07-.15.79-.67-.17-.31-.57-.2-.85-.22.03-1.2,1.16-1.97,2.27-2.05l-.04.46c-.5.03-.81.41-.88.89h2.27c.03-.53-.42-.86-.91-.92Z"/>
        <path class="cls-6" d="M600.06,505.66c.15.95-.62.94-.48,0h-.66v1.11s.12.28.16.32c.46.67,1.55.42,1.64-.37.01-.12.01-.98-.02-1.03l-.64-.04Z"/>
        <path class="cls-6" d="M606.17,505.71h-.66c0,.2.06.66-.24.66-.39,0-.16-.6-.28-.68l-.6.02c0,.46-.15,1.15.2,1.51.5.52,1.46.25,1.57-.44.05-.31-.04-.74,0-1.07Z"/>
      </g>
      <path class="cls-3" d="M435,737.94l-.09.02c-.02.29-.22.64-.26.9-.02.12.06.12-.03.33-.1.24-.29.31-.34.55v3.55c.02.19.21.19.14.44-.02.06-.1.12-.12.18-.06.15-.05,1.93-.02,2.18.03.3.36.24.38.48.01.15-.09.18-.14.26-.07.1-.04.46-.03.6.03.58.1,1.18.18,1.75.05.33.19.8.2,1.11,0,.16-.09.3.04.43.08.07.32.13.36.21.05.11,0,.33-.03.45l-.06.03h-2.14s-.1-.04-.1-.04c0-.13-.06-.27-.03-.4.03-.15.28-.17.37-.25.14-.13.04-.27.04-.43.03-.62.27-1.44.33-2.12.02-.22.11-1.19.04-1.33-.02-.04-.09-.08-.13-.14-.16-.32.32-.34.35-.59-.07-.37.1-2.05-.03-2.26-.03-.04-.1-.06-.12-.11-.09-.18.04-.23.13-.36l.02-3.62c-.03-.3-.36-.4-.39-.75-.02-.32-.11-.7-.24-1.01-.03-.07-.1-.09-.09-.17.01-.1.52-.48.62-.64.12-.19-.02-.2.02-.34.01-.05.16-.32.19-.38.02-.03.03-.08.08-.07.03,0,.24.43.25.47.01.1-.08.15-.03.27.03.08.35.37.44.46.1.1.25.14.22.33ZM433.66,737.94l-.27.02.27.97h.15s-.15-.98-.15-.98ZM434.47,737.94h-.72l.18.98h.34s.2-.98.2-.98ZM434.82,737.94h-.27s-.15.98-.15.98h.15s.27-.98.27-.98Z"/>
      <g id="P021_banheiro_feminino_ginasio">
        <path class="cls-8" d="M139.09,774.86h-1.75v4.66h1.75c.32,0,.58-.26.58-.58v-3.5c0-.32-.26-.58-.58-.58ZM138.45,775.23c.28,0,.52.23.52.51,0,.28-.23.51-.51.51-.28,0-.51-.23-.51-.51,0-.28.23-.51.51-.51ZM139.3,778.19c-.1,0-.19,0-.29,0h-.05v.05c0,.21,0,.42,0,.64,0,.17-.1.27-.27.27-.16,0-.32,0-.48,0-.17,0-.27-.11-.27-.27,0-.21,0-.42,0-.63v-.05h-.05c-.09,0-.19,0-.28,0-.14,0-.21-.09-.18-.23.11-.43.22-.87.33-1.3.05-.19.19-.29.38-.3.2,0,.41,0,.61,0,.19,0,.33.11.38.29.11.44.22.87.33,1.31.03.12-.04.22-.17.22Z"/>
      </g>
      <path id="P022_banheiro_masculino_ginasio" class="cls-8" d="M152.63,774.23h-1.42c-.32,0-.58.26-.58.58v3.5c0,.32.26.58.58.58h1.42v-4.66ZM151.53,774.6c.28,0,.51.23.51.51,0,.28-.23.51-.51.51-.28,0-.51-.23-.51-.52,0-.28.23-.51.51-.51ZM152.04,777.26v.05c0,.32,0,.63,0,.95,0,.13-.08.23-.2.26-.02,0-.05,0-.07,0-.16,0-.32,0-.48,0-.16,0-.27-.1-.27-.27,0-.31,0-.63,0-.94v-.05s-.05,0-.07-.01c-.07-.02-.12-.08-.12-.15,0-.33,0-.67,0-1,0-.19.17-.35.35-.35.23,0,.47,0,.7,0,.19,0,.35.17.35.35,0,.33,0,.67,0,1,0,.09-.07.15-.19.16Z"/>
      <g id="escda">
        <g>
          <path class="cls-8" d="M645.3,463.6c.15.07.29.13.42.2.04.02.07.09.07.14,0,.21-.02.42-.04.62-.02.26.12.43.35.45.2.02.38-.13.4-.37.03-.35.04-.7.06-1.05,0-.17-.08-.28-.23-.35-.23-.11-.46-.23-.69-.33-.09-.04-.12-.09-.12-.19,0-.17,0-.34,0-.55.39.48.92.37,1.4.42.17.02.29-.13.29-.32,0-.18-.1-.3-.27-.32-.21-.03-.41-.05-.62-.07-.13-.01-.22-.06-.3-.16-.2-.26-.4-.52-.62-.76-.25-.28-.42-.3-.73-.08-.33.23-.66.47-.97.73-.07.06-.13.17-.14.27-.04.35-.07.7-.09,1.05-.01.19.1.33.28.35.19.02.34-.08.36-.28.03-.21.06-.42.04-.62-.02-.3.15-.44.4-.56,0,.06.01.11.01.16,0,.44.04.89,0,1.32-.03.38-.15.75-.23,1.12-.09.38-.18.76-.27,1.15-.05.22.05.42.24.47.22.06.41-.05.47-.29.17-.68.33-1.35.5-2.03,0-.03.02-.06.03-.11Z"/>
          <path class="cls-8" d="M648.77,462.19v.99h-1v1h-1v1.01h-.99v1.11c.16.04.28,0,.39-.11,1.19-1.2,2.38-2.39,3.58-3.58.12-.12.18-.24.13-.42h-1.11Z"/>
          <path class="cls-8" d="M644.67,459.96c0,.36.28.64.64.64.36,0,.64-.29.64-.65,0-.35-.29-.63-.64-.64-.35,0-.64.29-.65.64Z"/>
        </g>
      </g>
      <g id="_03_background_estacionamento_Map" data-name="03_background_estacionamento_Map">
        <g>
          <path class="cls-7" d="M340.58,259.13v-.83H56.66c-6.9,0-12.49,6.36-12.49,14.2v76.36c0,7.84,5.59,14.2,12.49,14.2h533.91c6.9,0,12.49-6.36,12.49-14.2v-89.73h-262.49Z"/>
          <path class="cls-7" d="M581.33,247.4v-44.58c0-7.29-5.37-13.21-11.99-13.21h-194.9c-6.62,0-11.99,5.91-11.99,13.21v44.58h218.87Z"/>
        </g>
        <rect class="cls-7" x="272.38" y="776.77" width="223.24" height="63.92" rx="13.47" ry="13.47"/>
        <rect class="cls-7" x="635.19" y="194.71" width="194.38" height="140.61" rx="13.47" ry="13.47"/>
        <polygon class="cls-5" points="543.14 358.07 536.23 321.22 534.77 321.49 541.64 358.07 536.01 358.07 536.01 359.55 548.99 359.55 548.99 358.07 543.14 358.07"/>
        <polygon class="cls-5" points="522.75 358.07 515.83 321.22 514.38 321.49 521.24 358.07 515.61 358.07 515.61 359.55 528.6 359.55 528.6 358.07 522.75 358.07"/>
        <polygon class="cls-5" points="502.17 358.07 495.26 321.22 493.8 321.49 500.67 358.07 495.04 358.07 495.04 359.55 508.02 359.55 508.02 358.07 502.17 358.07"/>
        <polygon class="cls-5" points="481.78 358.07 474.86 321.22 473.41 321.49 480.27 358.07 474.64 358.07 474.64 359.55 487.63 359.55 487.63 358.07 481.78 358.07"/>
        <polygon class="cls-5" points="462.44 358.07 455.52 321.22 454.07 321.49 460.93 358.07 455.31 358.07 455.31 359.55 468.29 359.55 468.29 358.07 462.44 358.07"/>
        <polygon class="cls-5" points="442.04 358.07 435.12 321.22 433.67 321.49 440.54 358.07 434.91 358.07 434.91 359.55 447.89 359.55 447.89 358.07 442.04 358.07"/>
        <polygon class="cls-5" points="421.47 358.07 414.55 321.22 413.1 321.49 419.97 358.07 414.34 358.07 414.34 359.55 427.32 359.55 427.32 358.07 421.47 358.07"/>
        <polygon class="cls-5" points="401.07 358.07 394.15 321.22 392.7 321.49 399.57 358.07 393.94 358.07 393.94 359.55 406.92 359.55 406.92 358.07 401.07 358.07"/>
        <polygon class="cls-5" points="385.2 272.74 392.12 309.59 393.57 309.32 386.71 272.74 392.34 272.74 392.34 271.26 379.36 271.26 379.36 272.74 385.2 272.74"/>
        <polygon class="cls-5" points="405.6 272.74 412.52 309.59 413.97 309.32 407.1 272.74 412.73 272.74 412.73 271.26 399.75 271.26 399.75 272.74 405.6 272.74"/>
        <polygon class="cls-5" points="426.17 272.74 433.09 309.59 434.54 309.32 427.68 272.74 433.31 272.74 433.31 271.26 420.33 271.26 420.33 272.74 426.17 272.74"/>
        <polygon class="cls-5" points="446.57 272.74 453.49 309.59 454.94 309.32 448.07 272.74 453.7 272.74 453.7 271.26 440.72 271.26 440.72 272.74 446.57 272.74"/>
        <polygon class="cls-5" points="465.91 272.74 472.83 309.59 474.28 309.32 467.41 272.74 473.04 272.74 473.04 271.26 460.06 271.26 460.06 272.74 465.91 272.74"/>
        <polygon class="cls-5" points="486.31 272.74 493.23 309.59 494.68 309.32 487.81 272.74 493.44 272.74 493.44 271.26 480.46 271.26 480.46 272.74 486.31 272.74"/>
        <polygon class="cls-5" points="506.88 272.74 513.8 309.59 515.25 309.32 508.38 272.74 514.01 272.74 514.01 271.26 501.03 271.26 501.03 272.74 506.88 272.74"/>
        <polygon class="cls-5" points="527.28 272.74 534.2 309.59 535.65 309.32 528.78 272.74 534.41 272.74 534.41 271.26 521.43 271.26 521.43 272.74 527.28 272.74"/>
        <polygon class="cls-5" points="376.84 358.07 369.92 321.22 368.47 321.49 375.33 358.07 369.7 358.07 369.7 359.55 382.68 359.55 382.68 358.07 376.84 358.07"/>
        <polygon class="cls-5" points="356.44 358.07 349.52 321.22 348.07 321.49 354.94 358.07 349.31 358.07 349.31 359.55 362.29 359.55 362.29 358.07 356.44 358.07"/>
        <polygon class="cls-5" points="335.87 358.07 328.95 321.22 327.5 321.49 334.36 358.07 328.73 358.07 328.73 359.55 341.71 359.55 341.71 358.07 335.87 358.07"/>
        <polygon class="cls-5" points="315.47 358.07 308.55 321.22 307.1 321.49 313.97 358.07 308.34 358.07 308.34 359.55 321.32 359.55 321.32 358.07 315.47 358.07"/>
        <polygon class="cls-5" points="296.13 358.07 289.21 321.22 287.76 321.49 294.63 358.07 289 358.07 289 359.55 301.98 359.55 301.98 358.07 296.13 358.07"/>
        <polygon class="cls-5" points="275.73 358.07 268.82 321.22 267.36 321.49 274.23 358.07 268.6 358.07 268.6 359.55 281.58 359.55 281.58 358.07 275.73 358.07"/>
        <polygon class="cls-5" points="255.16 358.07 248.24 321.22 246.79 321.49 253.66 358.07 248.03 358.07 248.03 359.55 261.01 359.55 261.01 358.07 255.16 358.07"/>
        <polygon class="cls-5" points="234.76 358.07 227.85 321.22 226.39 321.49 233.26 358.07 227.63 358.07 227.63 359.55 240.61 359.55 240.61 358.07 234.76 358.07"/>
        <polygon class="cls-5" points="216.95 272.74 223.87 309.59 225.32 309.32 218.46 272.74 224.09 272.74 224.09 271.26 211.1 271.26 211.1 272.74 216.95 272.74"/>
        <polygon class="cls-5" points="239.29 272.74 246.21 309.59 247.66 309.32 240.8 272.74 246.43 272.74 246.43 271.26 233.45 271.26 233.45 272.74 239.29 272.74"/>
        <polygon class="cls-5" points="259.87 272.74 266.78 309.59 268.24 309.32 261.37 272.74 267 272.74 267 271.26 254.02 271.26 254.02 272.74 259.87 272.74"/>
        <polygon class="cls-5" points="280.26 272.74 287.18 309.59 288.63 309.32 281.77 272.74 287.4 272.74 287.4 271.26 274.42 271.26 274.42 272.74 280.26 272.74"/>
        <polygon class="cls-5" points="299.6 272.74 306.52 309.59 307.97 309.32 301.11 272.74 306.74 272.74 306.74 271.26 293.75 271.26 293.75 272.74 299.6 272.74"/>
        <polygon class="cls-5" points="320 272.74 326.92 309.59 328.37 309.32 321.5 272.74 327.13 272.74 327.13 271.26 314.15 271.26 314.15 272.74 320 272.74"/>
        <polygon class="cls-5" points="340.57 272.74 347.49 309.59 348.94 309.32 342.08 272.74 347.71 272.74 347.71 271.26 334.72 271.26 334.72 272.74 340.57 272.74"/>
        <polygon class="cls-5" points="360.97 272.74 367.89 309.59 369.34 309.32 362.47 272.74 368.1 272.74 368.1 271.26 355.12 271.26 355.12 272.74 360.97 272.74"/>
        <polygon class="cls-5" points="955.82 619.39 949.64 586.43 948.34 586.67 954.48 619.39 949.44 619.39 949.44 620.71 961.05 620.71 961.05 619.39 955.82 619.39"/>
        <polygon class="cls-5" points="937.58 619.39 931.4 586.43 930.1 586.67 936.24 619.39 931.2 619.39 931.2 620.71 942.81 620.71 942.81 619.39 937.58 619.39"/>
        <polygon class="cls-5" points="919.18 619.39 913 586.43 911.7 586.67 917.84 619.39 912.81 619.39 912.81 620.71 924.41 620.71 924.41 619.39 919.18 619.39"/>
        <polygon class="cls-5" points="900.94 619.39 894.76 586.43 893.46 586.67 899.6 619.39 894.57 619.39 894.57 620.71 906.17 620.71 906.17 619.39 900.94 619.39"/>
        <polygon class="cls-5" points="883.65 619.39 877.46 586.43 876.16 586.67 882.3 619.39 877.27 619.39 877.27 620.71 888.88 620.71 888.88 619.39 883.65 619.39"/>
        <polygon class="cls-5" points="865.41 619.39 859.22 586.43 857.92 586.67 864.06 619.39 859.03 619.39 859.03 620.71 870.64 620.71 870.64 619.39 865.41 619.39"/>
        <polygon class="cls-5" points="847.01 619.39 840.82 586.43 839.53 586.67 845.67 619.39 840.63 619.39 840.63 620.71 852.24 620.71 852.24 619.39 847.01 619.39"/>
        <polygon class="cls-5" points="828.77 619.39 822.58 586.43 821.28 586.67 827.43 619.39 822.39 619.39 822.39 620.71 834 620.71 834 619.39 828.77 619.39"/>
        <polygon class="cls-5" points="814.58 542.33 820.77 575.28 822.07 575.04 815.92 542.33 820.96 542.33 820.96 541 809.35 541 809.35 542.33 814.58 542.33"/>
        <polygon class="cls-5" points="832.82 542.33 839.01 575.28 840.31 575.04 834.16 542.33 839.2 542.33 839.2 541 827.59 541 827.59 542.33 832.82 542.33"/>
        <polygon class="cls-5" points="851.22 542.33 857.41 575.28 858.7 575.04 852.56 542.33 857.6 542.33 857.6 541 845.99 541 845.99 542.33 851.22 542.33"/>
        <polygon class="cls-5" points="869.46 542.33 875.65 575.28 876.94 575.04 870.8 542.33 875.84 542.33 875.84 541 864.23 541 864.23 542.33 869.46 542.33"/>
        <polygon class="cls-5" points="886.75 542.33 892.94 575.28 894.24 575.04 888.1 542.33 893.13 542.33 893.13 541 881.52 541 881.52 542.33 886.75 542.33"/>
        <polygon class="cls-5" points="904.99 542.33 911.18 575.28 912.48 575.04 906.34 542.33 911.37 542.33 911.37 541 899.76 541 899.76 542.33 904.99 542.33"/>
        <polygon class="cls-5" points="923.39 542.33 929.58 575.28 930.88 575.04 924.74 542.33 929.77 542.33 929.77 541 918.16 541 918.16 542.33 923.39 542.33"/>
        <polygon class="cls-5" points="941.63 542.33 947.82 575.28 949.12 575.04 942.98 542.33 948.01 542.33 948.01 541 936.4 541 936.4 542.33 941.63 542.33"/>
        <polygon class="cls-5" points="801.97 619.39 795.78 586.43 794.49 586.67 800.63 619.39 795.59 619.39 795.59 620.71 807.2 620.71 807.2 619.39 801.97 619.39"/>
        <polygon class="cls-5" points="783.73 619.39 777.54 586.43 776.25 586.67 782.39 619.39 777.35 619.39 777.35 620.71 788.96 620.71 788.96 619.39 783.73 619.39"/>
        <polygon class="cls-5" points="765.33 619.39 759.15 586.43 757.85 586.67 763.99 619.39 758.95 619.39 758.95 620.71 770.56 620.71 770.56 619.39 765.33 619.39"/>
        <polygon class="cls-5" points="747.09 619.39 740.91 586.43 739.61 586.67 745.75 619.39 740.71 619.39 740.71 620.71 752.32 620.71 752.32 619.39 747.09 619.39"/>
        <polygon class="cls-5" points="729.8 619.39 723.61 586.43 722.31 586.67 728.45 619.39 723.42 619.39 723.42 620.71 735.03 620.71 735.03 619.39 729.8 619.39"/>
        <polygon class="cls-5" points="711.56 619.39 705.37 586.43 704.07 586.67 710.21 619.39 705.18 619.39 705.18 620.71 716.79 620.71 716.79 619.39 711.56 619.39"/>
        <polygon class="cls-5" points="693.16 619.39 686.97 586.43 685.67 586.67 691.82 619.39 686.78 619.39 686.78 620.71 698.39 620.71 698.39 619.39 693.16 619.39"/>
        <polygon class="cls-5" points="674.92 619.39 668.73 586.43 667.43 586.67 673.57 619.39 668.54 619.39 668.54 620.71 680.15 620.71 680.15 619.39 674.92 619.39"/>
        <polygon class="cls-5" points="658.99 542.33 665.18 575.28 666.48 575.04 660.33 542.33 665.37 542.33 665.37 541 653.76 541 653.76 542.33 658.99 542.33"/>
        <polygon class="cls-5" points="678.97 542.33 685.16 575.28 686.45 575.04 680.31 542.33 685.35 542.33 685.35 541 673.74 541 673.74 542.33 678.97 542.33"/>
        <polygon class="cls-5" points="697.37 542.33 703.55 575.28 704.85 575.04 698.71 542.33 703.75 542.33 703.75 541 692.14 541 692.14 542.33 697.37 542.33"/>
        <polygon class="cls-5" points="715.61 542.33 721.79 575.28 723.09 575.04 716.95 542.33 721.99 542.33 721.99 541 710.38 541 710.38 542.33 715.61 542.33"/>
        <polygon class="cls-5" points="732.9 542.33 739.09 575.28 740.39 575.04 734.25 542.33 739.28 542.33 739.28 541 727.67 541 727.67 542.33 732.9 542.33"/>
        <polygon class="cls-5" points="751.14 542.33 757.33 575.28 758.63 575.04 752.49 542.33 757.52 542.33 757.52 541 745.91 541 745.91 542.33 751.14 542.33"/>
        <polygon class="cls-5" points="769.54 542.33 775.73 575.28 777.03 575.04 770.89 542.33 775.92 542.33 775.92 541 764.31 541 764.31 542.33 769.54 542.33"/>
        <polygon class="cls-5" points="787.78 542.33 793.97 575.28 795.27 575.04 789.13 542.33 794.16 542.33 794.16 541 782.55 541 782.55 542.33 787.78 542.33"/>
        <polygon class="cls-5" points="968.1 718.54 961.91 685.58 960.61 685.82 966.75 718.54 961.72 718.54 961.72 719.86 973.33 719.86 973.33 718.54 968.1 718.54"/>
        <polygon class="cls-5" points="949.85 718.54 943.67 685.58 942.37 685.82 948.51 718.54 943.48 718.54 943.48 719.86 955.09 719.86 955.09 718.54 949.85 718.54"/>
        <polygon class="cls-5" points="931.46 718.54 925.27 685.58 923.97 685.82 930.11 718.54 925.08 718.54 925.08 719.86 936.69 719.86 936.69 718.54 931.46 718.54"/>
        <polygon class="cls-5" points="913.22 718.54 907.03 685.58 905.73 685.82 911.87 718.54 906.84 718.54 906.84 719.86 918.45 719.86 918.45 718.54 913.22 718.54"/>
        <polygon class="cls-5" points="895.92 718.54 889.73 685.58 888.44 685.82 894.58 718.54 889.54 718.54 889.54 719.86 901.15 719.86 901.15 718.54 895.92 718.54"/>
        <polygon class="cls-5" points="877.68 718.54 871.49 685.58 870.2 685.82 876.34 718.54 871.3 718.54 871.3 719.86 882.91 719.86 882.91 718.54 877.68 718.54"/>
        <polygon class="cls-5" points="859.28 718.54 853.1 685.58 851.8 685.82 857.94 718.54 852.9 718.54 852.9 719.86 864.51 719.86 864.51 718.54 859.28 718.54"/>
        <polygon class="cls-5" points="841.04 718.54 834.86 685.58 833.56 685.82 839.7 718.54 834.66 718.54 834.66 719.86 846.27 719.86 846.27 718.54 841.04 718.54"/>
        <polygon class="cls-5" points="826.85 642.22 833.04 675.18 834.34 674.93 828.2 642.22 833.23 642.22 833.23 640.9 821.62 640.9 821.62 642.22 826.85 642.22"/>
        <polygon class="cls-5" points="845.09 642.22 851.28 675.18 852.58 674.93 846.44 642.22 851.47 642.22 851.47 640.9 839.86 640.9 839.86 642.22 845.09 642.22"/>
        <polygon class="cls-5" points="863.49 642.22 869.68 675.18 870.98 674.93 864.84 642.22 869.87 642.22 869.87 640.9 858.26 640.9 858.26 642.22 863.49 642.22"/>
        <polygon class="cls-5" points="881.73 642.22 887.92 675.18 889.22 674.93 883.08 642.22 888.11 642.22 888.11 640.9 876.5 640.9 876.5 642.22 881.73 642.22"/>
        <polygon class="cls-5" points="899.03 642.22 905.21 675.18 906.51 674.93 900.37 642.22 905.41 642.22 905.41 640.9 893.8 640.9 893.8 642.22 899.03 642.22"/>
        <polygon class="cls-5" points="917.27 642.22 923.45 675.18 924.75 674.93 918.61 642.22 923.65 642.22 923.65 640.9 912.04 640.9 912.04 642.22 917.27 642.22"/>
        <polygon class="cls-5" points="935.67 642.22 941.85 675.18 943.15 674.93 937.01 642.22 942.04 642.22 942.04 640.9 930.44 640.9 930.44 642.22 935.67 642.22"/>
        <polygon class="cls-5" points="953.91 642.22 960.09 675.18 961.39 674.93 955.25 642.22 960.28 642.22 960.28 640.9 948.68 640.9 948.68 642.22 953.91 642.22"/>
        <polygon class="cls-5" points="814.24 718.54 808.06 685.58 806.76 685.82 812.9 718.54 807.87 718.54 807.87 719.86 819.47 719.86 819.47 718.54 814.24 718.54"/>
        <polygon class="cls-5" points="796 718.54 789.82 685.58 788.52 685.82 794.66 718.54 789.63 718.54 789.63 719.86 801.23 719.86 801.23 718.54 796 718.54"/>
        <polygon class="cls-5" points="777.61 718.54 771.42 685.58 770.12 685.82 776.26 718.54 771.23 718.54 771.23 719.86 782.84 719.86 782.84 718.54 777.61 718.54"/>
        <polygon class="cls-5" points="759.37 718.54 753.18 685.58 751.88 685.82 758.02 718.54 752.99 718.54 752.99 719.86 764.6 719.86 764.6 718.54 759.37 718.54"/>
        <polygon class="cls-5" points="742.07 718.54 735.88 685.58 734.59 685.82 740.73 718.54 735.69 718.54 735.69 719.86 747.3 719.86 747.3 718.54 742.07 718.54"/>
        <polygon class="cls-5" points="723.83 718.54 717.64 685.58 716.35 685.82 722.49 718.54 717.45 718.54 717.45 719.86 729.06 719.86 729.06 718.54 723.83 718.54"/>
        <polygon class="cls-5" points="705.43 718.54 699.25 685.58 697.95 685.82 704.09 718.54 699.05 718.54 699.05 719.86 710.66 719.86 710.66 718.54 705.43 718.54"/>
        <polygon class="cls-5" points="687.19 718.54 681 685.58 679.71 685.82 685.85 718.54 680.81 718.54 680.81 719.86 692.42 719.86 692.42 718.54 687.19 718.54"/>
        <polygon class="cls-5" points="671.26 642.22 677.45 675.18 678.75 674.93 672.61 642.22 677.64 642.22 677.64 640.9 666.03 640.9 666.03 642.22 671.26 642.22"/>
        <polygon class="cls-5" points="691.24 642.22 697.43 675.18 698.73 674.93 692.59 642.22 697.62 642.22 697.62 640.9 686.01 640.9 686.01 642.22 691.24 642.22"/>
        <polygon class="cls-5" points="709.64 642.22 715.83 675.18 717.13 674.93 710.98 642.22 716.02 642.22 716.02 640.9 704.41 640.9 704.41 642.22 709.64 642.22"/>
        <polygon class="cls-5" points="727.88 642.22 734.07 675.18 735.37 674.93 729.23 642.22 734.26 642.22 734.26 640.9 722.65 640.9 722.65 642.22 727.88 642.22"/>
        <polygon class="cls-5" points="745.18 642.22 751.36 675.18 752.66 674.93 746.52 642.22 751.55 642.22 751.55 640.9 739.95 640.9 739.95 642.22 745.18 642.22"/>
        <polygon class="cls-5" points="763.42 642.22 769.6 675.18 770.9 674.93 764.76 642.22 769.8 642.22 769.8 640.9 758.19 640.9 758.19 642.22 763.42 642.22"/>
        <polygon class="cls-5" points="781.81 642.22 788 675.18 789.3 674.93 783.16 642.22 788.19 642.22 788.19 640.9 776.58 640.9 776.58 642.22 781.81 642.22"/>
        <polygon class="cls-5" points="800.05 642.22 806.24 675.18 807.54 674.93 801.4 642.22 806.43 642.22 806.43 640.9 794.82 640.9 794.82 642.22 800.05 642.22"/>
        <polygon class="cls-5" points="808.12 328.25 801.2 297.39 799.75 297.62 806.62 328.25 800.99 328.25 800.99 329.49 813.97 329.49 813.97 328.25 808.12 328.25"/>
        <polygon class="cls-5" points="787.72 328.25 780.81 297.39 779.35 297.62 786.22 328.25 780.59 328.25 780.59 329.49 793.57 329.49 793.57 328.25 787.72 328.25"/>
        <polygon class="cls-5" points="767.15 328.25 760.23 297.39 758.78 297.62 765.65 328.25 760.02 328.25 760.02 329.49 773 329.49 773 328.25 767.15 328.25"/>
        <polygon class="cls-5" points="746.75 328.25 739.84 297.39 738.38 297.62 745.25 328.25 739.62 328.25 739.62 329.49 752.6 329.49 752.6 328.25 746.75 328.25"/>
        <polygon class="cls-5" points="727.41 328.25 720.5 297.39 719.04 297.62 725.91 328.25 720.28 328.25 720.28 329.49 733.26 329.49 733.26 328.25 727.41 328.25"/>
        <polygon class="cls-5" points="707.02 328.25 700.1 297.39 698.65 297.62 705.52 328.25 699.89 328.25 699.89 329.49 712.87 329.49 712.87 328.25 707.02 328.25"/>
        <polygon class="cls-5" points="686.45 328.25 679.53 297.39 678.08 297.62 684.94 328.25 679.31 328.25 679.31 329.49 692.29 329.49 692.29 328.25 686.45 328.25"/>
        <polygon class="cls-5" points="666.05 328.25 659.13 297.39 657.68 297.62 664.55 328.25 658.92 328.25 658.92 329.49 671.9 329.49 671.9 328.25 666.05 328.25"/>
        <polygon class="cls-5" points="650.18 256.79 657.1 287.65 658.55 287.42 651.68 256.79 657.31 256.79 657.31 255.55 644.33 255.55 644.33 256.79 650.18 256.79"/>
        <polygon class="cls-5" points="670.58 256.79 677.5 287.65 678.95 287.42 672.08 256.79 677.71 256.79 677.71 255.55 664.73 255.55 664.73 256.79 670.58 256.79"/>
        <polygon class="cls-5" points="691.15 256.79 698.07 287.65 699.52 287.42 692.65 256.79 698.28 256.79 698.28 255.55 685.3 255.55 685.3 256.79 691.15 256.79"/>
        <polygon class="cls-5" points="711.55 256.79 718.47 287.65 719.92 287.42 713.05 256.79 718.68 256.79 718.68 255.55 705.7 255.55 705.7 256.79 711.55 256.79"/>
        <polygon class="cls-5" points="730.89 256.79 737.81 287.65 739.26 287.42 732.39 256.79 738.02 256.79 738.02 255.55 725.04 255.55 725.04 256.79 730.89 256.79"/>
        <polygon class="cls-5" points="751.28 256.79 758.2 287.65 759.65 287.42 752.79 256.79 758.42 256.79 758.42 255.55 745.44 255.55 745.44 256.79 751.28 256.79"/>
        <polygon class="cls-5" points="771.86 256.79 778.78 287.65 780.23 287.42 773.36 256.79 778.99 256.79 778.99 255.55 766.01 255.55 766.01 256.79 771.86 256.79"/>
        <polygon class="cls-5" points="792.25 256.79 799.17 287.65 800.62 287.42 793.76 256.79 799.39 256.79 799.39 255.55 786.41 255.55 786.41 256.79 792.25 256.79"/>
        <polygon class="cls-5" points="649.6 619.39 643.41 586.43 642.11 586.67 648.26 619.39 643.22 619.39 643.22 620.71 654.83 620.71 654.83 619.39 649.6 619.39"/>
        <polygon class="cls-5" points="631.36 619.39 625.17 586.43 623.87 586.67 630.01 619.39 624.98 619.39 624.98 620.71 636.59 620.71 636.59 619.39 631.36 619.39"/>
        <polygon class="cls-5" points="612.96 619.39 606.77 586.43 605.48 586.67 611.62 619.39 606.58 619.39 606.58 620.71 618.19 620.71 618.19 619.39 612.96 619.39"/>
        <polygon class="cls-5" points="594.72 619.39 588.53 586.43 587.24 586.67 593.38 619.39 588.34 619.39 588.34 620.71 599.95 620.71 599.95 619.39 594.72 619.39"/>
        <polygon class="cls-5" points="580.53 542.33 586.72 575.28 588.02 575.04 581.88 542.33 586.91 542.33 586.91 541 575.3 541 575.3 542.33 580.53 542.33"/>
        <polygon class="cls-5" points="598.77 542.33 604.96 575.28 606.26 575.04 600.12 542.33 605.15 542.33 605.15 541 593.54 541 593.54 542.33 598.77 542.33"/>
        <polygon class="cls-5" points="617.17 542.33 623.36 575.28 624.65 575.04 618.51 542.33 623.55 542.33 623.55 541 611.94 541 611.94 542.33 617.17 542.33"/>
        <polygon class="cls-5" points="635.41 542.33 641.6 575.28 642.89 575.04 636.75 542.33 641.79 542.33 641.79 541 630.18 541 630.18 542.33 635.41 542.33"/>
        <polygon class="cls-5" points="661.87 719.28 655.69 686.33 654.39 686.57 660.53 719.28 655.49 719.28 655.49 720.6 667.1 720.6 667.1 719.28 661.87 719.28"/>
        <polygon class="cls-5" points="643.63 719.28 637.45 686.33 636.15 686.57 642.29 719.28 637.25 719.28 637.25 720.6 648.86 720.6 648.86 719.28 643.63 719.28"/>
        <polygon class="cls-5" points="625.23 719.28 619.05 686.33 617.75 686.57 623.89 719.28 618.86 719.28 618.86 720.6 630.46 720.6 630.46 719.28 625.23 719.28"/>
        <polygon class="cls-5" points="606.99 719.28 600.81 686.33 599.51 686.57 605.65 719.28 600.62 719.28 600.62 720.6 612.22 720.6 612.22 719.28 606.99 719.28"/>
        <polygon class="cls-5" points="592.8 642.97 598.99 675.93 600.29 675.68 594.15 642.97 599.18 642.97 599.18 641.65 587.57 641.65 587.57 642.97 592.8 642.97"/>
        <polygon class="cls-5" points="611.04 642.97 617.23 675.93 618.53 675.68 612.39 642.97 617.42 642.97 617.42 641.65 605.81 641.65 605.81 642.97 611.04 642.97"/>
        <polygon class="cls-5" points="629.44 642.97 635.63 675.93 636.93 675.68 630.79 642.97 635.82 642.97 635.82 641.65 624.21 641.65 624.21 642.97 629.44 642.97"/>
        <polygon class="cls-5" points="647.68 642.97 653.87 675.93 655.17 675.68 649.03 642.97 654.06 642.97 654.06 641.65 642.45 641.65 642.45 642.97 647.68 642.97"/>
        <polygon class="cls-5" points="840.85 746 847.03 778.96 848.33 778.72 842.19 746 847.22 746 847.22 744.68 835.62 744.68 835.62 746 840.85 746"/>
        <polygon class="cls-5" points="859.09 746 865.27 778.96 866.57 778.72 860.43 746 865.47 746 865.47 744.68 853.86 744.68 853.86 746 859.09 746"/>
        <polygon class="cls-5" points="877.48 746 883.67 778.96 884.97 778.72 878.83 746 883.86 746 883.86 744.68 872.25 744.68 872.25 746 877.48 746"/>
        <polygon class="cls-5" points="895.73 746 901.91 778.96 903.21 778.72 897.07 746 902.1 746 902.1 744.68 890.49 744.68 890.49 746 895.73 746"/>
        <polygon class="cls-5" points="913.02 746 919.21 778.96 920.51 778.72 914.36 746 919.4 746 919.4 744.68 907.79 744.68 907.79 746 913.02 746"/>
        <polygon class="cls-5" points="931.26 746 937.45 778.96 938.75 778.72 932.6 746 937.64 746 937.64 744.68 926.03 744.68 926.03 746 931.26 746"/>
        <polygon class="cls-5" points="949.66 746 955.85 778.96 957.14 778.72 951 746 956.04 746 956.04 744.68 944.43 744.68 944.43 746 949.66 746"/>
        <polygon class="cls-5" points="685.26 746 691.44 778.96 692.74 778.72 686.6 746 691.63 746 691.63 744.68 680.03 744.68 680.03 746 685.26 746"/>
        <polygon class="cls-5" points="705.24 746 711.42 778.96 712.72 778.72 706.58 746 711.61 746 711.61 744.68 700.01 744.68 700.01 746 705.24 746"/>
        <polygon class="cls-5" points="723.63 746 729.82 778.96 731.12 778.72 724.98 746 730.01 746 730.01 744.68 718.4 744.68 718.4 746 723.63 746"/>
        <polygon class="cls-5" points="741.87 746 748.06 778.96 749.36 778.72 743.22 746 748.25 746 748.25 744.68 736.64 744.68 736.64 746 741.87 746"/>
        <polygon class="cls-5" points="759.17 746 765.36 778.96 766.65 778.72 760.51 746 765.55 746 765.55 744.68 753.94 744.68 753.94 746 759.17 746"/>
        <polygon class="cls-5" points="777.41 746 783.6 778.96 784.89 778.72 778.75 746 783.79 746 783.79 744.68 772.18 744.68 772.18 746 777.41 746"/>
        <polygon class="cls-5" points="795.81 746 801.99 778.96 803.29 778.72 797.15 746 802.19 746 802.19 744.68 790.58 744.68 790.58 746 795.81 746"/>
        <polygon class="cls-5" points="814.05 746 820.23 778.96 821.53 778.72 815.39 746 820.43 746 820.43 744.68 808.82 744.68 808.82 746 814.05 746"/>
        <polygon class="cls-5" points="606.8 746.75 612.98 779.71 614.28 779.47 608.14 746.75 613.18 746.75 613.18 745.43 601.57 745.43 601.57 746.75 606.8 746.75"/>
        <polygon class="cls-5" points="625.04 746.75 631.22 779.71 632.52 779.47 626.38 746.75 631.42 746.75 631.42 745.43 619.81 745.43 619.81 746.75 625.04 746.75"/>
        <polygon class="cls-5" points="643.44 746.75 649.62 779.71 650.92 779.47 644.78 746.75 649.81 746.75 649.81 745.43 638.21 745.43 638.21 746.75 643.44 746.75"/>
        <polygon class="cls-5" points="661.68 746.75 667.86 779.71 669.16 779.47 663.02 746.75 668.05 746.75 668.05 745.43 656.45 745.43 656.45 746.75 661.68 746.75"/>
        <polygon class="cls-5" points="886.57 827.46 880.39 794.5 879.09 794.75 885.23 827.46 880.19 827.46 880.19 828.78 891.8 828.78 891.8 827.46 886.57 827.46"/>
        <polygon class="cls-5" points="868.18 827.46 861.99 794.5 860.69 794.75 866.83 827.46 861.8 827.46 861.8 828.78 873.41 828.78 873.41 827.46 868.18 827.46"/>
        <polygon class="cls-5" points="849.93 827.46 843.75 794.5 842.45 794.75 848.59 827.46 843.56 827.46 843.56 828.78 855.16 828.78 855.16 827.46 849.93 827.46"/>
        <polygon class="cls-5" points="823.14 827.46 816.95 794.5 815.65 794.75 821.79 827.46 816.76 827.46 816.76 828.78 828.37 828.78 828.37 827.46 823.14 827.46"/>
        <polygon class="cls-5" points="804.9 827.46 798.71 794.5 797.41 794.75 803.55 827.46 798.52 827.46 798.52 828.78 810.13 828.78 810.13 827.46 804.9 827.46"/>
        <polygon class="cls-5" points="786.5 827.46 780.31 794.5 779.01 794.75 785.15 827.46 780.12 827.46 780.12 828.78 791.73 828.78 791.73 827.46 786.5 827.46"/>
        <polygon class="cls-5" points="768.26 827.46 762.07 794.5 760.77 794.75 766.91 827.46 761.88 827.46 761.88 828.78 773.49 828.78 773.49 827.46 768.26 827.46"/>
        <polygon class="cls-5" points="750.96 827.46 744.78 794.5 743.48 794.75 749.62 827.46 744.58 827.46 744.58 828.78 756.19 828.78 756.19 827.46 750.96 827.46"/>
        <polygon class="cls-5" points="732.72 827.46 726.54 794.5 725.24 794.75 731.38 827.46 726.34 827.46 726.34 828.78 737.95 828.78 737.95 827.46 732.72 827.46"/>
        <polygon class="cls-5" points="714.32 827.46 708.14 794.5 706.84 794.75 712.98 827.46 707.95 827.46 707.95 828.78 719.55 828.78 719.55 827.46 714.32 827.46"/>
        <polygon class="cls-5" points="696.08 827.46 689.9 794.5 688.6 794.75 694.74 827.46 689.71 827.46 689.71 828.78 701.31 828.78 701.31 827.46 696.08 827.46"/>
        <polygon class="cls-5" points="670.76 828.21 664.58 795.25 663.28 795.49 669.42 828.21 664.39 828.21 664.39 829.53 675.99 829.53 675.99 828.21 670.76 828.21"/>
        <polygon class="cls-5" points="652.52 828.21 646.34 795.25 645.04 795.49 651.18 828.21 646.15 828.21 646.15 829.53 657.75 829.53 657.75 828.21 652.52 828.21"/>
        <polygon class="cls-5" points="634.13 828.21 627.94 795.25 626.64 795.49 632.78 828.21 627.75 828.21 627.75 829.53 639.36 829.53 639.36 828.21 634.13 828.21"/>
        <polygon class="cls-5" points="615.89 828.21 609.7 795.25 608.4 795.49 614.54 828.21 609.51 828.21 609.51 829.53 621.12 829.53 621.12 828.21 615.89 828.21"/>
        <polygon class="cls-4" points="898.94 795.79 901.49 809.35 902.02 809.25 899.5 795.79 901.57 795.79 901.57 795.25 896.79 795.25 896.79 795.79 898.94 795.79"/>
        <polygon class="cls-4" points="906.44 795.79 908.99 809.35 909.52 809.25 907 795.79 909.07 795.79 909.07 795.25 904.29 795.25 904.29 795.79 906.44 795.79"/>
        <polygon class="cls-4" points="914.01 795.79 916.55 809.35 917.09 809.25 914.56 795.79 916.63 795.79 916.63 795.25 911.86 795.25 911.86 795.79 914.01 795.79"/>
        <polygon class="cls-4" points="921.51 795.79 924.05 809.35 924.59 809.25 922.06 795.79 924.13 795.79 924.13 795.25 919.36 795.25 919.36 795.79 921.51 795.79"/>
        <polygon class="cls-4" points="928.62 795.79 931.17 809.35 931.7 809.25 929.18 795.79 931.25 795.79 931.25 795.25 926.47 795.25 926.47 795.79 928.62 795.79"/>
        <polygon class="cls-4" points="936.12 795.79 938.67 809.35 939.2 809.25 936.68 795.79 938.75 795.79 938.75 795.25 933.97 795.25 933.97 795.79 936.12 795.79"/>
        <polygon class="cls-4" points="943.69 795.79 946.23 809.35 946.77 809.25 944.24 795.79 946.31 795.79 946.31 795.25 941.54 795.25 941.54 795.79 943.69 795.79"/>
        <polygon class="cls-4" points="949.31 828.66 946.76 815.11 946.23 815.21 948.76 828.66 946.69 828.66 946.69 829.2 951.46 829.2 951.46 828.66 949.31 828.66"/>
        <polygon class="cls-4" points="941.81 828.66 939.26 815.11 938.73 815.21 941.25 828.66 939.18 828.66 939.18 829.2 943.96 829.2 943.96 828.66 941.81 828.66"/>
        <polygon class="cls-4" points="934.24 828.66 931.7 815.11 931.16 815.21 933.69 828.66 931.62 828.66 931.62 829.2 936.39 829.2 936.39 828.66 934.24 828.66"/>
        <polygon class="cls-4" points="926.74 828.66 924.2 815.11 923.66 815.21 926.19 828.66 924.12 828.66 924.12 829.2 928.89 829.2 928.89 828.66 926.74 828.66"/>
        <polygon class="cls-4" points="919.63 828.66 917.08 815.11 916.55 815.21 919.08 828.66 917.01 828.66 917.01 829.2 921.78 829.2 921.78 828.66 919.63 828.66"/>
        <polygon class="cls-4" points="912.13 828.66 909.58 815.11 909.05 815.21 911.58 828.66 909.51 828.66 909.51 829.2 914.28 829.2 914.28 828.66 912.13 828.66"/>
        <polygon class="cls-4" points="904.56 828.66 902.02 815.11 901.48 815.21 904.01 828.66 901.94 828.66 901.94 829.2 906.71 829.2 906.71 828.66 904.56 828.66"/>
        <polygon class="cls-4" points="950.83 795.96 953.37 809.51 953.9 809.41 951.38 795.96 953.45 795.96 953.45 795.41 948.68 795.41 948.68 795.96 950.83 795.96"/>
        <polygon class="cls-4" points="958.33 795.96 960.87 809.51 961.41 809.41 958.88 795.96 960.95 795.96 960.95 795.41 956.18 795.41 956.18 795.96 958.33 795.96"/>
        <polygon class="cls-4" points="965.89 795.96 968.44 809.51 968.97 809.41 966.45 795.96 968.52 795.96 968.52 795.41 963.74 795.41 963.74 795.96 965.89 795.96"/>
        <polygon class="cls-4" points="973.39 795.96 975.94 809.51 976.47 809.41 973.95 795.96 976.02 795.96 976.02 795.41 971.24 795.41 971.24 795.96 973.39 795.96"/>
        <polygon class="cls-4" points="980.51 795.96 983.05 809.51 983.58 809.41 981.06 795.96 983.13 795.96 983.13 795.41 978.36 795.41 978.36 795.96 980.51 795.96"/>
        <polygon class="cls-4" points="986.13 828.82 983.58 815.27 983.05 815.37 985.57 828.82 983.5 828.82 983.5 829.36 988.28 829.36 988.28 828.82 986.13 828.82"/>
        <polygon class="cls-4" points="978.62 828.82 976.08 815.27 975.55 815.37 978.07 828.82 976 828.82 976 829.36 980.78 829.36 980.78 828.82 978.62 828.82"/>
        <polygon class="cls-4" points="971.51 828.82 968.97 815.27 968.43 815.37 970.96 828.82 968.89 828.82 968.89 829.36 973.66 829.36 973.66 828.82 971.51 828.82"/>
        <polygon class="cls-4" points="964.01 828.82 961.47 815.27 960.93 815.37 963.46 828.82 961.39 828.82 961.39 829.36 966.16 829.36 966.16 828.82 964.01 828.82"/>
        <polygon class="cls-4" points="956.45 828.82 953.9 815.27 953.37 815.37 955.89 828.82 953.82 828.82 953.82 829.36 958.6 829.36 958.6 828.82 956.45 828.82"/>
        <polygon class="cls-5" points="208.26 359.76 201.34 322.91 199.89 323.18 206.76 359.76 201.13 359.76 201.13 361.24 214.11 361.24 214.11 359.76 208.26 359.76"/>
        <polygon class="cls-5" points="187.86 359.76 180.95 322.91 179.49 323.18 186.36 359.76 180.73 359.76 180.73 361.24 193.71 361.24 193.71 359.76 187.86 359.76"/>
        <polygon class="cls-5" points="167.29 359.76 160.37 322.91 158.92 323.18 165.79 359.76 160.16 359.76 160.16 361.24 173.14 361.24 173.14 359.76 167.29 359.76"/>
        <polygon class="cls-5" points="146.89 359.76 139.98 322.91 138.52 323.18 145.39 359.76 139.76 359.76 139.76 361.24 152.74 361.24 152.74 359.76 146.89 359.76"/>
        <polygon class="cls-5" points="131.03 274.42 137.95 311.28 139.4 311.01 132.53 274.42 138.16 274.42 138.16 272.95 125.18 272.95 125.18 274.42 131.03 274.42"/>
        <polygon class="cls-5" points="151.42 274.42 158.34 311.28 159.79 311.01 152.93 274.42 158.56 274.42 158.56 272.95 145.58 272.95 145.58 274.42 151.42 274.42"/>
        <polygon class="cls-5" points="172 274.42 178.92 311.28 180.37 311.01 173.5 274.42 179.13 274.42 179.13 272.95 166.15 272.95 166.15 274.42 172 274.42"/>
        <polygon class="cls-5" points="192.39 274.42 199.31 311.28 200.76 311.01 193.9 274.42 199.53 274.42 199.53 272.95 186.55 272.95 186.55 274.42 192.39 274.42"/>
        <polygon class="cls-5" points="588.82 357.81 581.9 320.95 580.45 321.23 587.32 357.81 581.69 357.81 581.69 359.28 594.67 359.28 594.67 357.81 588.82 357.81"/>
        <polygon class="cls-5" points="568.43 357.81 561.51 320.95 560.06 321.23 566.92 357.81 561.29 357.81 561.29 359.28 574.27 359.28 574.27 357.81 568.43 357.81"/>
        <polygon class="cls-5" points="552.56 272.47 559.48 309.32 560.93 309.05 554.06 272.47 559.69 272.47 559.69 270.99 546.71 270.99 546.71 272.47 552.56 272.47"/>
        <polygon class="cls-5" points="572.96 272.47 579.87 309.32 581.33 309.05 574.46 272.47 580.09 272.47 580.09 270.99 567.11 270.99 567.11 272.47 572.96 272.47"/>
        <polygon class="cls-5" points="374.69 196.53 381.61 233.39 383.06 233.11 376.2 196.53 381.82 196.53 381.82 195.06 368.84 195.06 368.84 196.53 374.69 196.53"/>
        <polygon class="cls-5" points="395.09 196.53 402.01 233.39 403.46 233.11 396.59 196.53 402.22 196.53 402.22 195.06 389.24 195.06 389.24 196.53 395.09 196.53"/>
        <polygon class="cls-5" points="415.66 196.53 422.58 233.39 424.03 233.11 417.16 196.53 422.79 196.53 422.79 195.06 409.81 195.06 409.81 196.53 415.66 196.53"/>
        <polygon class="cls-5" points="436.06 196.53 442.98 233.39 444.43 233.11 437.56 196.53 443.19 196.53 443.19 195.06 430.21 195.06 430.21 196.53 436.06 196.53"/>
        <polygon class="cls-5" points="455.4 196.53 462.32 233.39 463.77 233.11 456.9 196.53 462.53 196.53 462.53 195.06 449.55 195.06 449.55 196.53 455.4 196.53"/>
        <polygon class="cls-5" points="475.79 196.53 482.71 233.39 484.16 233.11 477.3 196.53 482.93 196.53 482.93 195.06 469.95 195.06 469.95 196.53 475.79 196.53"/>
        <polygon class="cls-5" points="496.37 196.53 503.29 233.39 504.74 233.11 497.87 196.53 503.5 196.53 503.5 195.06 490.52 195.06 490.52 196.53 496.37 196.53"/>
        <polygon class="cls-5" points="516.76 196.53 523.68 233.39 525.13 233.11 518.27 196.53 523.9 196.53 523.9 195.06 510.92 195.06 510.92 196.53 516.76 196.53"/>
        <polygon class="cls-5" points="542.05 196.27 548.96 233.12 550.42 232.85 543.55 196.27 549.18 196.27 549.18 194.79 536.2 194.79 536.2 196.27 542.05 196.27"/>
        <polygon class="cls-5" points="562.44 196.27 569.36 233.12 570.81 232.85 563.95 196.27 569.58 196.27 569.58 194.79 556.59 194.79 556.59 196.27 562.44 196.27"/>
        <g>
          <path class="cls-2" d="M692.41,552.41c.43,0,.83,0,1.23,0,.16,0,.32,0,.48,0,.26,0,.42.12.42.32,0,.21-.15.33-.43.33-.23,0-.46,0-.68,0-.33,0-.66,0-1.01,0v1.39c.07,0,.15.01.23.01.74,0,1.48,0,2.23,0,.45,0,.61.11.73.54.19.64.39,1.28.57,1.92.05.18.13.24.3.22.11-.01.22,0,.33,0,.2.02.33.15.33.32,0,.17-.13.31-.33.32-.21,0-.43.01-.64,0-.29-.02-.46-.2-.54-.47-.2-.67-.41-1.33-.6-2-.05-.16-.12-.21-.29-.21-.77.01-1.54,0-2.31,0-.44,0-.66-.22-.66-.66,0-.98,0-1.95,0-2.93,0-.16-.03-.26-.19-.34-.45-.22-.67-.74-.54-1.23.12-.47.56-.81,1.06-.81.5,0,.94.34,1.05.81.12.49-.1,1-.55,1.22-.15.08-.19.16-.19.32.01.29,0,.59,0,.92ZM692.09,549.77c-.24,0-.45.2-.45.45,0,.24.19.43.43.44.25,0,.45-.19.46-.43,0-.24-.2-.45-.44-.46Z"/>
          <path class="cls-2" d="M690.22,548.31c0,.61,0,1.16,0,1.71,0,.35-.1.5-.32.5-.23,0-.32-.15-.32-.5,0-1.57,0-3.15,0-4.72,0-.37.09-.46.45-.46.47,0,.94-.01,1.41.01.89.05,1.61.79,1.63,1.66.02.92-.63,1.69-1.54,1.78-.42.04-.85,0-1.31,0ZM690.23,547.69c.34,0,.66,0,.97,0,.07,0,.15,0,.22,0,.53-.06.96-.5,1-1.04.04-.48-.32-1.02-.82-1.11-.45-.08-.91-.05-1.37-.08v2.23Z"/>
          <path class="cls-2" d="M692.64,558.84c-1.47-.03-2.77-.96-3.23-2.35-.46-1.38.01-2.9,1.18-3.78.06-.04.12-.09.18-.12.16-.08.31-.04.41.1.1.14.08.28-.04.4-.04.05-.1.08-.16.12-1.26.95-1.47,2.73-.48,3.95.97,1.2,2.75,1.36,3.93.35.05-.04.1-.09.15-.13.16-.13.33-.13.46,0,.13.13.13.32-.02.47-.43.43-.94.73-1.53.87-.28.07-.56.09-.85.13Z"/>
        </g>
        <g>
          <path class="cls-2" d="M669.84,552.41c.43,0,.83,0,1.23,0,.16,0,.32,0,.48,0,.26,0,.42.12.42.32,0,.21-.15.33-.43.33-.23,0-.46,0-.68,0-.33,0-.66,0-1.01,0v1.39c.07,0,.15.01.23.01.74,0,1.48,0,2.23,0,.45,0,.61.11.73.54.19.64.39,1.28.57,1.92.05.18.13.24.3.22.11-.01.22,0,.33,0,.2.02.33.15.33.32,0,.17-.13.31-.33.32-.21,0-.43.01-.64,0-.29-.02-.46-.2-.54-.47-.2-.67-.41-1.33-.6-2-.05-.16-.12-.21-.29-.21-.77.01-1.54,0-2.31,0-.44,0-.66-.22-.66-.66,0-.98,0-1.95,0-2.93,0-.16-.03-.26-.19-.34-.45-.22-.67-.74-.54-1.23.12-.47.56-.81,1.06-.81.5,0,.94.34,1.05.81.12.49-.1,1-.55,1.22-.15.08-.19.16-.19.32.01.29,0,.59,0,.92ZM669.53,549.77c-.24,0-.45.2-.45.45,0,.24.19.43.43.44.25,0,.45-.19.46-.43,0-.24-.2-.45-.44-.46Z"/>
          <path class="cls-2" d="M667.65,548.31c0,.61,0,1.16,0,1.71,0,.35-.1.5-.32.5-.23,0-.32-.15-.32-.5,0-1.57,0-3.15,0-4.72,0-.37.09-.46.45-.46.47,0,.94-.01,1.41.01.89.05,1.61.79,1.63,1.66.02.92-.63,1.69-1.54,1.78-.42.04-.85,0-1.31,0ZM667.67,547.69c.34,0,.66,0,.97,0,.07,0,.15,0,.22,0,.53-.06.96-.5,1-1.04.04-.48-.32-1.02-.82-1.11-.45-.08-.91-.05-1.37-.08v2.23Z"/>
          <path class="cls-2" d="M670.08,558.84c-1.47-.03-2.77-.96-3.23-2.35-.46-1.38.01-2.9,1.18-3.78.06-.04.12-.09.18-.12.16-.08.31-.04.41.1.1.14.08.28-.04.4-.04.05-.1.08-.16.12-1.26.95-1.47,2.73-.48,3.95.97,1.2,2.75,1.36,3.93.35.05-.04.1-.09.15-.13.16-.13.33-.13.46,0,.13.13.13.32-.02.47-.43.43-.94.73-1.53.87-.28.07-.56.09-.85.13Z"/>
        </g>
        <g>
          <path class="cls-2" d="M146.23,284.34c.43,0,.83,0,1.23,0,.16,0,.32,0,.48,0,.26,0,.42.12.42.32,0,.21-.15.33-.43.33-.23,0-.46,0-.68,0-.33,0-.66,0-1.01,0v1.39c.07,0,.15.01.23.01.74,0,1.48,0,2.23,0,.45,0,.61.11.73.54.19.64.39,1.28.57,1.92.05.18.13.24.3.22.11-.01.22,0,.33,0,.2.02.33.15.33.32,0,.17-.13.31-.33.32-.21,0-.43.01-.64,0-.29-.02-.46-.2-.54-.47-.2-.67-.41-1.33-.6-2-.05-.16-.12-.21-.29-.21-.77.01-1.54,0-2.31,0-.44,0-.66-.22-.66-.66,0-.98,0-1.95,0-2.93,0-.16-.03-.26-.19-.34-.45-.22-.67-.74-.54-1.23.12-.47.56-.81,1.06-.81.5,0,.94.34,1.05.81.12.49-.1,1-.55,1.22-.15.08-.19.16-.19.32.01.29,0,.59,0,.92ZM145.92,281.7c-.24,0-.45.2-.45.45,0,.24.19.43.43.44.25,0,.45-.19.46-.43,0-.24-.2-.45-.44-.46Z"/>
          <path class="cls-2" d="M144.04,280.24c0,.61,0,1.16,0,1.71,0,.35-.1.5-.32.5-.23,0-.32-.15-.32-.5,0-1.57,0-3.15,0-4.72,0-.37.09-.46.45-.46.47,0,.94-.01,1.41.01.89.05,1.61.79,1.63,1.66.02.92-.63,1.69-1.54,1.78-.42.04-.85,0-1.31,0ZM144.06,279.62c.34,0,.66,0,.97,0,.07,0,.15,0,.22,0,.53-.06.96-.5,1-1.04.04-.48-.32-1.02-.82-1.11-.45-.08-.91-.05-1.37-.08v2.23Z"/>
          <path class="cls-2" d="M146.46,290.77c-1.47-.03-2.77-.96-3.23-2.35-.46-1.38.01-2.9,1.18-3.78.06-.04.12-.09.18-.12.16-.08.31-.04.41.1.1.14.08.28-.04.4-.04.05-.1.08-.16.12-1.26.95-1.47,2.73-.48,3.95.97,1.2,2.75,1.36,3.93.35.05-.04.1-.09.15-.13.16-.13.33-.13.46,0,.13.13.13.32-.02.47-.43.43-.94.73-1.53.87-.28.07-.56.09-.85.13Z"/>
        </g>
        <g>
          <path class="cls-2" d="M184.26,284.34c.43,0,.83,0,1.23,0,.16,0,.32,0,.48,0,.26,0,.42.12.42.32,0,.21-.15.33-.43.33-.23,0-.46,0-.68,0-.33,0-.66,0-1.01,0v1.39c.07,0,.15.01.23.01.74,0,1.48,0,2.23,0,.45,0,.61.11.73.54.19.64.39,1.28.57,1.92.05.18.13.24.3.22.11-.01.22,0,.33,0,.2.02.33.15.33.32,0,.17-.13.31-.33.32-.21,0-.43.01-.64,0-.29-.02-.46-.2-.54-.47-.2-.67-.41-1.33-.6-2-.05-.16-.12-.21-.29-.21-.77.01-1.54,0-2.31,0-.44,0-.66-.22-.66-.66,0-.98,0-1.95,0-2.93,0-.16-.03-.26-.19-.34-.45-.22-.67-.74-.54-1.23.12-.47.56-.81,1.06-.81.5,0,.94.34,1.05.81.12.49-.1,1-.55,1.22-.15.08-.19.16-.19.32.01.29,0,.59,0,.92ZM183.95,281.7c-.24,0-.45.2-.45.45,0,.24.19.43.43.44.25,0,.45-.19.46-.43,0-.24-.2-.45-.44-.46Z"/>
          <path class="cls-2" d="M182.07,280.24c0,.61,0,1.16,0,1.71,0,.35-.1.5-.32.5-.23,0-.32-.15-.32-.5,0-1.57,0-3.15,0-4.72,0-.37.09-.46.45-.46.47,0,.94-.01,1.41.01.89.05,1.61.79,1.63,1.66.02.92-.63,1.69-1.54,1.78-.42.04-.85,0-1.31,0ZM182.09,279.62c.34,0,.66,0,.97,0,.07,0,.15,0,.22,0,.53-.06.96-.5,1-1.04.04-.48-.32-1.02-.82-1.11-.45-.08-.91-.05-1.37-.08v2.23Z"/>
          <path class="cls-2" d="M184.5,290.77c-1.47-.03-2.77-.96-3.23-2.35-.46-1.38.01-2.9,1.18-3.78.06-.04.12-.09.18-.12.16-.08.31-.04.41.1.1.14.08.28-.04.4-.04.05-.1.08-.16.12-1.26.95-1.47,2.73-.48,3.95.97,1.2,2.75,1.36,3.93.35.05-.04.1-.09.15-.13.16-.13.33-.13.46,0,.13.13.13.32-.02.47-.43.43-.94.73-1.53.87-.28.07-.56.09-.85.13Z"/>
        </g>
        <g>
          <path class="cls-2" d="M165.66,284.34c.43,0,.83,0,1.23,0,.16,0,.32,0,.48,0,.26,0,.42.12.42.32,0,.21-.15.33-.43.33-.23,0-.46,0-.68,0-.33,0-.66,0-1.01,0v1.39c.07,0,.15.01.23.01.74,0,1.48,0,2.23,0,.45,0,.61.11.73.54.19.64.39,1.28.57,1.92.05.18.13.24.3.22.11-.01.22,0,.33,0,.2.02.33.15.33.32,0,.17-.13.31-.33.32-.21,0-.43.01-.64,0-.29-.02-.46-.2-.54-.47-.2-.67-.41-1.33-.6-2-.05-.16-.12-.21-.29-.21-.77.01-1.54,0-2.31,0-.44,0-.66-.22-.66-.66,0-.98,0-1.95,0-2.93,0-.16-.03-.26-.19-.34-.45-.22-.67-.74-.54-1.23.12-.47.56-.81,1.06-.81.5,0,.94.34,1.05.81.12.49-.1,1-.55,1.22-.15.08-.19.16-.19.32.01.29,0,.59,0,.92ZM165.35,281.7c-.24,0-.45.2-.45.45,0,.24.19.43.43.44.25,0,.45-.19.46-.43,0-.24-.2-.45-.44-.46Z"/>
          <path class="cls-2" d="M163.47,280.24c0,.61,0,1.16,0,1.71,0,.35-.1.5-.32.5-.23,0-.32-.15-.32-.5,0-1.57,0-3.15,0-4.72,0-.37.09-.46.45-.46.47,0,.94-.01,1.41.01.89.05,1.61.79,1.63,1.66.02.92-.63,1.69-1.54,1.78-.42.04-.85,0-1.31,0ZM163.49,279.62c.34,0,.66,0,.97,0,.07,0,.15,0,.22,0,.53-.06.96-.5,1-1.04.04-.48-.32-1.02-.82-1.11-.45-.08-.91-.05-1.37-.08v2.23Z"/>
          <path class="cls-2" d="M165.89,290.77c-1.47-.03-2.77-.96-3.23-2.35-.46-1.38.01-2.9,1.18-3.78.06-.04.12-.09.18-.12.16-.08.31-.04.41.1.1.14.08.28-.04.4-.04.05-.1.08-.16.12-1.26.95-1.47,2.73-.48,3.95.97,1.2,2.75,1.36,3.93.35.05-.04.1-.09.15-.13.16-.13.33-.13.46,0,.13.13.13.32-.02.47-.43.43-.94.73-1.53.87-.28.07-.56.09-.85.13Z"/>
        </g>
        <g>
          <path class="cls-2" d="M783.99,553.59c.43,0,.83,0,1.23,0,.16,0,.32,0,.48,0,.26,0,.42.12.42.32,0,.21-.15.33-.43.33-.23,0-.46,0-.68,0-.33,0-.66,0-1.01,0v1.39c.07,0,.15.01.23.01.74,0,1.48,0,2.23,0,.45,0,.61.11.73.54.19.64.39,1.28.57,1.92.05.18.13.24.3.22.11-.01.22,0,.33,0,.2.02.33.15.33.32,0,.17-.13.31-.33.32-.21,0-.43.01-.64,0-.29-.02-.46-.2-.54-.47-.2-.67-.41-1.33-.6-2-.05-.16-.12-.21-.29-.21-.77.01-1.54,0-2.31,0-.44,0-.66-.22-.66-.66,0-.98,0-1.95,0-2.93,0-.16-.03-.26-.19-.34-.45-.22-.67-.74-.54-1.23.12-.47.56-.81,1.06-.81.5,0,.94.34,1.05.81.12.49-.1,1-.55,1.22-.15.08-.19.16-.19.32.01.29,0,.59,0,.92ZM783.67,550.95c-.24,0-.45.2-.45.45,0,.24.19.43.43.44.25,0,.45-.19.46-.43,0-.24-.2-.45-.44-.46Z"/>
          <path class="cls-2" d="M781.79,549.5c0,.61,0,1.16,0,1.71,0,.35-.1.5-.32.5-.23,0-.32-.15-.32-.5,0-1.57,0-3.15,0-4.72,0-.37.09-.46.45-.46.47,0,.94-.01,1.41.01.89.05,1.61.79,1.63,1.66.02.92-.63,1.69-1.54,1.78-.42.04-.85,0-1.31,0ZM781.81,548.87c.34,0,.66,0,.97,0,.07,0,.15,0,.22,0,.53-.06.96-.5,1-1.04.04-.48-.32-1.02-.82-1.11-.45-.08-.91-.05-1.37-.08v2.23Z"/>
          <path class="cls-2" d="M784.22,560.02c-1.47-.03-2.77-.96-3.23-2.35-.46-1.38.01-2.9,1.18-3.78.06-.04.12-.09.18-.12.16-.08.31-.04.41.1.1.14.08.28-.04.4-.04.05-.1.08-.16.12-1.26.95-1.47,2.73-.48,3.95.97,1.2,2.75,1.36,3.93.35.05-.04.1-.09.15-.13.16-.13.33-.13.46,0,.13.13.13.32-.02.47-.43.43-.94.73-1.53.87-.28.07-.56.09-.85.13Z"/>
        </g>
        <g>
          <path class="cls-2" d="M803.42,553.59c.43,0,.83,0,1.23,0,.16,0,.32,0,.48,0,.26,0,.42.12.42.32,0,.21-.15.33-.43.33-.23,0-.46,0-.68,0-.33,0-.66,0-1.01,0v1.39c.07,0,.15.01.23.01.74,0,1.48,0,2.23,0,.45,0,.61.11.73.54.19.64.39,1.28.57,1.92.05.18.13.24.3.22.11-.01.22,0,.33,0,.2.02.33.15.33.32,0,.17-.13.31-.33.32-.21,0-.43.01-.64,0-.29-.02-.46-.2-.54-.47-.2-.67-.41-1.33-.6-2-.05-.16-.12-.21-.29-.21-.77.01-1.54,0-2.31,0-.44,0-.66-.22-.66-.66,0-.98,0-1.95,0-2.93,0-.16-.03-.26-.19-.34-.45-.22-.67-.74-.54-1.23.12-.47.56-.81,1.06-.81.5,0,.94.34,1.05.81.12.49-.1,1-.55,1.22-.15.08-.19.16-.19.32.01.29,0,.59,0,.92ZM803.1,550.95c-.24,0-.45.2-.45.45,0,.24.19.43.43.44.25,0,.45-.19.46-.43,0-.24-.2-.45-.44-.46Z"/>
          <path class="cls-2" d="M801.23,549.5c0,.61,0,1.16,0,1.71,0,.35-.1.5-.32.5-.23,0-.32-.15-.32-.5,0-1.57,0-3.15,0-4.72,0-.37.09-.46.45-.46.47,0,.94-.01,1.41.01.89.05,1.61.79,1.63,1.66.02.92-.63,1.69-1.54,1.78-.42.04-.85,0-1.31,0ZM801.24,548.87c.34,0,.66,0,.97,0,.07,0,.15,0,.22,0,.53-.06.96-.5,1-1.04.04-.48-.32-1.02-.82-1.11-.45-.08-.91-.05-1.37-.08v2.23Z"/>
          <path class="cls-2" d="M803.65,560.02c-1.47-.03-2.77-.96-3.23-2.35-.46-1.38.01-2.9,1.18-3.78.06-.04.12-.09.18-.12.16-.08.31-.04.41.1.1.14.08.28-.04.4-.04.05-.1.08-.16.12-1.26.95-1.47,2.73-.48,3.95.97,1.2,2.75,1.36,3.93.35.05-.04.1-.09.15-.13.16-.13.33-.13.46,0,.13.13.13.32-.02.47-.43.43-.94.73-1.53.87-.28.07-.56.09-.85.13Z"/>
        </g>
        <path class="cls-6" d="M643.75,809.75c.03.14.05.24.08.34.28,1.23.58,2.45.82,3.68.22,1.09.58,2.1,1.11,3.08.92,1.68.33,3.69-1.32,4.67-.86.52-1.8.83-2.78,1.05-.89.2-1.8.3-2.71.22-2.02-.17-3.41-1.66-3.31-3.68.06-1.16-.06-2.28-.36-3.39-.02-.06-.03-.13-.04-.19-.03-.25.1-.45.31-.5.21-.05.41.08.49.32.03.1.06.2.07.3.09.86.51,1.57,1.03,2.3.13-.57.26-1.11.38-1.65,0-.04-.02-.09-.03-.13-.1-.28-.24-.55-.31-.83-.31-1.33-.61-2.67-.9-4.01-.04-.18-.09-.38-.05-.55.07-.28-.05-.41-.3-.53-.11.43-.37.75-.71,1.01-.05.04-.07.16-.05.24.13.61.28,1.23.42,1.84.08.34-.02.55-.28.61-.26.06-.45-.09-.53-.44-.12-.53-.24-1.06-.37-1.64-.12.08-.22.14-.31.2-.33.2-.69.15-.95-.12-.69-.73-.66-1.63.05-2.32.07-.07.1-.23.08-.34-.22-1.01-.46-2.01-.68-3.02-.38-1.74.42-3.37,2.02-4.05.5-.21,1.04-.3,1.57-.43.83-.2,1.67-.38,2.5-.56,2.07-.44,3.85.7,4.32,2.77.22.98.44,1.96.65,2.94.04.18.11.26.29.31.9.27,1.33,1.29.93,2.14-.13.27-.41.44-.71.41-.13-.01-.26-.03-.44-.06ZM635.65,802.76c.07.29.13.55.18.82.1.54-.13,1.07-.58,1.33-.16.09-.35.14-.53.19-.46.11-.93.21-1.43.32l.59,2.64c2.51-2.46,5.41-3.13,8.71-1.96l-.59-2.64c-.51.12-.98.22-1.44.32-.86.19-1.46-.19-1.66-1.04-.05-.22-.1-.45-.15-.68l-3.1.7ZM644.88,816.92c-.12.22-.19.47-.34.62-.26.26-.56.5-.88.69-1.55.9-3.24,1.29-5.02,1.23-.8-.03-1.66-.04-2.14-.92-.04.26-.06.5-.06.74,0,1.39,1.03,2.56,2.42,2.68,1.61.14,3.14-.18,4.6-.84.55-.25,1.07-.55,1.42-1.07.69-1.04.63-2.08,0-3.13ZM637.55,813.23c.16.73.33,1.46.49,2.2.05.25.18.34.44.28,1.08-.25,2.16-.49,3.24-.73.25-.06.35-.17.29-.44-.33-1.45-.66-2.91-.98-4.37-.06-.26-.18-.34-.44-.28-1.08.25-2.16.49-3.24.73-.31.07-.35.15-.28.46.16.71.32,1.43.48,2.14ZM641.77,806.73c-2.1-.88-5.44-.08-6.85,1.54.61.51,1.22,1.03,1.83,1.54.06.05.17.06.25.05,1.19-.26,2.38-.53,3.57-.8.08-.02.17-.09.2-.16.33-.71.66-1.43.99-2.17ZM637.85,818.57c2.06.25,3.94-.17,5.72-1.22-.43-.54-.82-1.04-1.22-1.54-.04-.05-.16-.09-.23-.08-1.26.28-2.53.56-3.8.85-.15.64-.3,1.29-.46,1.99ZM641.63,809.02c-.11.15-.16.33.03.55.11.12.15.32.19.49.32,1.41.64,2.82.95,4.23.03.12.08.25.05.36-.1.38.1.63.33.89.07.08.13.16.19.24.21.26.41.52.62.78.09-.5.2-.99.11-1.44-.37-1.85-.81-3.68-1.2-5.44-.44-.23-.84-.44-1.26-.65ZM634.87,809.42c-.39.29-.79.56-1.16.87-.33.26-.3.74.04,1.02.37-.27.74-.54,1.1-.82.38-.29.38-.74.02-1.07ZM644.15,808.98c.12-.48-.02-.83-.4-.93-.48-.13-.98-.21-1.47-.31-.15.45.02.85.42.94.47.12.95.2,1.44.29ZM641.47,802.73c-.56-.53-1.16-.78-1.9-.79.06.27.11.51.17.74.07.25.25.37.51.31.38-.08.77-.17,1.22-.27ZM634.86,803.03c-.63.26-1.22.92-1.33,1.49.41-.09.81-.17,1.21-.27.22-.06.32-.23.29-.45-.04-.25-.11-.49-.17-.76Z"/>
        <path class="cls-6" d="M392.26,338.83c.04.18.06.32.09.45.33,1.65.69,3.3.98,4.96.25,1.46.7,2.83,1.39,4.15,1.18,2.28.32,4.94-1.91,6.21-1.17.66-2.44,1.06-3.75,1.32-1.2.24-2.41.34-3.64.21-2.69-.29-4.51-2.33-4.31-5.03.11-1.55-.01-3.05-.38-4.55-.02-.09-.04-.17-.05-.26-.03-.33.15-.6.44-.65.29-.05.55.12.65.45.04.13.07.27.08.41.09,1.16.64,2.12,1.31,3.11.19-.76.38-1.48.56-2.2.01-.05-.02-.12-.04-.18-.13-.38-.31-.74-.39-1.13-.38-1.8-.73-3.6-1.08-5.4-.05-.24-.11-.52-.05-.74.1-.38-.05-.56-.38-.72-.16.57-.51.99-.99,1.32-.07.05-.09.21-.08.31.16.83.33,1.65.5,2.48.09.45-.05.73-.39.81-.36.08-.6-.13-.7-.6-.15-.71-.29-1.43-.44-2.2-.17.1-.3.19-.43.26-.44.26-.93.18-1.26-.19-.89-1-.83-2.21.15-3.11.1-.09.14-.31.11-.45-.26-1.36-.55-2.71-.81-4.07-.45-2.34.67-4.5,2.83-5.35.67-.26,1.41-.37,2.12-.52,1.12-.24,2.24-.46,3.37-.67,2.78-.52,5.13,1.07,5.69,3.85.27,1.32.53,2.64.78,3.96.05.24.14.35.38.43,1.19.39,1.74,1.77,1.18,2.9-.18.35-.56.57-.96.53-.17-.02-.34-.05-.58-.09ZM381.64,329.22c.08.39.16.75.22,1.1.12.73-.2,1.43-.82,1.76-.22.11-.47.18-.71.23-.62.14-1.25.25-1.92.39l.71,3.56c3.43-3.22,7.34-4.01,11.72-2.35l-.71-3.55c-.69.14-1.32.26-1.94.39-1.15.23-1.94-.3-2.18-1.45-.06-.3-.12-.6-.18-.91l-4.18.83ZM393.55,348.45c-.17.3-.27.62-.48.82-.36.34-.77.66-1.2.89-2.1,1.15-4.37,1.63-6.76,1.49-1.08-.06-2.22-.11-2.84-1.29-.06.34-.09.66-.1.99-.05,1.86,1.3,3.46,3.16,3.67,2.15.24,4.2-.15,6.18-.98.75-.32,1.45-.71,1.93-1.39.96-1.37.91-2.77.11-4.19ZM383.85,343.28c.2.99.4,1.97.59,2.96.07.34.23.47.58.39,1.45-.3,2.91-.59,4.36-.87.34-.07.47-.22.4-.57-.4-1.96-.79-3.92-1.17-5.88-.07-.34-.23-.47-.58-.39-1.45.3-2.91.58-4.36.88-.41.08-.47.18-.39.61.19.96.38,1.92.58,2.88ZM389.71,334.71c-2.79-1.25-7.28-.27-9.21,1.85.8.71,1.59,1.42,2.4,2.11.08.07.23.09.33.07,1.6-.31,3.21-.63,4.81-.96.1-.02.23-.11.27-.2.47-.94.93-1.9,1.4-2.87ZM384.08,350.45c2.75.4,5.28-.11,7.69-1.46-.56-.74-1.07-1.42-1.59-2.09-.06-.07-.21-.13-.3-.11-1.7.33-3.4.67-5.12,1.02-.22.86-.44,1.72-.68,2.65ZM389.45,337.77c-.15.2-.23.44.02.74.14.17.19.44.23.67.39,1.9.76,3.79,1.14,5.69.03.16.09.34.05.48-.15.51.12.85.41,1.2.09.1.17.22.25.33.27.35.53.7.8,1.06.13-.67.3-1.32.2-1.93-.44-2.48-.97-4.95-1.44-7.32-.59-.32-1.11-.61-1.67-.92ZM380.39,338.1c-.53.37-1.07.73-1.58,1.13-.44.34-.42.98.02,1.37.5-.35,1.01-.69,1.5-1.06.51-.38.54-.98.06-1.43ZM392.82,337.81c.17-.64,0-1.11-.5-1.26-.64-.19-1.31-.31-1.95-.46-.22.6,0,1.13.53,1.28.63.17,1.27.29,1.92.44ZM389.43,329.36c-.74-.72-1.53-1.08-2.51-1.11.07.37.13.69.2,1,.08.34.32.5.67.44.52-.09,1.03-.2,1.64-.32ZM380.57,329.54c-.85.33-1.66,1.2-1.82,1.95.55-.11,1.09-.21,1.63-.33.3-.07.44-.29.4-.59-.05-.33-.13-.66-.2-1.02Z"/>
        <path class="cls-6" d="M626.67,812.31c.03.14.05.24.08.34.28,1.23.58,2.45.82,3.68.22,1.09.58,2.1,1.11,3.08.92,1.68.33,3.69-1.32,4.67-.86.52-1.8.83-2.78,1.05-.89.2-1.8.3-2.71.22-2.02-.17-3.41-1.66-3.31-3.68.06-1.16-.06-2.28-.36-3.39-.02-.06-.03-.13-.04-.19-.03-.25.1-.45.31-.5.21-.05.41.08.49.32.03.1.06.2.07.3.09.86.51,1.57,1.03,2.3.13-.57.26-1.11.38-1.65,0-.04-.02-.09-.03-.13-.1-.28-.24-.55-.31-.83-.31-1.33-.61-2.67-.9-4.01-.04-.18-.09-.38-.05-.55.07-.28-.05-.41-.3-.53-.11.43-.37.75-.71,1.01-.05.04-.07.16-.05.24.13.61.28,1.23.42,1.84.08.34-.02.55-.28.61-.26.06-.45-.09-.53-.44-.12-.53-.24-1.06-.37-1.64-.12.08-.22.14-.31.2-.33.2-.69.15-.95-.12-.69-.73-.66-1.63.05-2.32.07-.07.1-.23.08-.34-.22-1.01-.46-2.01-.68-3.02-.38-1.74.42-3.37,2.02-4.05.5-.21,1.04-.3,1.57-.43.83-.2,1.67-.38,2.5-.56,2.07-.44,3.85.7,4.32,2.77.22.98.44,1.96.65,2.94.04.18.11.26.29.31.9.27,1.33,1.29.93,2.14-.13.27-.41.44-.71.41-.13-.01-.26-.03-.44-.06ZM618.56,805.32c.07.29.13.55.18.82.1.54-.13,1.07-.58,1.33-.16.09-.35.14-.53.19-.46.11-.93.21-1.43.32l.59,2.64c2.51-2.46,5.41-3.13,8.71-1.96l-.59-2.64c-.51.12-.98.22-1.44.32-.86.19-1.46-.19-1.66-1.04-.05-.22-.1-.45-.15-.68l-3.1.7ZM627.8,819.47c-.12.22-.19.47-.34.62-.26.26-.56.5-.88.69-1.55.9-3.24,1.29-5.02,1.23-.8-.03-1.66-.04-2.14-.92-.04.26-.06.5-.06.74,0,1.39,1.03,2.56,2.42,2.68,1.61.14,3.14-.18,4.6-.84.55-.25,1.07-.55,1.42-1.07.69-1.04.63-2.08,0-3.13ZM620.46,815.79c.16.73.33,1.46.49,2.2.05.25.18.34.44.28,1.08-.25,2.16-.49,3.24-.73.25-.06.35-.17.29-.44-.33-1.45-.66-2.91-.98-4.37-.06-.26-.18-.34-.44-.28-1.08.25-2.16.49-3.24.73-.31.07-.35.15-.28.46.16.71.32,1.43.48,2.14ZM624.68,809.29c-2.1-.88-5.44-.08-6.85,1.54.61.51,1.22,1.03,1.83,1.54.06.05.17.06.25.05,1.19-.26,2.38-.53,3.57-.8.08-.02.17-.09.2-.16.33-.71.66-1.43.99-2.17ZM620.76,821.13c2.06.25,3.94-.17,5.72-1.22-.43-.54-.82-1.04-1.22-1.54-.04-.05-.16-.09-.23-.08-1.26.28-2.53.56-3.8.85-.15.64-.3,1.29-.46,1.99ZM624.54,811.57c-.11.15-.16.33.03.55.11.12.15.32.19.49.32,1.41.64,2.82.95,4.23.03.12.08.25.05.36-.1.38.1.63.33.89.07.08.13.16.19.24.21.26.41.52.62.78.09-.5.2-.99.11-1.44-.37-1.85-.81-3.68-1.2-5.44-.44-.23-.84-.44-1.26-.65ZM617.79,811.98c-.39.29-.79.56-1.16.87-.33.26-.3.74.04,1.02.37-.27.74-.54,1.1-.82.38-.29.38-.74.02-1.07ZM627.07,811.54c.12-.48-.02-.83-.4-.93-.48-.13-.98-.21-1.47-.31-.15.45.02.85.42.94.47.12.95.2,1.44.29ZM624.38,805.29c-.56-.53-1.16-.78-1.9-.79.06.27.11.51.17.74.07.25.25.37.51.31.38-.08.77-.17,1.22-.27ZM617.77,805.58c-.63.26-1.22.92-1.33,1.49.41-.09.81-.17,1.21-.27.22-.06.32-.23.29-.45-.04-.25-.11-.49-.17-.76Z"/>
      </g>
  </g>
  <g id="_x30_3_x5F_background_x5F_estacionamento_x5F_Map" data-name="03_background_estacionamento_Map"></g>
  <g id="_x30_4_x5F__x5F_background_x5F_wall_x5F_paredes_x5F_tech" data-name="04_background_wall_paredes_tech"></g>
  <g id="_x30_5_x5F_edge_x5F_indoor_x5F_tech" data-name="05_edge_indoor_tech"></g>
  <g id="_x30_6_x5F_edge_x5F_outdoor-tech" data-name="06_edge_outdoor-tech"></g>
  <g id="_x30_7_x5F_txt_x5F_info" data-name="07_txt_info"></g>
  <g id="_x30_8_x5F_pois" data-name="08_pois"></g>
  <g id="_x30_9_x5F_nodes_x5F_L00" data-name="09_nodes_L00"></g>
</svg>
