<?xml version="1.0" encoding="UTF-8"?>
<svg id="_06_edge_outdoor-tech" data-name="06_edge_outdoor-tech" xmlns="http://www.w3.org/2000/svg" viewBox="0 0 1011.56 862.63">
  <defs>
    <style>
      .cls-1 {
        fill: none;
        stroke: #00c980;
        stroke-miterlimit: 10;
      }
    </style>
  </defs>
  <line class="cls-1" x1="514.38" y1="678.84" x2="514.38" y2="569.29"/>
  <polyline class="cls-1" points="514.38 565.23 514.38 500.88 566.13 500.88"/>
  <line class="cls-1" x1="468.13" y1="669.25" x2="453.76" y2="669.25"/>
  <line class="cls-1" x1="22.87" y1="457.6" x2="86.24" y2="457.6"/>
  <line class="cls-1" x1="89" y1="460.24" x2="89" y2="667.86"/>
  <line class="cls-1" x1="91.54" y1="457.6" x2="204.11" y2="457.6"/>
  <line class="cls-1" x1="23.8" y1="429.51" x2="203.39" y2="429.51"/>
  <!-- Entrada estacionamento Av. Batel → corredor N0083 -->
  <line class="cls-1" x1="21.5" y1="347" x2="21.86" y2="429.51"/>
  <line class="cls-1" x1="623.92" y1="361.93" x2="611.86" y2="361.93"/>
  <line class="cls-1" x1="609.45" y1="358.92" x2="609.45" y2="254"/>
  <line class="cls-1" x1="370.06" y1="252.15" x2="188.13" y2="252.15"/>
  <line class="cls-1" x1="188.7" y1="252.15" x2="188.7" y2="232.19"/>
  <line class="cls-1" x1="190.43" y1="229.93" x2="231.29" y2="229.93"/>
  <polyline class="cls-1" points="188.7 227.82 188.7 194.71 146.65 194.71"/>
  <polyline class="cls-1" points="571.11 500.88 643.11 500.88 643.11 503.94 643.11 504.29"/>
  <polyline class="cls-1" points="643.11 509.65 643.11 513.26 737.17 513.26"/>
  <line class="cls-1" x1="502.87" y1="566.99" x2="512.72" y2="566.99"/>
  <line class="cls-1" x1="204.69" y1="669.67" x2="91.36" y2="669.67"/>
  <line class="cls-1" x1="206.72" y1="671.51" x2="206.72" y2="688.04"/>
  <line class="cls-1" x1="209.11" y1="669.67" x2="248.54" y2="669.67"/>
  <polyline class="cls-1" points="486.03 670.78 486.03 720.6 512.83 720.6"/>
  <line class="cls-1" x1="514.38" y1="722.32" x2="514.38" y2="772"/>
  <line class="cls-1" x1="512.78" y1="773.55" x2="286.93" y2="773.55"/>
  <line class="cls-1" x1="514.38" y1="789.39" x2="514.38" y2="845.19"/>
  <line class="cls-1" x1="139.54" y1="194.71" x2="89.91" y2="194.71"/>
  <polyline class="cls-1" points="82.8 194.71 21.41 194.71 21.39 269.38 10.69 269.38"/>
  <line class="cls-1" x1="142.87" y1="192.15" x2="142.87" y2="182.75"/>
  <line class="cls-1" x1="86.32" y1="192.15" x2="86.32" y2="181.97"/>
  <polyline class="cls-1" points="89 671.51 89 736.41 258.65 736.41 258.65 773.55 284.33 773.55"/>
  <line class="cls-1" x1="860.56" y1="511.87" x2="860.56" y2="502.4"/>
  <line class="cls-1" x1="515.95" y1="680.88" x2="556.43" y2="680.88"/>
  <line class="cls-1" x1="514.38" y1="682.23" x2="514.38" y2="718.84"/>
  <line class="cls-1" x1="820.99" y1="666.47" x2="797.86" y2="515.6"/>
  <line class="cls-1" x1="796.04" y1="513.26" x2="741.81" y2="513.26"/>
  <line class="cls-1" x1="372.87" y1="254.11" x2="379.76" y2="302.76"/>
  <line class="cls-1" x1="607.03" y1="252.09" x2="375.33" y2="252.09"/>
  <line class="cls-1" x1="591.32" y1="683.61" x2="591.32" y2="786.43"/>
  <line class="cls-1" x1="558.28" y1="789.69" x2="558.28" y2="825.13"/>
  <line class="cls-1" x1="560.06" y1="680.88" x2="589.17" y2="680.88"/>
  <line class="cls-1" x1="593.26" y1="680.94" x2="810.78" y2="680.94"/>
  <line class="cls-1" x1="591.21" y1="789.69" x2="591.21" y2="825.13"/>
  <line class="cls-1" x1="593.06" y1="788.06" x2="939.17" y2="788.06"/>
  <line class="cls-1" x1="724.02" y1="252.17" x2="612.2" y2="252.17"/>
  <line class="cls-1" x1="558.28" y1="683.61" x2="558.28" y2="786.2"/>
  <line class="cls-1" x1="644.75" y1="506.51" x2="646.75" y2="506.51"/>
  <line class="cls-1" x1="799.5" y1="513.26" x2="857.72" y2="513.26"/>
  <line class="cls-1" x1="568.84" y1="498.22" x2="568.84" y2="491.76"/>
  <line class="cls-1" x1="589.11" y1="788.06" x2="560.67" y2="788.06"/>
  <line class="cls-1" x1="555.95" y1="788.06" x2="516.28" y2="788.06"/>
  <line class="cls-1" x1="514.38" y1="774.91" x2="514.38" y2="785.87"/>
  <polyline class="cls-1" points="437.65 742.99 470.28 721.6 470.28 670.78"/>
  <line class="cls-1" x1="483.87" y1="669.25" x2="472.35" y2="669.25"/>
  <line class="cls-1" x1="860.56" y1="498.61" x2="860.56" y2="480.93"/>
</svg>